<?xml version="1.0" encoding="utf-8"?>
<!-- Generator: Adobe Illustrator 22.0.1, SVG Export Plug-In . SVG Version: 6.00 Build 0)  -->
<svg version="1.1" id="Слой_1" xmlns="http://www.w3.org/2000/svg" xmlns:xlink="http://www.w3.org/1999/xlink" x="0px" y="0px"
	 viewBox="0 0 39.69 39.69" style="enable-background:new 0 0 39.69 39.69;" xml:space="preserve">
<style type="text/css">
	.st0{fill:#4C5567;}
</style>
<g>
	<g>
		<path class="st0" d="M38.185,39.685H1.5c-0.674,0-1.224-0.549-1.224-1.224V1.224C0.276,0.549,0.825,0,1.5,0h36.685
			c0.675,0,1.225,0.549,1.225,1.224v37.237C39.409,39.136,38.86,39.685,38.185,39.685z M2.118,37.843h35.449V1.841H2.118V37.843z"/>
	</g>
	<g>
		<g>
			<path class="st0" d="M19.843,29.047c-5.075,0-9.205-4.129-9.205-9.205c0-5.075,4.13-9.205,9.205-9.205s9.205,4.129,9.205,9.205
				C29.047,24.918,24.918,29.047,19.843,29.047z M19.843,12.479c-4.06,0-7.363,3.303-7.363,7.363s3.303,7.364,7.363,7.364
				s7.363-3.304,7.363-7.364S23.903,12.479,19.843,12.479z"/>
		</g>
		<g>
			<path class="st0" d="M19.843,17.394c-0.508,0-0.921-0.412-0.921-0.921v-9.83c0-0.508,0.413-0.921,0.921-0.921
				s0.921,0.412,0.921,0.921v9.83C20.764,16.982,20.351,17.394,19.843,17.394z"/>
		</g>
		<g>
			<path class="st0" d="M16.473,20.763h-9.83c-0.508,0-0.921-0.412-0.921-0.921s0.413-0.921,0.921-0.921h9.83
				c0.508,0,0.921,0.412,0.921,0.921S16.982,20.763,16.473,20.763z"/>
		</g>
		<g>
			<path class="st0" d="M33.041,20.763h-9.83c-0.508,0-0.921-0.412-0.921-0.921s0.413-0.921,0.921-0.921h9.83
				c0.508,0,0.921,0.412,0.921,0.921S33.55,20.763,33.041,20.763z"/>
		</g>
		<g>
			<path class="st0" d="M19.843,33.962c-0.508,0-0.921-0.413-0.921-0.921v-9.83c0-0.508,0.413-0.921,0.921-0.921
				s0.921,0.412,0.921,0.921v9.83C20.764,33.55,20.351,33.962,19.843,33.962z"/>
		</g>
	</g>
</g>
</svg>
