<?xml version="1.0" encoding="utf-8"?>
<!-- Generator: Adobe Illustrator 22.0.1, SVG Export Plug-In . SVG Version: 6.00 Build 0)  -->
<svg version="1.1" id="Слой_1" xmlns="http://www.w3.org/2000/svg" xmlns:xlink="http://www.w3.org/1999/xlink" x="0px" y="0px"
	 viewBox="0 0 39.69 39.69" style="enable-background:new 0 0 39.69 39.69;" xml:space="preserve">
<style type="text/css">
	.st0{fill:#4C5567;}
	.st1{fill-rule:evenodd;clip-rule:evenodd;fill:#4C5567;}
</style>
<g>
	<g>
		<path class="st0" d="M38.185,39.685H1.5c-0.675,0-1.225-0.549-1.225-1.224V1.224C0.276,0.549,0.825,0,1.5,0h36.684
			c0.675,0,1.225,0.549,1.225,1.224v37.237C39.409,39.136,38.86,39.685,38.185,39.685z M2.118,37.844h35.449V1.841H2.118V37.844z"/>
	</g>
	<g>
		<path class="st0" d="M10.477,18.191H8.306v-8.179c-0.792,0.741-1.727,1.29-2.803,1.645v-1.97c0.566-0.185,1.182-0.537,1.846-1.054
			c0.664-0.517,1.119-1.121,1.367-1.811h1.761V18.191z"/>
		<path class="st0" d="M15.582,12.082c-0.561-0.237-0.969-0.562-1.224-0.977c-0.255-0.414-0.383-0.869-0.383-1.363
			c0-0.844,0.295-1.542,0.885-2.093c0.589-0.551,1.428-0.826,2.514-0.826c1.076,0,1.911,0.276,2.506,0.826
			c0.594,0.551,0.892,1.249,0.892,2.093c0,0.525-0.137,0.993-0.41,1.402c-0.273,0.409-0.657,0.722-1.151,0.938
			c0.629,0.252,1.106,0.621,1.433,1.104c0.327,0.484,0.491,1.043,0.491,1.676c0,1.045-0.333,1.895-1,2.549
			c-0.668,0.654-1.554,0.981-2.662,0.981c-1.03,0-1.887-0.27-2.571-0.811c-0.809-0.638-1.213-1.514-1.213-2.626
			c0-0.613,0.152-1.175,0.456-1.688C14.45,12.755,14.928,12.36,15.582,12.082z M15.83,14.746c0,0.597,0.153,1.063,0.459,1.398
			c0.306,0.335,0.689,0.502,1.147,0.502c0.448,0,0.819-0.161,1.112-0.482c0.293-0.322,0.44-0.786,0.44-1.394
			c0-0.53-0.15-0.956-0.448-1.279c-0.299-0.321-0.677-0.482-1.135-0.482c-0.531,0-0.926,0.183-1.185,0.548
			C15.959,13.923,15.83,14.319,15.83,14.746z M16.03,9.896c0,0.433,0.123,0.77,0.367,1.012c0.245,0.242,0.571,0.363,0.978,0.363
			c0.412,0,0.741-0.122,0.988-0.367c0.248-0.244,0.371-0.583,0.371-1.016c0-0.406-0.122-0.732-0.367-0.977
			c-0.244-0.244-0.567-0.367-0.969-0.367c-0.416,0-0.749,0.124-0.996,0.371C16.154,9.162,16.03,9.49,16.03,9.896z"/>
		<path class="st0" d="M26.186,6.822c1.097,0,1.954,0.392,2.572,1.174c0.737,0.927,1.104,2.464,1.104,4.611
			c0,2.142-0.371,3.682-1.112,4.619c-0.613,0.772-1.468,1.158-2.565,1.158c-1.102,0-1.99-0.424-2.664-1.271
			c-0.675-0.847-1.012-2.357-1.012-4.53c0-2.132,0.371-3.666,1.113-4.603C24.234,7.208,25.089,6.822,26.186,6.822z M26.186,8.622
			c-0.263,0-0.497,0.084-0.703,0.251c-0.206,0.168-0.365,0.467-0.479,0.9c-0.149,0.561-0.224,1.506-0.224,2.834
			s0.066,2.241,0.2,2.738c0.134,0.497,0.303,0.828,0.507,0.993c0.203,0.165,0.436,0.247,0.698,0.247
			c0.263,0,0.497-0.084,0.703-0.251c0.206-0.168,0.365-0.467,0.479-0.9c0.149-0.556,0.224-1.498,0.224-2.827
			s-0.067-2.241-0.201-2.738c-0.134-0.497-0.303-0.829-0.506-0.996C26.682,8.705,26.449,8.622,26.186,8.622z"/>
		<path class="st0" d="M31.307,9.139c0-0.684,0.241-1.267,0.723-1.745c0.481-0.479,1.062-0.718,1.741-0.718s1.26,0.241,1.741,0.722
			s0.723,1.062,0.723,1.741c0,0.68-0.241,1.26-0.723,1.742c-0.481,0.481-1.062,0.722-1.741,0.722s-1.26-0.241-1.741-0.722
			C31.548,10.399,31.307,9.819,31.307,9.139z M32.59,9.139c0,0.325,0.115,0.603,0.347,0.834c0.232,0.231,0.51,0.347,0.834,0.347
			s0.603-0.116,0.834-0.347c0.232-0.232,0.347-0.51,0.347-0.834c0-0.324-0.115-0.602-0.347-0.834
			c-0.232-0.232-0.51-0.347-0.834-0.347s-0.603,0.115-0.834,0.347C32.705,8.537,32.59,8.815,32.59,9.139z"/>
	</g>
	<g>
		<g>
			<path class="st1" d="M32.641,24.815H7.044l6.026,4.307c2.127-0.819,8.367-2.767,13.559-0.01L32.641,24.815z"/>
		</g>
		<g>
			<path class="st1" d="M19.843,33.961l5.95-4.253c-4.32-2.039-9.458-0.735-11.806,0.068L19.843,33.961z"/>
		</g>
		<g>
			<polygon class="st1" points="34.224,24.815 34.224,24.815 34.224,24.815 			"/>
		</g>
		<g>
			<polygon class="st1" points="5.461,25.947 5.461,34.923 18.02,34.923 			"/>
		</g>
		<g>
			<polygon class="st1" points="21.665,34.923 34.224,34.923 34.224,25.947 			"/>
		</g>
	</g>
</g>
</svg>
