<?xml version="1.0" encoding="utf-8"?>
<!-- Generator: Adobe Illustrator 22.0.1, SVG Export Plug-In . SVG Version: 6.00 Build 0)  -->
<svg version="1.1" id="Слой_1" xmlns="http://www.w3.org/2000/svg" xmlns:xlink="http://www.w3.org/1999/xlink" x="0px" y="0px"
	 viewBox="0 0 39.69 39.69" style="enable-background:new 0 0 39.69 39.69;" xml:space="preserve">
<style type="text/css">
	.st0{fill-rule:evenodd;clip-rule:evenodd;fill:#FEEB1A;}
	.st1{fill-rule:evenodd;clip-rule:evenodd;fill:#2C2B2A;}
	.st2{fill:#2C2B2A;}
</style>
<g>
	<rect x="4.489" y="0" class="st0" width="30.707" height="39.685"/>
	<polygon class="st1" points="10.624,6.013 13.697,6.013 16.771,6.013 16.771,9.086 13.697,9.086 13.697,18.305 16.771,18.305 
		16.771,21.379 13.697,21.379 13.697,30.598 16.771,30.598 16.771,33.672 13.697,33.672 10.624,33.672 	"/>
	<polygon class="st1" points="19.844,18.304 22.918,25.988 19.844,33.672 22.917,33.672 24.455,29.829 25.993,33.672 29.066,33.672 
		25.992,25.988 29.066,18.304 25.992,18.304 24.455,22.146 22.918,18.304 	"/>
	<path class="st2" d="M31.609,3.471H8.076v32.743h23.533V3.471z M7.615,2.549H32.07h0.461V3.01v33.665v0.461H32.07H7.615H7.154
		v-0.461V3.01V2.549H7.615z"/>
</g>
</svg>
