<?xml version="1.0" encoding="utf-8"?>
<!-- Generator: Adobe Illustrator 22.0.1, SVG Export Plug-In . SVG Version: 6.00 Build 0)  -->
<svg version="1.1" id="Слой_1" xmlns="http://www.w3.org/2000/svg" xmlns:xlink="http://www.w3.org/1999/xlink" x="0px" y="0px"
	 viewBox="0 0 39.69 39.69" style="enable-background:new 0 0 39.69 39.69;" xml:space="preserve">
<style type="text/css">
	.st0{fill:#4C5567;}
</style>
<g>
	<g>
		<path class="st0" d="M38.185,39.685H1.5c-0.675,0-1.225-0.549-1.225-1.224V1.224C0.276,0.549,0.825,0,1.5,0h36.684
			c0.675,0,1.225,0.549,1.225,1.224v37.237C39.409,39.136,38.86,39.685,38.185,39.685z M2.118,37.844h35.449V1.841H2.118V37.844z"/>
	</g>
	<g>
		<path class="st0" d="M31.088,22.421c-0.345-4.498-2.44-7.317-4.287-9.804c-1.711-2.303-3.188-4.291-3.188-7.225
			c0-0.236-0.132-0.451-0.341-0.559c-0.21-0.109-0.462-0.091-0.653,0.048c-2.775,1.985-5.09,5.332-5.899,8.525
			c-0.561,2.223-0.636,4.722-0.646,6.372c-2.562-0.547-3.143-4.38-3.149-4.422c-0.029-0.199-0.15-0.372-0.327-0.466
			c-0.179-0.093-0.388-0.1-0.569-0.01c-0.134,0.065-3.298,1.673-3.482,8.091c-0.013,0.214-0.013,0.428-0.013,0.642
			c0,6.236,5.074,11.309,11.31,11.309c0.009,0.001,0.018,0.002,0.025,0c0.002,0,0.005,0,0.008,0
			c6.221-0.018,11.277-5.085,11.277-11.309C31.152,23.299,31.088,22.421,31.088,22.421z M16.072,29.649
			c0-0.075-0.001-0.152,0.005-0.245c0.025-0.934,0.202-1.571,0.397-1.995c0.364,0.783,1.016,1.503,2.075,1.503
			c0.347,0,0.628-0.281,0.628-0.628c0-0.895,0.018-1.927,0.241-2.858c0.198-0.826,0.672-1.704,1.272-2.409
			c0.267,0.914,0.787,1.654,1.295,2.376c0.727,1.033,1.479,2.101,1.611,3.923c0.008,0.108,0.016,0.217,0.016,0.333
			c0,2.214-1.691,4.016-3.77,4.016S16.072,31.863,16.072,29.649z"/>
	</g>
</g>
</svg>
