<?xml version="1.0" encoding="utf-8"?>
<!-- Generator: Adobe Illustrator 22.0.1, SVG Export Plug-In . SVG Version: 6.00 Build 0)  -->
<svg version="1.1" id="Слой_1" xmlns="http://www.w3.org/2000/svg" xmlns:xlink="http://www.w3.org/1999/xlink" x="0px" y="0px"
	 viewBox="0 0 39.69 39.69" style="enable-background:new 0 0 39.69 39.69;" xml:space="preserve">
<style type="text/css">
	.st0{fill-rule:evenodd;clip-rule:evenodd;fill:#4C5567;}
	.st1{fill:#4C5567;}
</style>
<g>
	<g>
		<path class="st0" d="M13.096,25.276v-8.667l6.547,2.492v8.703L13.096,25.276z M25.469,16.766c0.066,0.289,0.197,0.578,0.381,0.788
			C28.577,19.991,24.285,20.065,25.469,16.766z M26.823,11.998c-0.274,0-5.107,6.696-0.867,8.262c1.59,0.591,3.39-0.21,3.704-1.944
			C30.003,16.706,27.556,12.245,26.823,11.998z M24.223,10.1c-0.123,0-2.293,3.007-0.389,3.709c0.714,0.265,1.522-0.094,1.663-0.873
			C25.651,12.214,24.553,10.211,24.223,10.1z M22.53,12.796l-1.922-0.653c-0.186-0.036-0.336-0.036-0.483,0l-7.859,2.671
			c-0.59,0.181-0.621,0.624-0.622,0.703v0.012v10.265c0,0.297,0.186,0.558,0.483,0.669l7.998,3.086c0.143,0.061,0.447,0.036,0.522,0
			l7.998-3.082c0.297-0.111,0.483-0.372,0.483-0.669v-4.834l-1.451,0.244v4.068l-6.547,2.528v-8.681l1.688-0.648
			c-0.158-0.442-0.327-0.943-0.483-1.415L20.387,17.8l-5.878-2.235l5.878-1.97l1.713,0.574L22.53,12.796z"/>
	</g>
	<g>
		<path class="st1" d="M38.185,39.685H1.5c-0.674,0-1.224-0.549-1.224-1.224V1.224C0.276,0.549,0.825,0,1.5,0h36.685
			c0.675,0,1.225,0.549,1.225,1.224v37.237C39.409,39.136,38.86,39.685,38.185,39.685z M2.118,37.844h35.449V1.841H2.118V37.844z"/>
	</g>
</g>
</svg>
