<?xml version="1.0" encoding="utf-8"?>
<!-- Generator: Adobe Illustrator 22.0.1, SVG Export Plug-In . SVG Version: 6.00 Build 0)  -->
<svg version="1.1" id="Слой_1" xmlns="http://www.w3.org/2000/svg" xmlns:xlink="http://www.w3.org/1999/xlink" x="0px" y="0px"
	 viewBox="0 0 39.69 39.69" style="enable-background:new 0 0 39.69 39.69;" xml:space="preserve">
<style type="text/css">
	.st0{fill:#4C5567;}
	.st1{fill-rule:evenodd;clip-rule:evenodd;fill:#4C5567;}
	.st2{fill:#FFFFFF;}
</style>
<g>
	<g>
		<path class="st0" d="M38.185,39.685H1.5c-0.675,0-1.225-0.549-1.225-1.224V1.224C0.276,0.549,0.825,0,1.5,0h36.684
			c0.675,0,1.225,0.549,1.225,1.224v37.237C39.409,39.136,38.86,39.685,38.185,39.685z M2.118,37.844h35.449V1.841H2.118V37.844z"/>
	</g>
	<g>
		<path class="st0" d="M13.015,18.191V6.868h2.286v11.323H13.015z"/>
		<path class="st0" d="M17.486,18.191V6.868h4.812c1.21,0,2.09,0.102,2.637,0.305c0.549,0.203,0.988,0.565,1.317,1.085
			c0.33,0.52,0.494,1.115,0.494,1.784c0,0.85-0.25,1.551-0.749,2.105c-0.5,0.554-1.246,0.902-2.24,1.047
			c0.494,0.288,0.902,0.605,1.224,0.95c0.322,0.345,0.756,0.958,1.302,1.838l1.382,2.209h-2.734l-1.653-2.464
			c-0.587-0.881-0.988-1.436-1.204-1.665c-0.217-0.229-0.446-0.386-0.688-0.471c-0.242-0.085-0.625-0.128-1.15-0.128h-0.464v4.727
			H17.486z M19.773,11.657h1.691c1.097,0,1.781-0.047,2.054-0.139c0.274-0.093,0.487-0.252,0.642-0.479s0.232-0.51,0.232-0.85
			c0-0.381-0.102-0.689-0.305-0.923s-0.491-0.382-0.861-0.444c-0.185-0.026-0.741-0.039-1.668-0.039h-1.784V11.657z"/>
	</g>
	<g>
		<rect x="5.461" y="24.815" class="st1" width="28.763" height="10.108"/>
	</g>
	<g>
		<path class="st2" d="M13.041,32.52v-5.23h1.065v4.342h2.647v0.888H13.041z"/>
		<path class="st2" d="M17.512,32.52v-5.273h3.91v0.892h-2.845v1.169h2.647v0.888h-2.647v1.435h2.946v0.888H17.512z"/>
		<path class="st2" d="M22.422,27.247h1.945c0.439,0,0.774,0.034,1.004,0.101c0.309,0.091,0.574,0.253,0.794,0.486
			c0.221,0.232,0.388,0.517,0.504,0.854c0.115,0.337,0.172,0.752,0.172,1.246c0,0.434-0.054,0.808-0.161,1.122
			c-0.132,0.384-0.32,0.694-0.565,0.932c-0.184,0.18-0.434,0.32-0.748,0.421c-0.236,0.074-0.549,0.111-0.942,0.111h-2.003V27.247z
			 M23.487,28.139v3.493h0.794c0.298,0,0.512-0.017,0.644-0.05c0.172-0.043,0.316-0.116,0.429-0.219
			c0.115-0.103,0.207-0.273,0.279-0.509c0.072-0.237,0.108-0.558,0.108-0.966c0-0.408-0.036-0.721-0.108-0.939
			c-0.073-0.218-0.173-0.389-0.303-0.511c-0.129-0.122-0.293-0.205-0.493-0.248c-0.149-0.034-0.44-0.051-0.874-0.051H23.487z"/>
	</g>
</g>
</svg>
