<?xml version="1.0" encoding="utf-8"?>
<!-- Generator: Adobe Illustrator 22.0.1, SVG Export Plug-In . SVG Version: 6.00 Build 0)  -->
<svg version="1.1" id="Слой_1" xmlns="http://www.w3.org/2000/svg" xmlns:xlink="http://www.w3.org/1999/xlink" x="0px" y="0px"
	 viewBox="0 0 39.69 39.69" style="enable-background:new 0 0 39.69 39.69;" xml:space="preserve">
<style type="text/css">
	.st0{fill:#4C5567;}
	.st1{fill-rule:evenodd;clip-rule:evenodd;fill:#4C5567;}
</style>
<g>
	<g>
		<path class="st0" d="M38.185,39.685H1.5c-0.675,0-1.225-0.549-1.225-1.224V1.224C0.276,0.549,0.825,0,1.5,0h36.684
			c0.675,0,1.225,0.549,1.225,1.224v37.237C39.409,39.136,38.86,39.685,38.185,39.685z M2.118,37.844h35.449V1.841H2.118V37.844z"/>
	</g>
	<g>
		<g>
			<path class="st1" d="M20.614,27.051V25.09l-1.542,1.302v0.658l-6.787-2.621V24.43v0.001l-1.505-0.162v0.7
				c0,0.307,0.192,0.579,0.5,0.693l8.292,3.199c0.148,0.063,0.463,0.037,0.541,0l8.292-3.195c0.307-0.115,0.501-0.385,0.501-0.694
				v-0.752l-1.505,0.211L20.614,27.051z"/>
		</g>
		<g>
			<path class="st1" d="M12.284,15.445l6.787,2.583v0.974l1.542,1.288v-2.239l6.787-2.606v4.474l1.505-0.169v-5.425
				c0-0.23-0.141-0.674-0.69-0.745l-8.144-2.765c-0.193-0.037-0.349-0.037-0.5,0l-8.148,2.769c-0.612,0.188-0.644,0.647-0.645,0.729
				v0.012v5.356l1.505,0.188V15.445z M19.843,12.32l6.094,2.042l-6.094,2.318l-6.094-2.318L19.843,12.32z"/>
		</g>
		<g>
			<path class="st1" d="M17.903,25.826l2.873-2.338c0.243-0.196,0.722-0.684,0.983-0.733c-0.081-0.375,0.093-0.044-0.193-0.317
				l-3.663-2.991l-0.012,2.065c-3.875-0.04-8.471-0.489-11.938-1.557c-1.625-0.501-4.047-1.687-1.863-3.081
				c0.676-0.431,1.588-0.747,2.423-0.989c1.36-0.394,1.471-0.121,1.715-0.785c0.246-0.67,0.176-0.497,0.038-0.565
				c-1.588,0.361-9.213,1.994-7.426,4.851c0.473,0.756,1.476,1.323,2.474,1.769c3.597,1.607,10.137,2.401,14.583,2.411
				L17.903,25.826z"/>
		</g>
		<g>
			<path class="st1" d="M38.947,17.933l-0.204-0.442c-0.284-0.163-0.397-0.366-0.721-0.601c-0.673-0.488-1.734-0.974-2.526-1.263
				c-1.091-0.398-2.761-0.88-4.008-1.067l-0.289,0.811c0.687,0.369,3.016,0.484,4.729,1.72c1.85,1.334-1.213,2.558-2.293,2.9
				c-2.445,0.773-5.541,1.145-8.177,1.355c-0.511,0.04-1.008,0.074-1.517,0.099c-0.907,0.046-1.336-0.098-1.34,0.287v1.803
				c2.026,0.22,8.108-0.725,10.237-1.239C34.215,21.964,40.184,20.419,38.947,17.933"/>
		</g>
	</g>
</g>
</svg>
