<?xml version="1.0" encoding="utf-8"?>
<!-- Generator: Adobe Illustrator 22.0.1, SVG Export Plug-In . SVG Version: 6.00 Build 0)  -->
<svg version="1.1" id="Слой_1" xmlns="http://www.w3.org/2000/svg" xmlns:xlink="http://www.w3.org/1999/xlink" x="0px" y="0px"
	 viewBox="0 0 39.69 39.69" style="enable-background:new 0 0 39.69 39.69;" xml:space="preserve">
<style type="text/css">
	.st0{fill:#4C5567;}
</style>
<g>
	<g>
		<path class="st0" d="M38.185,39.685H1.5c-0.674,0-1.224-0.549-1.224-1.224V1.224C0.276,0.549,0.825,0,1.5,0h36.685
			c0.675,0,1.225,0.549,1.225,1.224v37.237C39.409,39.136,38.86,39.685,38.185,39.685z M2.118,37.844h35.449V1.841H2.118V37.844z"/>
	</g>
	<g>
		<g>
			<g>
				<path class="st0" d="M15.181,18.769h1.69v2.619c0.282-0.032,0.481-0.119,0.598-0.26c0.117-0.141,0.258-0.449,0.423-0.923
					c0.217-0.632,0.455-1.036,0.712-1.213c0.258-0.177,0.595-0.266,1.014-0.266c0.129,0,0.352,0.01,0.67,0.03l0.006,1.122
					c-0.447,0-0.732,0.042-0.857,0.127c-0.125,0.089-0.26,0.352-0.404,0.79c-0.197,0.592-0.481,0.956-0.851,1.092
					c0.535,0.149,0.988,0.614,1.358,1.394c0.02,0.04,0.042,0.083,0.066,0.127l0.947,1.768H18.73l-0.845-1.853
					c-0.173-0.374-0.323-0.614-0.45-0.721c-0.127-0.106-0.315-0.16-0.565-0.16v2.734h-1.69V18.769z"/>
			</g>
			<g>
				<path class="st0" d="M21.367,18.769h4.327v1.37h-2.631v5.039h-1.696V18.769z"/>
			</g>
		</g>
		<g>
			<path class="st0" d="M24.389,14.518c-0.46,0-0.833-0.373-0.833-0.833c0-0.288,0.006-0.571,0.011-0.847
				c0.026-1.273,0.047-2.279-0.501-2.838c-0.505-0.515-1.608-0.777-3.28-0.777s-2.776,0.261-3.281,0.777
				c-0.548,0.558-0.527,1.564-0.501,2.838c0.006,0.276,0.011,0.558,0.011,0.846c0,0.46-0.373,0.833-0.833,0.833
				s-0.833-0.373-0.833-0.833c0-0.277-0.006-0.548-0.011-0.813c-0.031-1.532-0.061-2.98,0.977-4.038
				c0.854-0.872,2.275-1.278,4.472-1.278c2.196,0,3.617,0.406,4.471,1.277c1.037,1.059,1.008,2.506,0.977,4.038
				c-0.006,0.265-0.011,0.536-0.011,0.813C25.222,14.145,24.849,14.518,24.389,14.518z"/>
		</g>
		<g>
			<path class="st0" d="M21.86,32.215l-4.127-0.019C12.951,31.206,9.48,26.94,9.48,22.051c0-5.713,4.649-10.361,10.362-10.361
				s10.361,4.648,10.361,10.361c0,4.889-3.471,9.155-8.252,10.145L21.86,32.215z M18.015,30.374h3.653
				c3.884-0.848,6.693-4.334,6.693-8.323c0-4.698-3.822-8.52-8.519-8.52c-4.698,0-8.52,3.822-8.52,8.52
				C11.322,26.04,14.131,29.525,18.015,30.374z"/>
		</g>
	</g>
	<g>
		<path class="st0" d="M33.117,32.588H6.567c-0.46,0-0.833-0.373-0.833-0.833c0-0.46,0.373-0.833,0.833-0.833h26.549
			c0.46,0,0.833,0.373,0.833,0.833C33.95,32.215,33.577,32.588,33.117,32.588z"/>
	</g>
</g>
</svg>
