<?xml version="1.0" encoding="utf-8"?>
<!-- Generator: Adobe Illustrator 22.0.1, SVG Export Plug-In . SVG Version: 6.00 Build 0)  -->
<svg version="1.1" id="Слой_1" xmlns="http://www.w3.org/2000/svg" xmlns:xlink="http://www.w3.org/1999/xlink" x="0px" y="0px"
	 viewBox="0 0 39.69 39.69" style="enable-background:new 0 0 39.69 39.69;" xml:space="preserve">
<style type="text/css">
	.st0{fill:#4C5567;}
</style>
<g>
	<g>
		<g>
			<path class="st0" d="M30.243,10.131l1.232-1.232c0.191-0.192,0.191-0.504,0-0.695c-0.192-0.192-0.501-0.192-0.693,0L29.55,9.436
				c-2.644-2.472-6.072-3.831-9.709-3.831c-2.968,0-5.785,0.904-8.187,2.599c-0.453-0.407-1.024-0.635-1.637-0.635
				c-0.657,0-1.273,0.254-1.736,0.717c-0.923,0.925-0.947,2.404-0.087,3.365c-3.95,5.605-3.308,13.377,1.575,18.257
				c2.687,2.69,6.264,4.171,10.066,4.171c3.804,0,7.378-1.481,10.068-4.171C35.34,24.474,35.45,15.705,30.243,10.131L30.243,10.131z
				 M29.21,29.216c-2.503,2.503-5.832,3.881-9.373,3.881s-6.868-1.378-9.373-3.881c-4.538-4.54-5.142-11.763-1.484-16.977
				c0.077,0.036,0.155,0.067,0.237,0.096c0.026,0.01,0.058,0.017,0.087,0.024c0.12,0.039,0.242,0.068,0.369,0.084
				c0.077,0.012,0.152,0.019,0.228,0.024c0.041,0,0.077,0.01,0.117,0.01c0.657,0,1.273-0.254,1.736-0.719
				c0.106-0.106,0.196-0.223,0.28-0.343c0.031-0.045,0.058-0.093,0.087-0.141c0.043-0.074,0.083-0.148,0.12-0.228
				c0.029-0.063,0.055-0.127,0.079-0.192c0.021-0.06,0.036-0.12,0.053-0.182c0.082-0.297,0.106-0.604,0.074-0.908
				c-0.002-0.026-0.005-0.055-0.007-0.082c-0.014-0.101-0.036-0.201-0.062-0.299c-0.01-0.031-0.02-0.06-0.026-0.091
				c-0.034-0.101-0.067-0.199-0.113-0.297c-0.002-0.002-0.002-0.005-0.005-0.007c2.232-1.57,4.855-2.397,7.609-2.397
				c3.375,0,6.556,1.256,9.013,3.54l-1.745,1.745c-1.99-1.822-4.551-2.829-7.273-2.829c-2.889,0-5.6,1.122-7.637,3.159
				c-4.212,4.21-4.212,11.064,0,15.273c2.037,2.037,4.749,3.159,7.637,3.159c2.889,0,5.6-1.122,7.637-3.159
				c1.7-1.697,2.774-3.929,3.066-6.317c0.41-0.11,0.791-0.317,1.1-0.625c0.957-0.957,0.957-2.515,0-3.472
				c-0.427-0.427-0.987-0.666-1.587-0.705c-0.477-1.402-1.242-2.702-2.241-3.798l1.738-1.738
				C34.373,16.016,34.261,24.163,29.21,29.216L29.21,29.216z M29.052,16.506c-0.139,0.05-0.274,0.118-0.403,0.195
				c-0.024,0.014-0.05,0.024-0.074,0.041c-0.144,0.093-0.283,0.199-0.405,0.323c-0.12,0.118-0.223,0.247-0.314,0.384
				c-0.014,0.021-0.024,0.048-0.038,0.07c-0.069,0.115-0.137,0.234-0.187,0.359c-0.002,0.005-0.002,0.01-0.005,0.015
				c-0.112,0.288-0.175,0.592-0.175,0.908c0,0.319,0.063,0.626,0.177,0.914c0,0.004,0,0.007,0.002,0.012
				c0.05,0.125,0.118,0.242,0.19,0.36c0.014,0.021,0.021,0.048,0.036,0.069c0.091,0.137,0.195,0.264,0.314,0.384
				c0.103,0.103,0.218,0.195,0.338,0.279c0.048,0.033,0.101,0.062,0.151,0.091c0.072,0.041,0.141,0.082,0.218,0.115
				c0.07,0.034,0.142,0.06,0.216,0.087c0.053,0.019,0.108,0.036,0.163,0.05c0.091,0.024,0.182,0.045,0.276,0.06
				c0.007,0.002,0.012,0.005,0.019,0.005c-0.297,2.102-1.268,4.061-2.771,5.561c-1.85,1.853-4.317,2.872-6.942,2.872
				c-2.625,0-5.092-1.019-6.945-2.872c-3.829-3.828-3.829-10.057,0-13.885c1.853-1.853,4.32-2.872,6.945-2.872
				c2.46,0,4.773,0.906,6.581,2.541l-6.928,6.926c-0.192,0.192-0.192,0.501,0,0.693c0.096,0.096,0.223,0.144,0.347,0.144
				c0.127,0,0.252-0.048,0.347-0.144l6.924-6.923c0.853,0.942,1.527,2.04,1.958,3.234C29.061,16.501,29.056,16.503,29.052,16.506
				L29.052,16.506z M29.052,16.506"/>
		</g>
		<g>
			<path class="st0" d="M20.879,20.883c-0.288,0.288-0.666,0.431-1.043,0.431s-0.753-0.144-1.04-0.431
				c-0.576-0.576-0.576-1.508,0-2.083l4.744-4.744c-1.095-0.703-2.368-1.084-3.704-1.084c-1.839,0-3.565,0.714-4.859,2.009
				c-1.297,1.297-2.011,3.023-2.011,4.862c0,1.836,0.714,3.562,2.011,4.859c1.297,1.294,3.021,2.009,4.859,2.009
				c1.839,0,3.565-0.712,4.859-2.009c1.297-1.297,2.011-3.023,2.011-4.859c0-1.335-0.381-2.611-1.083-3.704L20.879,20.883z
				 M20.879,20.883"/>
		</g>
	</g>
	<g>
		<path class="st0" d="M38.185,39.685H1.5c-0.675,0-1.225-0.549-1.225-1.224V1.224C0.276,0.549,0.825,0,1.5,0h36.684
			c0.675,0,1.225,0.549,1.225,1.224v37.237C39.409,39.136,38.86,39.685,38.185,39.685z M2.118,37.844h35.449V1.841H2.118V37.844z"/>
	</g>
</g>
</svg>
