<?xml version="1.0" encoding="utf-8"?>
<!-- Generator: Adobe Illustrator 22.0.1, SVG Export Plug-In . SVG Version: 6.00 Build 0)  -->
<svg version="1.1" id="Слой_1" xmlns="http://www.w3.org/2000/svg" xmlns:xlink="http://www.w3.org/1999/xlink" x="0px" y="0px"
	 viewBox="0 0 39.69 39.69" style="enable-background:new 0 0 39.69 39.69;" xml:space="preserve">
<style type="text/css">
	.st0{fill:#4C5567;}
	.st1{fill-rule:evenodd;clip-rule:evenodd;fill:#4C5567;}
	.st2{fill:#FFFFFF;}
</style>
<g>
	<g>
		<path class="st0" d="M38.185,39.685H1.5c-0.675,0-1.224-0.549-1.224-1.224V1.224C0.276,0.549,0.825,0,1.5,0h36.684
			c0.675,0,1.224,0.549,1.224,1.224v37.237C39.409,39.136,38.86,39.685,38.185,39.685z M2.117,37.844h35.45V1.841H2.117V37.844z"/>
	</g>
	<g>
		<path class="st0" d="M9.559,15.279l2.163-0.224c0.062,0.489,0.244,0.877,0.549,1.163c0.304,0.286,0.654,0.428,1.05,0.428
			c0.453,0,0.836-0.184,1.151-0.552c0.314-0.368,0.471-0.923,0.471-1.664c0-0.695-0.156-1.217-0.467-1.564
			c-0.312-0.348-0.717-0.522-1.216-0.522c-0.623,0-1.182,0.276-1.676,0.826l-1.761-0.255l1.112-5.893h5.739v2.032h-4.094
			l-0.34,1.923c0.484-0.242,0.978-0.363,1.483-0.363c0.963,0,1.779,0.35,2.448,1.05c0.67,0.7,1.004,1.609,1.004,2.726
			c0,0.932-0.271,1.764-0.811,2.495c-0.736,0.999-1.758,1.498-3.066,1.498c-1.045,0-1.897-0.281-2.557-0.842
			C10.082,16.981,9.688,16.227,9.559,15.279z"/>
		<path class="st0" d="M18.773,18.191V6.868h3.421l2.055,7.723l2.031-7.723h3.429v11.323h-2.124V9.278l-2.248,8.913h-2.201
			l-2.24-8.913v8.913H18.773z"/>
	</g>
	<g>
		<rect x="5.461" y="24.815" class="st1" width="28.763" height="10.108"/>
	</g>
	<g>
		<path class="st2" d="M15.021,28.7h0.942v0.561c0.122-0.192,0.288-0.348,0.496-0.468c0.209-0.12,0.44-0.18,0.694-0.18
			c0.444,0,0.82,0.174,1.13,0.522c0.309,0.348,0.464,0.832,0.464,1.453c0,0.638-0.156,1.133-0.467,1.487
			c-0.312,0.354-0.689,0.53-1.133,0.53c-0.211,0-0.402-0.042-0.574-0.126c-0.171-0.084-0.352-0.228-0.542-0.432v1.924h-1.01V28.7z
			 M16.021,30.545c0,0.429,0.085,0.746,0.256,0.951c0.17,0.205,0.378,0.308,0.622,0.308c0.235,0,0.43-0.094,0.586-0.283
			c0.156-0.188,0.234-0.497,0.234-0.926c0-0.4-0.08-0.698-0.241-0.892c-0.161-0.194-0.36-0.291-0.597-0.291
			c-0.247,0-0.452,0.095-0.615,0.286C16.103,29.889,16.021,30.171,16.021,30.545z"/>
		<path class="st2" d="M19.55,28.182v-0.935h1.01v0.935H19.55z M19.55,32.52V28.7h1.01v3.82H19.55z"/>
		<path class="st2" d="M21.111,32.52l1.377-1.967l-1.32-1.852h1.234l0.676,1.05l0.712-1.05h1.187l-1.295,1.809l1.414,2.011h-1.241
			l-0.777-1.183l-0.784,1.183H21.111z"/>
	</g>
</g>
</svg>
