<?xml version="1.0" encoding="utf-8"?>
<!-- Generator: Adobe Illustrator 22.0.1, SVG Export Plug-In . SVG Version: 6.00 Build 0)  -->
<svg version="1.1" id="Слой_1" xmlns="http://www.w3.org/2000/svg" xmlns:xlink="http://www.w3.org/1999/xlink" x="0px" y="0px"
	 viewBox="0 0 39.69 39.69" style="enable-background:new 0 0 39.69 39.69;" xml:space="preserve">
<style type="text/css">
	.st0{fill:#4C5567;}
	.st1{fill-rule:evenodd;clip-rule:evenodd;fill:#4C5567;}
	.st2{fill:#FFFFFF;}
</style>
<g>
	<g>
		<path class="st0" d="M38.185,39.685H1.5c-0.675,0-1.224-0.549-1.224-1.224V1.224C0.276,0.549,0.825,0,1.5,0h36.684
			c0.675,0,1.224,0.549,1.224,1.224v37.237C39.409,39.136,38.86,39.685,38.185,39.685z M2.117,37.844h35.45V1.841H2.117V37.844z"/>
	</g>
	<g>
		<path class="st0" d="M9.451,15.186l2.101-0.255c0.067,0.535,0.247,0.945,0.541,1.228c0.294,0.284,0.649,0.425,1.066,0.425
			c0.448,0,0.825-0.17,1.131-0.51c0.306-0.34,0.46-0.798,0.46-1.375c0-0.546-0.147-0.978-0.44-1.297
			c-0.294-0.319-0.651-0.479-1.074-0.479c-0.278,0-0.61,0.054-0.996,0.163l0.24-1.769c0.587,0.015,1.035-0.112,1.344-0.382
			c0.309-0.271,0.463-0.63,0.463-1.077c0-0.381-0.113-0.685-0.34-0.911c-0.227-0.227-0.528-0.34-0.904-0.34
			c-0.371,0-0.687,0.129-0.95,0.386C11.83,9.25,11.67,9.625,11.613,10.12l-2-0.34c0.139-0.684,0.349-1.232,0.629-1.641
			c0.281-0.409,0.672-0.731,1.174-0.965s1.064-0.352,1.687-0.352c1.066,0,1.921,0.34,2.564,1.02c0.53,0.556,0.796,1.184,0.796,1.884
			c0,0.994-0.543,1.787-1.63,2.379c0.649,0.139,1.167,0.451,1.556,0.935c0.389,0.484,0.583,1.069,0.583,1.753
			c0,0.994-0.363,1.841-1.089,2.541c-0.726,0.7-1.63,1.05-2.711,1.05c-1.024,0-1.874-0.295-2.548-0.885
			C9.95,16.91,9.559,16.139,9.451,15.186z"/>
		<path class="st0" d="M18.773,18.191V6.868h3.421l2.055,7.723l2.031-7.723h3.429v11.323h-2.124V9.278l-2.248,8.913h-2.201
			l-2.24-8.913v8.913H18.773z"/>
	</g>
	<g>
		<rect x="5.461" y="24.815" class="st1" width="28.763" height="10.108"/>
	</g>
	<g>
		<path class="st2" d="M15.021,28.7h0.942v0.561c0.122-0.192,0.288-0.348,0.496-0.468c0.209-0.12,0.44-0.18,0.694-0.18
			c0.444,0,0.82,0.174,1.13,0.522c0.309,0.348,0.464,0.832,0.464,1.453c0,0.638-0.156,1.133-0.467,1.487
			c-0.312,0.354-0.689,0.53-1.133,0.53c-0.211,0-0.402-0.042-0.574-0.126c-0.171-0.084-0.352-0.228-0.542-0.432v1.924h-1.01V28.7z
			 M16.021,30.545c0,0.429,0.085,0.746,0.256,0.951c0.17,0.205,0.378,0.308,0.622,0.308c0.235,0,0.43-0.094,0.586-0.283
			c0.156-0.188,0.234-0.497,0.234-0.926c0-0.4-0.08-0.698-0.241-0.892c-0.161-0.194-0.36-0.291-0.597-0.291
			c-0.247,0-0.452,0.095-0.615,0.286C16.103,29.889,16.021,30.171,16.021,30.545z"/>
		<path class="st2" d="M19.55,28.182v-0.935h1.01v0.935H19.55z M19.55,32.52V28.7h1.01v3.82H19.55z"/>
		<path class="st2" d="M21.111,32.52l1.377-1.967l-1.32-1.852h1.234l0.676,1.05l0.712-1.05h1.187l-1.295,1.809l1.414,2.011h-1.241
			l-0.777-1.183l-0.784,1.183H21.111z"/>
	</g>
</g>
</svg>
