<?xml version="1.0" encoding="utf-8"?>
<!-- Generator: Adobe Illustrator 22.0.1, SVG Export Plug-In . SVG Version: 6.00 Build 0)  -->
<svg version="1.1" id="Слой_1" xmlns="http://www.w3.org/2000/svg" xmlns:xlink="http://www.w3.org/1999/xlink" x="0px" y="0px"
	 viewBox="0 0 39.69 39.69" style="enable-background:new 0 0 39.69 39.69;" xml:space="preserve">
<style type="text/css">
	.st0{fill:#4C5567;}
	.st1{fill-rule:evenodd;clip-rule:evenodd;fill:#4C5567;}
	.st2{fill:#FFFFFF;}
</style>
<g>
	<g>
		<path class="st0" d="M38.185,39.685H1.5c-0.675,0-1.224-0.549-1.224-1.224V1.224C0.276,0.549,0.825,0,1.5,0h36.684
			c0.675,0,1.224,0.549,1.224,1.224v37.237C39.409,39.136,38.86,39.685,38.185,39.685z M2.117,37.844h35.45V1.841H2.117V37.844z"/>
	</g>
	<g>
		<path class="st0" d="M3.602,6.868h2.286v6.132c0,0.973,0.028,1.604,0.085,1.892c0.098,0.463,0.331,0.835,0.699,1.116
			c0.368,0.281,0.871,0.421,1.51,0.421c0.649,0,1.138-0.133,1.467-0.398c0.33-0.265,0.528-0.591,0.595-0.977
			c0.067-0.386,0.1-1.027,0.1-1.923V6.868h2.286v5.947c0,1.359-0.062,2.32-0.185,2.881c-0.123,0.562-0.352,1.035-0.684,1.421
			c-0.332,0.386-0.776,0.694-1.332,0.923c-0.556,0.229-1.282,0.344-2.178,0.344c-1.081,0-1.901-0.125-2.46-0.375
			s-1-0.574-1.325-0.973c-0.325-0.399-0.538-0.817-0.641-1.255c-0.149-0.649-0.224-1.607-0.224-2.873V6.868z"/>
		<path class="st0" d="M15.048,18.191V6.868h2.286v4.457h4.48V6.868h2.286v11.323h-2.286V13.24h-4.48v4.951H15.048z"/>
		<path class="st0" d="M26.456,6.868h4.179c0.942,0,1.66,0.072,2.155,0.216c0.664,0.196,1.233,0.543,1.707,1.043
			c0.474,0.5,0.834,1.111,1.081,1.835c0.247,0.724,0.371,1.616,0.371,2.676c0,0.932-0.116,1.735-0.347,2.41
			c-0.284,0.824-0.688,1.49-1.213,2c-0.396,0.386-0.932,0.687-1.606,0.904c-0.505,0.16-1.179,0.239-2.024,0.239h-4.302V6.868z
			 M28.743,8.784v7.5h1.707c0.638,0,1.099-0.036,1.382-0.108c0.371-0.093,0.678-0.25,0.923-0.471
			c0.244-0.222,0.444-0.586,0.599-1.093c0.154-0.507,0.231-1.199,0.231-2.074s-0.077-1.547-0.231-2.016
			c-0.155-0.469-0.371-0.834-0.649-1.097s-0.63-0.44-1.058-0.533c-0.319-0.072-0.945-0.108-1.877-0.108H28.743z"/>
	</g>
	<g>
		<rect x="5.513" y="24.815" class="st1" width="28.763" height="10.108"/>
	</g>
	<g>
		<path class="st2" d="M13.436,31.581v0.939H9.893c0.038-0.355,0.153-0.691,0.345-1.009c0.191-0.318,0.57-0.739,1.136-1.264
			c0.456-0.424,0.735-0.712,0.838-0.863c0.139-0.209,0.209-0.415,0.209-0.618c0-0.225-0.061-0.399-0.182-0.52
			c-0.121-0.121-0.288-0.182-0.501-0.182c-0.211,0-0.379,0.064-0.504,0.191c-0.125,0.127-0.196,0.338-0.216,0.633l-1.007-0.101
			c0.06-0.556,0.248-0.955,0.565-1.198c0.316-0.242,0.712-0.364,1.187-0.364c0.52,0,0.929,0.141,1.226,0.421
			c0.297,0.281,0.446,0.63,0.446,1.047c0,0.237-0.043,0.463-0.128,0.678c-0.085,0.215-0.22,0.44-0.405,0.675
			c-0.122,0.156-0.343,0.38-0.662,0.672c-0.319,0.292-0.521,0.487-0.606,0.583c-0.085,0.096-0.154,0.19-0.207,0.281H13.436z"/>
		<path class="st2" d="M16.705,32.52h-1.011v-3.809c-0.369,0.345-0.804,0.601-1.306,0.766V28.56c0.264-0.086,0.55-0.25,0.86-0.491
			c0.309-0.241,0.522-0.522,0.637-0.844h0.82V32.52z"/>
		<path class="st2" d="M21.64,28.538l-0.978,0.108c-0.024-0.202-0.087-0.35-0.187-0.446c-0.101-0.096-0.231-0.144-0.392-0.144
			c-0.213,0-0.394,0.096-0.541,0.288c-0.148,0.192-0.241,0.591-0.279,1.198c0.252-0.297,0.565-0.446,0.939-0.446
			c0.422,0,0.784,0.161,1.084,0.482c0.301,0.321,0.451,0.736,0.451,1.245c0,0.54-0.158,0.972-0.474,1.299
			c-0.317,0.326-0.723,0.489-1.219,0.489c-0.532,0-0.97-0.207-1.313-0.62c-0.343-0.414-0.515-1.092-0.515-2.034
			c0-0.966,0.179-1.663,0.536-2.09c0.357-0.427,0.821-0.64,1.392-0.64c0.4,0,0.732,0.112,0.995,0.337
			C21.401,27.786,21.568,28.111,21.64,28.538z M19.349,30.743c0,0.329,0.075,0.582,0.227,0.761c0.151,0.179,0.324,0.268,0.518,0.268
			c0.187,0,0.343-0.073,0.467-0.219c0.125-0.146,0.187-0.386,0.187-0.719c0-0.343-0.067-0.594-0.201-0.753
			c-0.135-0.16-0.302-0.239-0.504-0.239c-0.194,0-0.359,0.076-0.493,0.229C19.416,30.221,19.349,30.446,19.349,30.743z"/>
		<path class="st2" d="M24.021,27.225c0.511,0,0.91,0.183,1.198,0.547c0.343,0.432,0.515,1.147,0.515,2.147
			c0,0.998-0.173,1.714-0.518,2.151c-0.285,0.36-0.684,0.54-1.194,0.54c-0.513,0-0.927-0.197-1.241-0.592
			c-0.314-0.394-0.471-1.097-0.471-2.109c0-0.993,0.173-1.707,0.518-2.144C23.112,27.405,23.51,27.225,24.021,27.225z
			 M24.021,28.063c-0.122,0-0.231,0.039-0.327,0.117c-0.096,0.078-0.17,0.218-0.223,0.419c-0.069,0.262-0.104,0.702-0.104,1.32
			c0,0.619,0.031,1.044,0.094,1.275c0.062,0.232,0.141,0.386,0.236,0.462c0.095,0.077,0.203,0.115,0.325,0.115
			c0.122,0,0.231-0.039,0.327-0.117c0.096-0.078,0.17-0.217,0.223-0.419c0.069-0.259,0.104-0.698,0.104-1.316
			c0-0.618-0.031-1.043-0.094-1.275c-0.062-0.231-0.141-0.386-0.236-0.464C24.252,28.103,24.144,28.063,24.021,28.063z"/>
	</g>
	<g>
		<path class="st2" d="M26.596,28.7h0.942v0.561c0.122-0.192,0.288-0.348,0.496-0.468c0.209-0.12,0.44-0.18,0.694-0.18
			c0.444,0,0.82,0.174,1.13,0.522c0.309,0.348,0.464,0.832,0.464,1.453c0,0.638-0.156,1.133-0.467,1.487
			c-0.312,0.354-0.689,0.53-1.133,0.53c-0.211,0-0.402-0.042-0.574-0.126c-0.171-0.084-0.352-0.228-0.542-0.432v1.924h-1.01V28.7z
			 M27.596,30.545c0,0.429,0.085,0.746,0.256,0.951c0.17,0.205,0.378,0.308,0.622,0.308c0.235,0,0.43-0.094,0.586-0.283
			c0.156-0.188,0.234-0.497,0.234-0.926c0-0.4-0.08-0.698-0.241-0.892c-0.161-0.194-0.36-0.291-0.597-0.291
			c-0.247,0-0.452,0.095-0.615,0.286C27.678,29.889,27.596,30.171,27.596,30.545z"/>
	</g>
</g>
</svg>
