<?xml version="1.0" encoding="utf-8"?>
<!-- Generator: Adobe Illustrator 22.0.1, SVG Export Plug-In . SVG Version: 6.00 Build 0)  -->
<svg version="1.1" id="Слой_1" xmlns="http://www.w3.org/2000/svg" xmlns:xlink="http://www.w3.org/1999/xlink" x="0px" y="0px"
	 viewBox="0 0 39.69 39.69" style="enable-background:new 0 0 39.69 39.69;" xml:space="preserve">
<style type="text/css">
	.st0{fill:#4C5567;}
	.st1{fill-rule:evenodd;clip-rule:evenodd;fill:#4C5567;}
	.st2{fill:#FFFFFF;}
</style>
<g>
	<g>
		<path class="st0" d="M38.185,39.685H1.5c-0.675,0-1.224-0.549-1.224-1.224V1.224C0.276,0.549,0.825,0,1.5,0h36.684
			c0.675,0,1.224,0.549,1.224,1.224v37.237C39.409,39.136,38.86,39.685,38.185,39.685z M2.117,37.844h35.45V1.841H2.117V37.844z"/>
	</g>
	<g>
		<g>
			<path class="st0" d="M5.486,18.191V6.868h7.762v1.915H7.772v2.68h4.727v1.915H7.772v4.812H5.486z"/>
		</g>
		<g>
			<path class="st0" d="M15.141,18.191V6.868h2.286v4.456h4.48V6.868h2.286v11.323h-2.286V13.24h-4.48v4.951H15.141z"/>
		</g>
		<g>
			<path class="st0" d="M26.548,6.868h4.179c0.942,0,1.661,0.072,2.155,0.217c0.665,0.195,1.233,0.543,1.707,1.042
				c0.473,0.5,0.834,1.111,1.081,1.834c0.247,0.724,0.37,1.616,0.37,2.676c0,0.932-0.116,1.735-0.348,2.41
				c-0.283,0.825-0.687,1.491-1.213,2.001c-0.397,0.386-0.932,0.687-1.606,0.904c-0.504,0.16-1.179,0.239-2.024,0.239h-4.302V6.868z
				 M28.835,8.783v7.5h1.707c0.638,0,1.099-0.036,1.383-0.109c0.371-0.093,0.678-0.249,0.923-0.471
				c0.245-0.221,0.444-0.585,0.598-1.093c0.155-0.507,0.232-1.199,0.232-2.074c0-0.876-0.077-1.548-0.232-2.016
				c-0.154-0.468-0.37-0.834-0.649-1.097c-0.278-0.263-0.631-0.44-1.058-0.533c-0.319-0.072-0.945-0.108-1.877-0.108H28.835z"/>
		</g>
	</g>
	<g>
		<rect x="5.98" y="24.814" class="st1" width="28.763" height="10.108"/>
	</g>
	<g>
		<path class="st2" d="M13.075,32.52h-1.011v-3.809c-0.369,0.345-0.804,0.601-1.306,0.766V28.56c0.264-0.086,0.55-0.25,0.86-0.491
			c0.309-0.241,0.522-0.522,0.637-0.844h0.82V32.52z"/>
		<path class="st2" d="M16.294,27.225c0.511,0,0.91,0.183,1.198,0.547c0.343,0.432,0.515,1.147,0.515,2.147
			c0,0.998-0.173,1.714-0.518,2.151c-0.285,0.36-0.684,0.54-1.194,0.54c-0.513,0-0.927-0.197-1.241-0.592
			c-0.314-0.394-0.471-1.097-0.471-2.109c0-0.993,0.173-1.707,0.518-2.144C15.385,27.405,15.783,27.225,16.294,27.225z
			 M16.294,28.063c-0.122,0-0.231,0.039-0.327,0.117c-0.096,0.078-0.17,0.218-0.223,0.419c-0.069,0.262-0.104,0.702-0.104,1.32
			c0,0.619,0.031,1.044,0.094,1.275c0.062,0.232,0.141,0.386,0.236,0.462c0.095,0.077,0.203,0.115,0.325,0.115
			c0.122,0,0.231-0.039,0.327-0.117c0.096-0.078,0.17-0.217,0.223-0.419c0.069-0.259,0.104-0.698,0.104-1.316
			c0-0.618-0.031-1.043-0.094-1.275c-0.062-0.231-0.141-0.386-0.236-0.464C16.524,28.103,16.416,28.063,16.294,28.063z"/>
		<path class="st2" d="M19.549,29.675c-0.262-0.11-0.452-0.262-0.57-0.455c-0.119-0.193-0.178-0.405-0.178-0.635
			c0-0.393,0.137-0.718,0.412-0.975c0.275-0.257,0.665-0.385,1.171-0.385c0.501,0,0.89,0.129,1.167,0.385
			c0.277,0.257,0.416,0.582,0.416,0.975c0,0.245-0.064,0.462-0.191,0.653c-0.127,0.191-0.305,0.337-0.536,0.437
			c0.292,0.117,0.515,0.289,0.667,0.514c0.152,0.226,0.229,0.486,0.229,0.781c0,0.487-0.156,0.882-0.466,1.187
			c-0.311,0.305-0.724,0.457-1.239,0.457c-0.48,0-0.879-0.126-1.198-0.378c-0.377-0.298-0.565-0.705-0.565-1.223
			c0-0.285,0.071-0.547,0.212-0.786C19.021,29.988,19.244,29.804,19.549,29.675z M19.664,30.916c0,0.278,0.071,0.495,0.214,0.651
			c0.143,0.156,0.321,0.234,0.535,0.234c0.209,0,0.381-0.075,0.518-0.225c0.136-0.149,0.205-0.366,0.205-0.649
			c0-0.247-0.069-0.445-0.209-0.595s-0.315-0.225-0.528-0.225c-0.247,0-0.431,0.085-0.552,0.255
			C19.724,30.532,19.664,30.717,19.664,30.916z M19.757,28.657c0,0.201,0.057,0.359,0.171,0.471
			c0.114,0.113,0.265,0.169,0.455,0.169c0.192,0,0.345-0.057,0.46-0.171c0.115-0.114,0.173-0.271,0.173-0.473
			c0-0.19-0.057-0.341-0.171-0.455c-0.114-0.114-0.264-0.171-0.451-0.171c-0.194,0-0.349,0.058-0.464,0.173
			C19.815,28.315,19.757,28.468,19.757,28.657z"/>
		<path class="st2" d="M24.487,27.225c0.511,0,0.91,0.183,1.198,0.547c0.343,0.432,0.515,1.147,0.515,2.147
			c0,0.998-0.173,1.714-0.518,2.151c-0.285,0.36-0.684,0.54-1.194,0.54c-0.513,0-0.927-0.197-1.241-0.592
			c-0.314-0.394-0.471-1.097-0.471-2.109c0-0.993,0.173-1.707,0.518-2.144C23.578,27.405,23.976,27.225,24.487,27.225z
			 M24.487,28.063c-0.122,0-0.231,0.039-0.327,0.117c-0.096,0.078-0.17,0.218-0.223,0.419c-0.069,0.262-0.104,0.702-0.104,1.32
			c0,0.619,0.031,1.044,0.094,1.275c0.062,0.232,0.141,0.386,0.236,0.462c0.095,0.077,0.203,0.115,0.325,0.115
			c0.122,0,0.231-0.039,0.327-0.117c0.096-0.078,0.17-0.217,0.223-0.419c0.069-0.259,0.104-0.698,0.104-1.316
			c0-0.618-0.031-1.043-0.094-1.275c-0.062-0.231-0.141-0.386-0.236-0.464C24.718,28.103,24.61,28.063,24.487,28.063z"/>
	</g>
	<g>
		<path class="st2" d="M27.063,28.7h0.942v0.561c0.122-0.192,0.288-0.348,0.496-0.468c0.209-0.12,0.44-0.18,0.694-0.18
			c0.444,0,0.82,0.174,1.13,0.522c0.309,0.348,0.464,0.832,0.464,1.453c0,0.638-0.156,1.133-0.467,1.487
			c-0.312,0.354-0.689,0.53-1.133,0.53c-0.211,0-0.402-0.042-0.574-0.126c-0.171-0.084-0.352-0.228-0.542-0.432v1.924h-1.01V28.7z
			 M28.062,30.545c0,0.429,0.085,0.746,0.256,0.951c0.17,0.205,0.378,0.308,0.622,0.308c0.235,0,0.43-0.094,0.586-0.283
			c0.156-0.188,0.234-0.497,0.234-0.926c0-0.4-0.08-0.698-0.241-0.892c-0.161-0.194-0.36-0.291-0.597-0.291
			c-0.247,0-0.452,0.095-0.615,0.286C28.144,29.889,28.062,30.171,28.062,30.545z"/>
	</g>
</g>
</svg>
