<?xml version="1.0" encoding="utf-8"?>
<!-- Generator: Adobe Illustrator 22.0.1, SVG Export Plug-In . SVG Version: 6.00 Build 0)  -->
<svg version="1.1" id="Слой_1" xmlns="http://www.w3.org/2000/svg" xmlns:xlink="http://www.w3.org/1999/xlink" x="0px" y="0px"
	 viewBox="0 0 39.69 39.69" style="enable-background:new 0 0 39.69 39.69;" xml:space="preserve">
<style type="text/css">
	.st0{fill:#4C5567;}
	.st1{fill-rule:evenodd;clip-rule:evenodd;fill:#4C5567;}
	.st2{fill:#FFFFFF;}
</style>
<g>
	<g>
		<path class="st0" d="M38.185,39.685H1.5c-0.675,0-1.224-0.549-1.224-1.224V1.224C0.276,0.549,0.825,0,1.5,0h36.684
			c0.675,0,1.224,0.549,1.224,1.224v37.237C39.409,39.136,38.86,39.685,38.185,39.685z M2.117,37.844h35.45V1.841H2.117V37.844z"/>
	</g>
	<g>
		<path class="st0" d="M16.881,9.641l-2.1,0.231c-0.052-0.433-0.185-0.752-0.402-0.958c-0.216-0.206-0.497-0.309-0.842-0.309
			c-0.458,0-0.846,0.206-1.162,0.618c-0.317,0.412-0.516,1.269-0.599,2.572c0.541-0.639,1.212-0.958,2.016-0.958
			c0.907,0,1.683,0.345,2.329,1.035c0.646,0.69,0.969,1.581,0.969,2.673c0,1.158-0.34,2.088-1.019,2.788
			c-0.68,0.7-1.552,1.05-2.618,1.05c-1.143,0-2.083-0.444-2.819-1.333c-0.736-0.888-1.104-2.344-1.104-4.368
			c0-2.075,0.384-3.571,1.151-4.487c0.767-0.916,1.763-1.375,2.989-1.375c0.86,0,1.572,0.241,2.135,0.722
			C16.367,8.026,16.727,8.724,16.881,9.641z M11.961,14.376c0,0.705,0.163,1.25,0.487,1.633c0.325,0.384,0.695,0.576,1.112,0.576
			c0.401,0,0.736-0.157,1.004-0.471c0.268-0.314,0.402-0.829,0.402-1.545c0-0.736-0.144-1.275-0.433-1.618
			c-0.289-0.342-0.649-0.514-1.081-0.514c-0.417,0-0.77,0.163-1.058,0.491C12.105,13.255,11.961,13.737,11.961,14.376z"/>
		<path class="st0" d="M18.773,18.191V6.868h3.421l2.055,7.723l2.031-7.723h3.429v11.323h-2.124V9.278l-2.248,8.913h-2.201
			l-2.24-8.913v8.913H18.773z"/>
	</g>
	<g>
		<rect x="5.461" y="24.814" class="st1" width="28.763" height="10.108"/>
	</g>
	<g>
		<path class="st2" d="M15.021,28.7h0.942v0.561c0.122-0.192,0.288-0.348,0.496-0.468c0.209-0.12,0.44-0.18,0.694-0.18
			c0.444,0,0.82,0.174,1.13,0.522c0.309,0.348,0.464,0.832,0.464,1.453c0,0.638-0.156,1.133-0.467,1.487
			c-0.312,0.354-0.689,0.53-1.133,0.53c-0.211,0-0.402-0.042-0.574-0.126c-0.171-0.084-0.352-0.228-0.542-0.432v1.924h-1.01V28.7z
			 M16.021,30.545c0,0.429,0.085,0.746,0.256,0.951c0.17,0.205,0.378,0.308,0.622,0.308c0.235,0,0.43-0.094,0.586-0.283
			c0.156-0.188,0.234-0.497,0.234-0.926c0-0.4-0.08-0.698-0.241-0.892c-0.161-0.194-0.36-0.291-0.597-0.291
			c-0.247,0-0.452,0.095-0.615,0.286C16.103,29.889,16.021,30.171,16.021,30.545z"/>
		<path class="st2" d="M19.55,28.182v-0.935h1.01v0.935H19.55z M19.55,32.52V28.7h1.01v3.82H19.55z"/>
		<path class="st2" d="M21.111,32.52l1.377-1.967l-1.32-1.852h1.234l0.676,1.05l0.712-1.05h1.187l-1.295,1.809l1.414,2.011h-1.241
			l-0.777-1.183l-0.784,1.183H21.111z"/>
	</g>
</g>
</svg>
