<?xml version="1.0" encoding="utf-8"?>
<!-- Generator: Adobe Illustrator 22.0.1, SVG Export Plug-In . SVG Version: 6.00 Build 0)  -->
<svg version="1.1" id="Слой_1" xmlns="http://www.w3.org/2000/svg" xmlns:xlink="http://www.w3.org/1999/xlink" x="0px" y="0px"
	 viewBox="0 0 39.69 39.69" style="enable-background:new 0 0 39.69 39.69;" xml:space="preserve">
<style type="text/css">
	.st0{fill-rule:evenodd;clip-rule:evenodd;fill:#1D70B8;}
</style>
<g>
	<path class="st0" d="M18.373,14.565c-0.136,0.694,0.445,1.23,0.995,1.335l-0.001,0.277l-1.546,0.002v0.642l1.598,0.004
		c0.029,0.435,0.005,0.965,0.005,1.411l0.007,2.829c0.001,0.122,0.005,0.248,0.002,0.368c-0.002,0.133-0.054,0.159-0.126,0.232
		c-0.11,0.115-0.233,0.219-0.408,0.292c-0.372,0.155-0.855,0.024-1.096-0.179l-0.776-0.639c-0.524-0.374-1.36-0.601-2.139-0.68
		c0.041,0.055,0.083,0.092,0.136,0.15l0.138,0.159c0.09,0.106,0.17,0.207,0.258,0.319c0.333,0.428,0.648,0.905,0.928,1.378
		c0.119,0.2,0.326,0.542,0.403,0.751c0.037-0.074,0.141-1.198,0.173-1.4c0.299,0.128,1.905,1.855,2.849,1.862
		c0.59,0.005,1.286-0.471,1.62-0.73c0.227-0.177,0.438-0.35,0.638-0.533c0.119-0.107,0.524-0.472,0.641-0.536
		c0.044,0.054,0.077,0.248,0.094,0.335c0.069,0.334,0.168,0.699,0.229,1.028c0.083-0.318,0.125-0.554,0.234-0.849
		c0.098-0.265,0.215-0.507,0.349-0.735c0.196-0.332,0.712-0.982,1.041-1.127c-0.238-0.005-0.977,0.155-1.197,0.221
		c-0.334,0.099-0.698,0.308-0.917,0.495c-0.384,0.327-0.257,0.319-0.799,0.635c-0.342,0.198-0.702,0.287-1.095,0.075
		c-0.159-0.086-0.298-0.206-0.403-0.314c-0.084-0.086-0.119-0.087-0.118-0.245c0.001-1.044-0.029-2.118-0.035-3.162
		c-0.002-0.452-0.031-0.964-0.008-1.408c0.242-0.049,1.185,0.025,1.517-0.014l-0.005-0.646l-1.496-0.001
		c-0.001-0.084-0.009-0.188,0.013-0.249c0.277-0.11,0.503-0.133,0.763-0.423c0.176-0.195,0.346-0.499,0.287-0.889
		c-0.086-0.575-0.68-1.009-1.353-1.017C19.083,13.581,18.486,13.987,18.373,14.565 M18.964,14.265
		c0.162-0.159,0.326-0.228,0.601-0.28c0.823-0.154,1.551,0.645,0.986,1.256c-0.311,0.336-0.606,0.267-1.059,0.269
		c-0.304,0.002-0.654-0.272-0.736-0.593C18.684,14.631,18.823,14.404,18.964,14.265z"/>
	<path class="st0" d="M15.737,19.364c0.094,0.01,0.25,0.08,0.357,0.101c0.772,0.155,1.989-0.165,1.971-1.177
		c-0.018-0.997-1.257-1.264-2.031-1.08c-0.12,0.028-0.258,0.106-0.348,0.12l-0.004-0.13l-0.772,0.001l-0.006,3.019l0.827,0.001
		L15.737,19.364z M16.325,17.7c0.426-0.073,0.828,0.123,0.89,0.49c0.16,0.954-1.416,1.009-1.524,0.266
		C15.62,17.971,15.923,17.769,16.325,17.7z"/>
	<path class="st0" d="M24.337,19.935c0.36-0.248,0.423-0.509,0.548-0.858c-0.077-0.026-0.609-0.142-0.688-0.14
		c-0.075,0.468-0.377,0.741-0.931,0.684c-0.485-0.05-0.729-0.354-0.753-0.861c-0.024-0.533,0.185-0.893,0.629-0.982l0.387-0.023
		c0.52,0.038,0.55,0.417,0.645,0.564l0.657-0.129c-0.019-0.264-0.298-0.643-0.575-0.804c-0.81-0.475-2.507-0.177-2.437,1.374
		C21.889,20.312,23.602,20.441,24.337,19.935"/>
	<path class="st0" d="M33.748,24.759c-0.045,0.135-0.07,0.229-0.074,0.285c-0.005,0.055,0.005,0.1,0.028,0.133
		c0.023,0.034,0.062,0.061,0.117,0.079c0.076,0.026,0.138,0.018,0.187-0.022c0.048-0.041,0.096-0.132,0.144-0.273l0.079-0.234
		l-0.421-0.143L33.748,24.759z"/>
	<path class="st0" d="M16.165,5.668c0.081,0.081,0.19,0.105,0.327,0.073c0.138-0.031,0.226-0.101,0.262-0.209
		c0.037-0.107,0.032-0.264-0.016-0.47c-0.048-0.206-0.111-0.349-0.191-0.429c-0.08-0.081-0.189-0.106-0.328-0.073
		c-0.139,0.032-0.226,0.102-0.263,0.209c-0.037,0.107-0.031,0.264,0.017,0.47C16.02,5.444,16.084,5.588,16.165,5.668"/>
	<polygon class="st0" points="33.236,26.821 33.998,26.943 33.454,26.396 	"/>
	<path class="st0" d="M34.705,25.379c0.041-0.039,0.078-0.108,0.111-0.208l0.075-0.22l-0.362-0.123l-0.071,0.211
		c-0.035,0.102-0.046,0.182-0.034,0.242c0.011,0.059,0.052,0.1,0.123,0.124C34.611,25.427,34.664,25.418,34.705,25.379"/>
	<path class="st0" d="M9.706,7.921C9.599,8.014,9.554,8.117,9.572,8.229c0.017,0.112,0.095,0.248,0.234,0.408
		c0.138,0.159,0.262,0.256,0.371,0.289C10.286,8.96,10.393,8.93,10.5,8.838c0.107-0.093,0.152-0.196,0.134-0.309
		c-0.018-0.111-0.096-0.247-0.234-0.407c-0.138-0.159-0.262-0.256-0.37-0.29S9.813,7.828,9.706,7.921"/>
	<path class="st0" d="M30.041,8.516c0.051,0.02,0.099,0.02,0.144,0.001c0.044-0.019,0.094-0.061,0.15-0.125
		c0.065-0.076,0.092-0.149,0.079-0.219C30.401,8.102,30.34,8.02,30.23,7.925l-0.137-0.119l-0.392,0.452l0.112,0.098
		C29.915,8.443,29.99,8.497,30.041,8.516"/>
	<path class="st0" d="M11.462,6.727c-0.071-0.007-0.167,0.028-0.29,0.106l-0.153,0.099l0.323,0.503l0.125-0.08
		c0.113-0.072,0.186-0.13,0.219-0.173c0.033-0.043,0.047-0.089,0.042-0.137c-0.007-0.048-0.032-0.108-0.079-0.18
		C11.596,6.781,11.533,6.735,11.462,6.727"/>
	<path class="st0" d="M6.426,26.685c0.192-0.087,0.32-0.178,0.383-0.273c0.063-0.095,0.065-0.207,0.008-0.335
		c-0.059-0.13-0.145-0.202-0.258-0.216c-0.112-0.015-0.265,0.021-0.457,0.108c-0.193,0.087-0.32,0.177-0.384,0.272
		c-0.063,0.094-0.065,0.206-0.006,0.336c0.058,0.129,0.144,0.202,0.256,0.216C6.081,26.808,6.233,26.772,6.426,26.685"/>
	<path class="st0" d="M20.614,4.149l-0.182-0.005l-0.015,0.599l0.149,0.003c0.133,0.004,0.226-0.003,0.277-0.02
		c0.052-0.017,0.09-0.048,0.112-0.091c0.022-0.043,0.034-0.107,0.036-0.192c0.003-0.1-0.023-0.173-0.078-0.22
		C20.86,4.178,20.76,4.152,20.614,4.149"/>
	<path class="st0" d="M32.788,12.894l0.268,0.523l1.056-0.541l-0.164-0.319c-0.252,0.115-0.477,0.197-0.676,0.245
		C33.074,12.85,32.912,12.88,32.788,12.894"/>
	<path class="st0" d="M34.526,14.137c-0.111-0.021-0.265,0.008-0.462,0.085c-0.196,0.078-0.329,0.163-0.396,0.254
		c-0.068,0.092-0.076,0.203-0.024,0.334c0.052,0.133,0.134,0.209,0.246,0.229c0.112,0.02,0.266-0.008,0.462-0.086
		c0.197-0.077,0.329-0.161,0.397-0.252c0.068-0.091,0.075-0.203,0.023-0.335C34.72,14.233,34.638,14.157,34.526,14.137"/>
	<path class="st0" d="M7.027,27.758c-0.043-0.033-0.089-0.047-0.137-0.042c-0.049,0.007-0.108,0.032-0.18,0.079
		c-0.084,0.053-0.13,0.116-0.138,0.187c-0.007,0.071,0.028,0.168,0.106,0.29l0.099,0.153l0.503-0.323l-0.08-0.125
		C7.127,27.864,7.07,27.791,7.027,27.758"/>
	<path class="st0" d="M39.676,20.363c-0.106-0.165-0.118-0.284-0.482-0.373c0.03-0.084,0.082-0.146,0.128-0.23
		c0.041-0.075,0.071-0.136,0.107-0.223c0.548-1.326-0.249-1.372-0.259-1.399c-0.003-0.006-0.009-0.004-0.014-0.007
		c0.029-0.075,0.088-0.16,0.13-0.241c0.267-0.513,0.549-1.587-0.315-1.647l0.206-0.522c0.056-0.162,0.123-0.418,0.132-0.594
		c0.026-0.52-0.16-0.765-0.674-0.763c0.016-0.078,0.066-0.209,0.093-0.28c0.003-0.009,0.011-0.028,0.014-0.037l0.008-0.026
		c0.183-0.645,0.299-1.521-0.746-1.297c0.004-0.532-0.069-1.355-0.789-1.241c0.018-0.448,0.058-0.743-0.106-1.134
		c-0.131-0.313-0.365-0.527-0.799-0.409c-0.018-0.438-0.023-1.292-0.498-1.506c-0.234-0.105-0.345-0.003-0.534,0.047
		c-0.019-0.412-0.124-1.194-0.561-1.328c-0.194-0.06-0.345,0.028-0.487,0.081C34.174,7.05,34.155,6.9,34.08,6.721
		c-0.065-0.155-0.141-0.305-0.231-0.432c-0.391-0.555-0.651-0.337-0.856-0.278c-0.06-0.43-0.379-1.141-0.826-1.286
		c-0.26-0.084-0.382,0.041-0.538,0.114c-0.166-0.428-0.428-1.165-0.933-1.261c-0.27-0.052-0.42,0.151-0.513,0.202
		c-0.092-0.086-0.477-1.251-1.111-1.047c-0.249,0.079-0.295,0.277-0.418,0.332c-0.11-0.276-0.472-0.643-0.724-0.83
		c-0.28-0.208-0.816-0.43-1.023-0.01c-0.105-0.055-0.286-0.425-0.77-0.695c-0.25-0.139-0.562-0.231-0.822-0.023
		C25.226,1.58,25.22,1.633,25.152,1.7c-0.083-0.046-0.391-0.438-0.818-0.654c-0.155-0.079-0.39-0.17-0.596-0.1
		c-0.237,0.08-0.272,0.259-0.35,0.384c-0.044-0.017-0.004,0.006-0.056-0.034l-0.141-0.121c-0.063-0.052-0.118-0.094-0.186-0.146
		c-0.123-0.091-0.26-0.181-0.415-0.248c-0.168-0.072-0.374-0.118-0.549-0.033c-0.131,0.065-0.25,0.214-0.285,0.379
		c-0.087-0.028-0.145-0.085-0.22-0.13c-0.419-0.257-1.39-0.614-1.534,0.071c-0.083-0.03-0.147-0.086-0.223-0.131
		c-0.173-0.104-0.412-0.212-0.611-0.261l-0.111-0.033c-0.004-0.001-0.012-0.001-0.014-0.007c-0.003-0.007-0.01-0.005-0.015-0.008
		h-0.372c-0.125,0.076-0.349,0.058-0.452,0.402l-0.031,0.081c-0.001,0.003-0.004,0.009-0.007,0.013
		c-0.299-0.11-1.107-0.599-1.573-0.269c-0.182,0.13-0.176,0.273-0.202,0.407l-0.025,0.073c-0.3-0.085-1.618-0.741-1.599,0.351
		c-0.098-0.017-0.193-0.063-0.29-0.091c-1.322-0.377-1.841,0.485-1.936,0.524c-0.066,0.027-1.035-0.138-1.58,0.753
		c-0.031,0.05-0.027,0.063-0.08,0.084c-0.044,0.019-0.193,0.04-0.256,0.056c-0.232,0.058-0.454,0.167-0.631,0.309
		c-0.235,0.19-0.38,0.398-0.528,0.729c-0.367,0.037-0.73,0.15-0.994,0.3c-0.13,0.074-0.264,0.184-0.334,0.311
		c-0.15,0.27,0.005,0.345-0.001,0.504C7.73,5.186,7.301,5.303,7.015,5.478C6.358,5.881,6.666,6.285,6.698,6.431
		C6.275,6.472,5.371,6.758,5.213,7.236C5.13,7.486,5.296,7.655,5.377,7.789C5.278,7.863,4.78,7.937,4.392,8.217
		C4.058,8.458,3.952,8.79,4.279,9.132C4.242,9.174,4.221,9.176,4.167,9.199c-0.374,0.156-0.933,0.541-1.065,0.924
		c-0.052,0.15-0.038,0.302,0.052,0.435l0.062,0.132c-0.035,0.023-0.001,0.003-0.035,0.022l-0.188,0.09
		c-0.36,0.188-0.882,0.569-0.931,0.991c-0.039,0.34,0.174,0.447,0.23,0.539l-0.475,0.315c-0.149,0.11-0.294,0.229-0.413,0.373
		c-0.321,0.387-0.362,0.75,0.096,1.024l-0.43,0.337c-0.131,0.11-0.28,0.257-0.38,0.405c-0.109,0.159-0.2,0.373-0.099,0.588
		c0.114,0.242,0.353,0.292,0.428,0.364c-0.08,0.126-0.416,0.336-0.662,0.899c-0.194,0.444-0.2,0.875,0.291,1.002
		c-0.021,0.052-0.886,0.951-0.543,1.558c0.14,0.247,0.346,0.231,0.454,0.297c-0.049,0.114-0.307,0.396-0.463,0.828
		C0.066,20.406,0.035,20.605,0,20.664v0.156c0.054,0.088,0.025,0.215,0.202,0.357c0.116,0.093,0.259,0.13,0.445,0.135
		c-0.007,0.083-0.068,0.148-0.108,0.222c-0.301,0.548-0.625,1.398,0.356,1.448c-0.11,0.372-0.242,0.551-0.215,1.088
		c0.021,0.413,0.23,0.654,0.65,0.643c-0.053,0.283-0.274,0.589-0.191,1.154c0.029,0.198,0.116,0.371,0.228,0.469
		c0.149,0.131,0.299,0.155,0.558,0.143c-0.024,0.235-0.393,1.287,0.162,1.651c0.202,0.134,0.353,0.089,0.595,0.056
		c-0.025,0.367-0.214,1.138,0.211,1.445c0.191,0.138,0.265,0.068,0.492,0.099c0,0.352,0.059,0.649,0.201,0.904
		c0.148,0.267,0.314,0.399,0.713,0.319c0.027,0.467,0.104,1.078,0.551,1.278c0.236,0.105,0.319,0.021,0.512-0.005
		c0.04,0.433,0.213,1.136,0.654,1.268c0.256,0.076,0.343-0.044,0.522-0.087c0.046,0.367,0.271,1.026,0.688,1.111
		c0.231,0.046,0.33-0.07,0.483-0.115c0.085,0.346,0.466,0.915,0.845,1.042c0.244,0.081,0.339-0.02,0.494-0.09
		c0.193,0.427,0.463,0.963,0.95,1.055c0.287,0.054,0.364-0.073,0.517-0.147c0.075,0.088,0.666,1.33,1.34,0.954
		c0.144-0.08,0.121-0.13,0.224-0.162c0.099,0.236,0.679,1.009,1.161,0.83c0.151-0.056,0.304-0.207,0.359-0.34
		c0.125,0.053,0.251,0.348,0.815,0.651c0.224,0.12,0.598,0.271,0.858,0.114c0.038-0.023,0.067-0.046,0.096-0.077l0.09-0.107
		c0.133,0.08,0.351,0.365,0.823,0.542c0.373,0.14,0.685,0.141,0.901-0.191l0.04-0.053L17.63,38.7
		c0.148,0.089,0.289,0.164,0.469,0.229c0.308,0.111,0.69,0.126,0.843-0.213c0.011-0.024,0.017-0.046,0.025-0.062l0.037-0.059
		c0.143,0.059,0.368,0.248,0.731,0.376l0.288,0.086h0.151c0.164-0.103,0.278,0.004,0.429-0.373c0.018-0.044,0.002-0.016,0.026-0.055
		c0.089,0.016,1.214,0.583,1.622,0.111c0.066-0.077,0.055-0.127,0.107-0.214c0.223,0.053,0.499,0.257,0.995,0.28
		c0.301,0.013,0.656-0.06,0.745-0.364l0.041-0.137c0.371,0.116,1.158,0.391,1.545,0.113c0.146-0.105,0.179-0.218,0.183-0.461
		c0.336,0.062,1.077,0.317,1.422,0.005c0.127-0.115,0.14-0.255,0.125-0.473c0.476,0.018,0.818,0.042,1.24-0.103
		c0.374-0.128,0.642-0.304,0.53-0.78c0.539,0,1.325-0.007,1.626-0.484c0.144-0.228,0.072-0.34,0.018-0.56
		c0.497-0.028,1.812-0.144,1.652-0.901c-0.025-0.116-0.092-0.185-0.112-0.266c0.434-0.041,1.276-0.19,1.424-0.636
		c0.087-0.26-0.059-0.379-0.115-0.538c0.433-0.082,1.146-0.412,1.339-0.805c0.138-0.281,0.002-0.373-0.072-0.562
		c0.535-0.125,1.59-0.608,1.354-1.255c-0.04-0.108-0.112-0.157-0.147-0.247c0.4-0.118,1.274-0.56,1.329-1.044
		c0.026-0.231-0.089-0.353-0.216-0.476c-0.049-0.048-0.019,0.001-0.049-0.069c0.321-0.114,0.786-0.436,0.964-0.644
		c0.365-0.426,0.033-0.845-0.302-0.949c-0.004-0.001-0.01-0.003-0.013-0.004c-0.003-0.001-0.009-0.001-0.013-0.004
		c0.22-0.149,0.492-0.483,0.636-0.743c0.193-0.346,0.236-0.776-0.136-0.943c0.028-0.068,0.017-0.039,0.098-0.11
		c0.389-0.34,1.027-1.136,0.569-1.607c-0.068-0.071-0.157-0.098-0.224-0.161c0.162-0.227,0.952-0.95,0.726-1.531
		c-0.037-0.097-0.101-0.167-0.166-0.215c-0.131-0.097-0.208-0.086-0.271-0.14c0.119-0.2,0.311-0.366,0.482-0.731l0.12-0.305v-0.301
		C39.682,20.372,39.678,20.365,39.676,20.363 M39.34,18.636c0.062,0.463-0.255,1.045-0.493,1.363
		c-0.082,0.109-0.191,0.252-0.283,0.329c-0.121,0.102-0.231,0.187-0.343,0.287c-0.117,0.105-0.213,0.19-0.312,0.298
		c-0.071,0.075-0.236,0.285-0.303,0.329c-0.047-0.042-0.068-0.114-0.088-0.178c-0.26-0.824,0.671-1.559,1.214-2.314
		c0.076-0.107,0.146-0.241,0.219-0.338C39.164,18.398,39.312,18.428,39.34,18.636z M39.249,17.24
		c-0.064,0.302-0.246,0.628-0.389,0.85c-0.061,0.093-0.084,0.066-0.134,0.163c-0.043,0.082-0.07,0.123-0.123,0.193
		c-0.16,0.204-0.749,0.897-0.897,0.964c-0.051-0.139-0.101-0.212-0.13-0.394c-0.05-0.32,0.042-0.604,0.181-0.872
		c0.249-0.479,0.577-0.85,0.869-1.298c0.071-0.111,0.135-0.232,0.205-0.336C39.321,16.486,39.338,16.814,39.249,17.24z
		 M39.021,14.83c0.051,0.168,0.011,0.393-0.026,0.545c-0.182,0.76-0.707,1.53-1.213,2.11c-0.055,0.064-0.093,0.128-0.158,0.163
		c-0.237-0.115-0.315-0.519-0.236-0.835c0.069-0.276,0.223-0.563,0.355-0.781c0.285-0.47,0.611-0.915,0.875-1.395
		C38.849,14.62,38.965,14.645,39.021,14.83z M37.835,13.504l0.319-0.502c0.048-0.063,0.108-0.069,0.239-0.048
		c0.615,0.1-0.268,1.994-0.51,2.361c-0.072,0.11-0.143,0.218-0.212,0.328l-0.223,0.339c-0.149-0.288-0.233-0.453-0.215-0.874
		C37.255,14.546,37.555,13.957,37.835,13.504z M37.124,11.954c0.012-0.095,0.002-0.131,0.072-0.174
		c0.537-0.324,0.645,0.91,0.439,1.521c-0.021,0.061-0.34,0.578-0.49,0.978c-0.023,0.063-0.042,0.115-0.063,0.181l-0.07,0.202
		c-0.163-0.091-0.31-0.388-0.321-0.671c-0.011-0.298,0.064-0.605,0.141-0.861C36.943,12.757,37.071,12.342,37.124,11.954z
		 M36.284,10.332c0.012-0.088,0.04-0.147,0.222-0.161c0.278-0.021,0.394,0.3,0.433,0.539c0.036,0.226,0.044,0.711-0.025,0.909
		c-0.072,0.206-0.015,0.112-0.083,0.389c-0.102,0.413-0.244,0.726-0.368,1.1c-0.171-0.06-0.356-0.342-0.417-0.564
		c-0.142-0.51,0.057-1.172,0.157-1.685L36.284,10.332z M21.828,34.977v-0.077l0.296-0.618h-0.643v-0.506h1.417v0.083l-0.411,0.751
		c0.354,0.09,0.456,0.376,0.456,0.663c0.003,0.379-0.268,0.777-0.784,0.777c-0.169,0-0.29-0.035-0.398-0.096
		c-0.21-0.118-0.366-0.344-0.366-0.63h0.5c0.003,0.146,0.099,0.219,0.252,0.219c0.155,0,0.242-0.117,0.245-0.267
		C22.389,34.954,22.07,34.966,21.828,34.977z M19.86,32.665c-2.069-0.003-4.054-0.468-5.814-1.331
		c-0.27-0.132-0.516-0.263-0.765-0.406c-0.146-0.084-0.235-0.138-0.372-0.222c-0.068-0.041-0.117-0.072-0.183-0.114l-0.176-0.13
		c0.038-0.055,0.148-0.12,0.211-0.166c0.071-0.052,0.139-0.102,0.212-0.154l6.008-4.333c0.08-0.057,0.141-0.1,0.213-0.153
		c0.142-0.105,0.221-0.068,0.474-0.068h0.664c0.095,0,0.352,0.215,0.439,0.277c0.137,0.097,0.287,0.206,0.426,0.307l2.552,1.833
		c0.566,0.411,1.128,0.8,1.697,1.22c0.141,0.103,0.276,0.199,0.416,0.299c0.077,0.055,0.139,0.099,0.213,0.154
		c0.021,0.014,0.028,0.021,0.052,0.038c0.003,0.002,0.007,0.005,0.01,0.007l0.01,0.007c0.013,0.009,0.019,0.013,0.03,0.021
		c0.042,0.029,0.074,0.053,0.112,0.08c0.283,0.203,0.57,0.417,0.853,0.613c-0.118,0.151-1.226,0.743-1.499,0.877
		C23.905,32.175,21.913,32.669,19.86,32.665z M20,34.238v-0.462h0.857v1.764h0.337v0.465h-1.223v-0.465h0.331v-1.302H20z
		 M18.073,34.507c0-0.525,0.357-0.764,0.848-0.764c0.487,0,0.856,0.239,0.856,0.764c0,0.153-0.029,0.309-0.118,0.44l-0.65,1.079
		h-0.633l0.474-0.805C18.379,35.257,18.073,34.931,18.073,34.507z M16.771,34.238v-0.462h0.856v1.764h0.338v0.465h-1.223v-0.465
		h0.331v-1.302H16.771z M3.96,20.793l-0.032-0.425l1.777-0.135l0.026,0.342l-1.32,0.1l1.372,0.591l0.03,0.389L4.036,21.79
		L4.01,21.448l1.238-0.094L3.96,20.793z M3.978,18.727l0.033-0.437l1.777,0.136l-0.026,0.342l-1.32-0.101l1.268,0.784l-0.03,0.397
		l-1.778-0.135l0.027-0.342l1.238,0.094L3.978,18.727z M4.556,17.392c0.078,0.092,0.224,0.157,0.439,0.195
		c0.2,0.036,0.356,0.027,0.468-0.026c0.111-0.053,0.18-0.156,0.208-0.311c0.019-0.104,0.013-0.189-0.017-0.253
		c-0.029-0.065-0.072-0.127-0.129-0.186l0.258-0.246c0.099,0.096,0.165,0.203,0.198,0.322c0.033,0.118,0.036,0.258,0.007,0.417
		c-0.097,0.543-0.45,0.76-1.059,0.652c-0.312-0.056-0.53-0.166-0.653-0.33c-0.125-0.164-0.164-0.376-0.117-0.635
		c0.03-0.172,0.084-0.307,0.161-0.405c0.077-0.097,0.168-0.166,0.272-0.206l0.165,0.316c-0.067,0.03-0.118,0.059-0.151,0.088
		c-0.033,0.029-0.06,0.064-0.081,0.105c-0.021,0.04-0.038,0.09-0.048,0.151C4.451,17.183,4.477,17.301,4.556,17.392z M4.201,22.496
		c0.038-0.119,0.099-0.214,0.183-0.288l0.265,0.24c-0.053,0.05-0.091,0.095-0.112,0.134c-0.021,0.039-0.034,0.081-0.04,0.126
		c-0.006,0.046-0.003,0.099,0.008,0.159c0.025,0.144,0.09,0.244,0.195,0.303c0.106,0.059,0.265,0.07,0.48,0.031
		c0.201-0.036,0.344-0.098,0.43-0.186c0.086-0.088,0.115-0.209,0.088-0.364c-0.019-0.104-0.053-0.181-0.103-0.232
		c-0.05-0.05-0.112-0.094-0.187-0.129l0.158-0.32c0.126,0.055,0.225,0.132,0.297,0.233c0.072,0.1,0.123,0.23,0.151,0.389
		c0.097,0.543-0.159,0.869-0.768,0.978c-0.312,0.055-0.554,0.028-0.727-0.083c-0.174-0.112-0.283-0.297-0.33-0.556
		C4.158,22.76,4.162,22.614,4.201,22.496z M4.632,24.423c0.02-0.122,0.066-0.226,0.138-0.311l0.298,0.197
		c-0.045,0.058-0.076,0.108-0.091,0.15c-0.015,0.041-0.022,0.084-0.021,0.131c0.002,0.046,0.011,0.097,0.031,0.155
		c0.047,0.138,0.126,0.229,0.239,0.271c0.113,0.043,0.273,0.029,0.479-0.041c0.193-0.065,0.325-0.148,0.397-0.248
		c0.072-0.1,0.083-0.224,0.033-0.373c-0.034-0.1-0.079-0.171-0.136-0.214c-0.057-0.043-0.125-0.077-0.204-0.1l0.108-0.34
		c0.132,0.036,0.242,0.098,0.328,0.186c0.087,0.088,0.156,0.209,0.208,0.363c0.177,0.522-0.028,0.882-0.614,1.081
		c-0.3,0.101-0.544,0.11-0.732,0.026s-0.324-0.251-0.408-0.501C4.629,24.689,4.611,24.545,4.632,24.423z M6.417,15.417
		c-0.129-0.002-0.242-0.002-0.341-0.002c-0.097,0-0.181,0.008-0.249,0.021c-0.069,0.014-0.123,0.036-0.164,0.065
		c-0.04,0.03-0.069,0.074-0.085,0.132l-0.05,0.176l0.72,0.204L6.15,16.361l-1.715-0.487l0.098-0.348l0.708,0.201l0.057-0.199
		c0.013-0.047,0.001-0.094-0.035-0.143c-0.036-0.049-0.1-0.106-0.193-0.17c-0.092-0.066-0.219-0.144-0.381-0.237l0.102-0.359
		c0.224,0.122,0.395,0.233,0.512,0.332c0.117,0.099,0.19,0.195,0.221,0.289c0.056-0.056,0.12-0.098,0.191-0.127
		c0.072-0.028,0.163-0.047,0.272-0.055c0.109-0.009,0.287-0.01,0.533-0.001L6.417,15.417z M5.007,14.04l0.141-0.312l1.131,0.512
		l-0.86-1.111l0.175-0.388l1.624,0.734l-0.141,0.313L5.87,13.242l0.921,1.177l-0.16,0.356L5.007,14.04z M5.837,11.213l0.151-0.263
		c0.056,0.032,0.098,0.079,0.125,0.139c0.028,0.061,0.039,0.129,0.032,0.205c-0.007,0.077-0.034,0.156-0.08,0.236
		c-0.045,0.079-0.1,0.141-0.162,0.186C5.84,11.76,5.776,11.787,5.71,11.793c-0.067,0.007-0.128-0.006-0.185-0.039l0.151-0.262
		c0.11,0.063,0.192,0.048,0.246-0.047c0.022-0.037,0.028-0.076,0.02-0.117C5.934,11.287,5.899,11.247,5.837,11.213z M6.347,11.393
		l0.218-0.38l1.545,0.889L7.939,12.2l-1.147-0.66l0.806,1.254l-0.199,0.345l-1.545-0.889l0.171-0.296l1.076,0.618L6.347,11.393z
		 M8.26,8.898l0.268-0.309l1.347,1.167l-0.23,0.265L8.74,9.237l0.283,0.811l-0.138,0.159l-0.839-0.169l0.905,0.785l-0.229,0.264
		L7.375,9.921l0.274-0.317l0.943,0.203L8.26,8.898z M12.714,6.563c0.092,0.182,0.193,0.3,0.303,0.357
		c0.11,0.057,0.234,0.049,0.374-0.022c0.094-0.048,0.158-0.104,0.192-0.167c0.033-0.063,0.057-0.135,0.069-0.216l0.352,0.057
		c-0.016,0.136-0.061,0.254-0.136,0.352c-0.075,0.099-0.184,0.185-0.328,0.259c-0.491,0.251-0.878,0.102-1.16-0.449
		c-0.144-0.282-0.188-0.522-0.133-0.72c0.055-0.198,0.2-0.357,0.435-0.477c0.155-0.08,0.295-0.119,0.42-0.116
		c0.124,0.002,0.234,0.032,0.328,0.091l-0.151,0.323C13.215,5.8,13.16,5.777,13.117,5.768c-0.043-0.009-0.087-0.01-0.132-0.002
		c-0.045,0.008-0.095,0.025-0.149,0.053c-0.13,0.067-0.208,0.159-0.233,0.277C12.577,6.213,12.614,6.37,12.714,6.563z M14.599,4.74
		l0.348-0.137c0.039,0.252,0.054,0.455,0.047,0.608c-0.008,0.153-0.04,0.27-0.096,0.351c0.079,0.011,0.151,0.036,0.217,0.076
		c0.066,0.04,0.136,0.1,0.209,0.181c0.074,0.082,0.182,0.223,0.324,0.424L15.299,6.38c-0.077-0.103-0.145-0.194-0.205-0.272
		c-0.059-0.078-0.116-0.139-0.168-0.186c-0.053-0.046-0.103-0.076-0.151-0.091c-0.048-0.013-0.101-0.009-0.157,0.013l-0.169,0.067
		l0.274,0.696L14.387,6.74l-0.653-1.659l0.335-0.132l0.271,0.684l0.192-0.075c0.045-0.018,0.076-0.056,0.093-0.115
		c0.016-0.058,0.023-0.144,0.018-0.257C14.639,5.074,14.624,4.925,14.599,4.74z M15.635,4.614c0.085-0.186,0.255-0.308,0.512-0.367
		c0.258-0.06,0.465-0.025,0.622,0.105c0.156,0.13,0.268,0.338,0.334,0.626c0.07,0.302,0.058,0.543-0.034,0.723
		c-0.094,0.18-0.262,0.298-0.505,0.354c-0.257,0.059-0.463,0.024-0.621-0.107c-0.157-0.13-0.269-0.339-0.335-0.625
		C15.542,5.036,15.55,4.798,15.635,4.614z M18.462,6.761c0.059-0.007,0.116-0.008,0.175-0.013c0.221-0.02,0.446-0.025,0.67-0.034
		c-0.036,0.168-0.352,1.018-0.425,1.231c-0.406,1.191-0.876,2.563-1.307,3.723c-0.172,0.464-0.324,0.972-0.487,1.4
		c-0.044,0.116-0.153,0.117-0.388,0.243c-0.716,0.385-1.331,0.903-1.851,1.502c-0.107,0.123-0.291,0.333-0.367,0.472
		c-0.565,0.018-1.175-0.013-1.749-0.02c-0.568-0.007-1.157-0.017-1.729-0.036c-0.571-0.02-1.151-0.029-1.729-0.036
		C9,15.19,8.704,15.19,8.428,15.173c-0.285-0.015-0.58,0-0.867-0.012C9.293,10.622,13.453,7.283,18.462,6.761z M17.717,3.981
		l0.157,1.231l0.485-1.313l0.434-0.055l0.224,1.768l-0.34,0.044L18.51,4.341l-0.513,1.4l-0.395,0.05l-0.224-1.768L17.717,3.981z
		 M17.574,3.462l0.301-0.038c0.016,0.126,0.078,0.181,0.186,0.168c0.042-0.006,0.078-0.024,0.105-0.055
		c0.028-0.032,0.037-0.083,0.028-0.153l0.301-0.039c0.009,0.065-0.003,0.126-0.035,0.185c-0.031,0.058-0.079,0.108-0.145,0.149
		c-0.065,0.04-0.144,0.066-0.236,0.078c-0.09,0.012-0.172,0.006-0.246-0.017c-0.074-0.022-0.133-0.058-0.178-0.107
		C17.61,3.583,17.583,3.526,17.574,3.462z M25.998,4.983l0.397,0.157l-0.654,1.658l-0.318-0.126l0.485-1.232l-1.131,0.977
		l-0.363-0.143l0.654-1.657l0.319,0.125l-0.455,1.155L25.998,4.983z M28.32,6.506l0.193-0.271l1.188,0.845l-0.193,0.271
		l-0.447-0.318l-0.84,1.181l-0.294-0.209l0.84-1.182L28.32,6.506z M30.027,7.329l0.506,0.439c0.153,0.132,0.24,0.27,0.262,0.413
		c0.021,0.143-0.038,0.294-0.175,0.453c-0.141,0.162-0.283,0.249-0.427,0.262c-0.145,0.012-0.303-0.057-0.475-0.205l-0.224-0.194
		l-0.361,0.416L28.86,8.676L30.027,7.329z M27.688,6.34c-0.009-0.073-0.022-0.131-0.04-0.171c-0.018-0.04-0.043-0.076-0.076-0.108
		c-0.033-0.032-0.077-0.063-0.13-0.09c-0.131-0.067-0.25-0.076-0.361-0.028c-0.111,0.048-0.216,0.169-0.315,0.364
		c-0.093,0.18-0.13,0.332-0.112,0.454c0.018,0.122,0.097,0.219,0.237,0.29c0.094,0.049,0.176,0.068,0.247,0.059
		c0.071-0.009,0.143-0.032,0.216-0.07l0.159,0.319c-0.12,0.066-0.242,0.098-0.365,0.095c-0.123-0.003-0.257-0.041-0.402-0.115
		c-0.49-0.252-0.595-0.653-0.313-1.203c0.144-0.283,0.313-0.458,0.506-0.529c0.193-0.071,0.407-0.046,0.642,0.074
		c0.155,0.079,0.268,0.171,0.339,0.273c0.071,0.102,0.11,0.209,0.118,0.32L27.688,6.34z M24.575,4.795l-0.76-0.216l-0.406,1.427
		l-0.347-0.098l0.486-1.715l1.109,0.315L24.575,4.795z M23.023,4.434l-0.781-0.14l-0.067,0.374l0.66,0.118l-0.057,0.316
		l-0.659-0.118l-0.075,0.421l0.781,0.139l-0.059,0.328L21.63,5.669l0.313-1.754l1.137,0.203L23.023,4.434z M22.444,6.948
		c0.029,0.006,0.06,0.011,0.087,0.017c0.382,0.079,0.757,0.178,1.125,0.289c0.125,0.038,0.247,0.084,0.37,0.125
		c0.674,0.226,1.326,0.502,1.947,0.829c0.062,0.033,0.128,0.064,0.189,0.098c0.115,0.063,0.223,0.137,0.336,0.204
		c0.357,0.209,0.703,0.436,1.039,0.678c0.147,0.107,0.295,0.215,0.438,0.328c0.372,0.294,0.733,0.604,1.071,0.936
		c0.062,0.061,0.124,0.122,0.185,0.185c0.344,0.352,0.666,0.726,0.969,1.114c0.088,0.113,0.172,0.228,0.257,0.344
		c0.296,0.406,0.575,0.824,0.821,1.262c0.019,0.033,0.041,0.064,0.059,0.097c0.045,0.084,0.126,0.237,0.22,0.425
		c0.115,0.225,0.227,0.45,0.328,0.682c0.054,0.118,0.099,0.224,0.136,0.32c0.022,0.052,0.038,0.106,0.058,0.158
		c0.016,0.051,0.027,0.094,0.028,0.121l-6.919,0.007c-0.066-0.016-0.251-0.28-0.299-0.335c-0.6-0.694-1.286-1.234-2.14-1.649
		c-0.099-0.049-0.084-0.086-0.121-0.197c-0.025-0.072-0.055-0.16-0.08-0.235c-0.577-1.72-1.253-3.4-1.844-5.089
		c-0.11-0.315-0.237-0.623-0.323-0.947C21.083,6.743,21.775,6.812,22.444,6.948z M21.202,4.923
		c-0.103,0.101-0.269,0.149-0.496,0.143l-0.297-0.007L20.395,5.61l-0.361-0.009l0.045-1.782l0.67,0.017
		c0.202,0.005,0.357,0.056,0.464,0.153c0.107,0.096,0.158,0.25,0.153,0.461C21.361,4.665,21.306,4.822,21.202,4.923z M23.845,14.599
		c0.498,0.451,0.948,0.956,1.325,1.665c0.317,0.597,0.636,1.484,0.68,2.302c0.027,0.503,0.017,0.952-0.057,1.425
		c-0.072,0.465-0.171,0.762-0.332,1.153c-0.276,0.665-0.64,1.367-1.117,1.872c-0.461,0.488-0.97,0.94-1.682,1.306
		c-1.523,0.782-3.311,0.908-4.913,0.306c-1.044-0.393-1.943-1.054-2.597-1.878c-0.413-0.519-0.531-0.825-0.83-1.407
		c-0.07-0.137-0.326-0.972-0.358-1.144c-0.041-0.219-0.071-0.433-0.093-0.654c-0.089-0.9,0.094-1.883,0.368-2.597
		c0.301-0.781,0.669-1.304,1.14-1.85c0.963-1.118,2.419-1.838,3.994-1.978C21.227,12.954,22.894,13.739,23.845,14.599z
		 M11.762,7.541l-0.25,0.16l0.298,0.464L11.506,8.36l-0.962-1.5l0.564-0.362c0.17-0.109,0.326-0.153,0.47-0.133
		c0.143,0.019,0.271,0.118,0.385,0.295c0.116,0.181,0.159,0.342,0.13,0.484C12.064,7.287,11.954,7.418,11.762,7.541z M10.683,7.877
		c0.203,0.234,0.305,0.453,0.307,0.655c0.003,0.202-0.09,0.385-0.279,0.549c-0.2,0.172-0.399,0.237-0.599,0.196
		c-0.2-0.042-0.397-0.174-0.589-0.395C9.33,8.659,9.227,8.445,9.215,8.242C9.203,8.038,9.296,7.852,9.496,7.678
		c0.2-0.174,0.4-0.24,0.599-0.199C10.294,7.522,10.49,7.655,10.683,7.877z M6.82,18.104c0.048-0.356,0.099-0.686,0.17-1.034
		c0.025-0.117,0.056-0.229,0.084-0.343c0.052-0.209,0.1-0.419,0.161-0.624c0.12,0.043,1.58,1.116,1.696,1.201l4.423,3.175
		c0.124,0.085,0.086,0.072,0.132,0.239c0.16,0.588,0.342,1.023,0.634,1.547c0.106,0.191,0.095,0.115-0.037,0.515l-1.973,6.01
		c-0.059,0.173-0.311,1.011-0.373,1.095c-0.235-0.127-1.079-0.934-1.269-1.123c-0.41-0.409-0.76-0.817-1.12-1.29
		c-0.58-0.764-0.995-1.465-1.412-2.343l-0.143-0.314c-0.061-0.141-0.118-0.276-0.179-0.431C6.859,22.473,6.547,20.164,6.82,18.104z
		 M26.513,25.52c-0.338-0.986-0.648-2.003-0.983-2.984c-0.047-0.138-0.008-0.133,0.058-0.248c0.42-0.731,0.398-0.854,0.643-1.522
		c0.023-0.059,0.066-0.214,0.092-0.258c0.034-0.056,1.847-1.338,2.099-1.519l0.131-0.093c0.003-0.002,0.007-0.005,0.01-0.007
		c0.004-0.003,0.007-0.006,0.01-0.008c0.025-0.018,0.034-0.026,0.062-0.046l2.948-2.116c0.136-0.097,0.762-0.567,0.859-0.602
		c0.77,2.81,0.632,5.684-0.386,8.252c-0.846,2.132-2.089,3.803-3.767,5.231c-0.078,0.067-0.261,0.228-0.342,0.269
		C27.453,28.411,27.013,26.979,26.513,25.52z M32.529,26.708l0.378,0.061l0.311-0.608l-0.27-0.272l0.165-0.321l1.318,1.337
		l-0.217,0.424l-1.855-0.288L32.529,26.708z M34.277,25.611c-0.048-0.071-0.064-0.164-0.051-0.278
		c-0.068,0.136-0.147,0.225-0.239,0.266c-0.092,0.042-0.198,0.042-0.318,0.001c-0.17-0.057-0.274-0.157-0.312-0.3
		c-0.04-0.143-0.024-0.319,0.046-0.525l0.215-0.636l1.688,0.571l-0.2,0.594c-0.074,0.215-0.157,0.359-0.252,0.43
		c-0.095,0.072-0.21,0.085-0.347,0.038C34.402,25.738,34.326,25.685,34.277,25.611z M35.684,16.475l0.091,0.39l-0.991-0.371
		l-0.747,0.769l-0.092-0.398l0.513-0.51l-0.686-0.24l-0.09-0.39l1.005,0.38l0.735-0.766l0.093,0.403l-0.502,0.495L35.684,16.475z
		 M35.96,17.89c0.033,0.263-0.023,0.466-0.168,0.608c-0.144,0.143-0.364,0.233-0.657,0.27c-0.307,0.039-0.545,0.003-0.715-0.107
		c-0.169-0.11-0.27-0.289-0.302-0.537c-0.033-0.262,0.023-0.463,0.169-0.607c0.146-0.144,0.364-0.234,0.655-0.271
		c0.293-0.037,0.527-0.005,0.704,0.098C35.821,17.447,35.926,17.628,35.96,17.89z M35.121,24.241l0.123-0.535l-1.413-0.326
		l0.081-0.352l1.413,0.326l0.124-0.534l0.323,0.075l-0.328,1.42L35.121,24.241z M35.551,22.54l-0.181-0.308
		c0.066-0.032,0.116-0.064,0.147-0.094c0.031-0.032,0.057-0.067,0.076-0.109c0.019-0.042,0.033-0.093,0.04-0.153
		c0.019-0.145-0.014-0.261-0.096-0.349c-0.083-0.087-0.233-0.145-0.449-0.172c-0.202-0.026-0.357-0.009-0.465,0.049
		c-0.109,0.058-0.173,0.166-0.193,0.321c-0.013,0.105-0.004,0.189,0.029,0.252c0.033,0.064,0.079,0.124,0.139,0.18l-0.245,0.257
		c-0.104-0.089-0.175-0.193-0.214-0.31c-0.04-0.117-0.049-0.256-0.028-0.417c0.069-0.547,0.411-0.782,1.024-0.704
		c0.315,0.04,0.538,0.139,0.67,0.297c0.132,0.157,0.181,0.367,0.148,0.629c-0.022,0.172-0.069,0.31-0.141,0.411
		C35.74,22.422,35.653,22.496,35.551,22.54z M34.573,20.493l0.005,0.208l-0.612,0.016l-0.009-0.362l0.321-0.007l-0.024-0.96
		l-0.322,0.008l-0.009-0.361l0.613-0.016l0.004,0.165c0.203,0.085,0.428,0.145,0.675,0.179c0.247,0.035,0.521,0.049,0.822,0.041
		l0.027,1.052L34.573,20.493z M35.374,8.75c0.571-0.462,0.676,0.77,0.662,1.206c-0.015,0.469-0.194,1.329-0.349,1.71
		C34.702,11.454,35.323,9.6,35.374,8.75z M35.06,14.878c-0.106,0.174-0.296,0.315-0.57,0.423c-0.289,0.114-0.528,0.138-0.72,0.072
		c-0.192-0.064-0.333-0.213-0.425-0.445c-0.097-0.246-0.092-0.455,0.014-0.631c0.106-0.174,0.295-0.316,0.568-0.424
		c0.274-0.108,0.51-0.134,0.705-0.078c0.197,0.057,0.343,0.206,0.439,0.452C35.169,14.495,35.165,14.705,35.06,14.878z
		 M34.291,7.818c0.031-0.203,0.015-0.318,0.111-0.369c0.693-0.369,0.653,1.662,0.601,2.049c-0.036,0.272-0.097,0.541-0.118,0.812
		c-0.403-0.166-0.612-0.756-0.665-1.202C34.171,8.678,34.227,8.234,34.291,7.818z M34.541,13.061l-1.327,0.68l0.095,0.186
		l-0.546,0.279l-0.164-0.321l0.286-0.147l-0.438-0.854l-0.286,0.146l-0.164-0.321l0.545-0.279l0.075,0.145
		c0.22-0.011,0.449-0.054,0.686-0.13c0.237-0.075,0.49-0.182,0.759-0.32L34.541,13.061z M33.154,6.237
		c0.402-0.28,0.748,0.704,0.811,1.056c0.062,0.348,0.042,0.537,0.005,0.878c-0.047,0.427-0.012,0.751-0.033,0.945
		c-0.918-0.223-0.702-1.682-0.848-2.539C33.052,6.365,32.994,6.349,33.154,6.237z M33.007,10.43l0.212,0.33l-0.504,0.822
		l0.926-0.163l0.206,0.322l-1.579,0.233c-0.098,0.014-0.181,0.017-0.25,0.008c-0.068-0.007-0.126-0.027-0.173-0.059
		c-0.048-0.031-0.095-0.083-0.142-0.157c-0.019-0.03-0.045-0.084-0.076-0.162c-0.032-0.078-0.052-0.143-0.06-0.194l0.295-0.064
		c0.003,0.036,0.015,0.081,0.034,0.133c0.018,0.053,0.035,0.091,0.049,0.113c0.022,0.035,0.058,0.058,0.106,0.069
		c0.049,0.011,0.13,0.003,0.245-0.024L33.007,10.43z M31.808,5.048c0.486-0.385,0.865,0.677,0.947,1.134
		c0.017,0.098-0.011,0.097,0.013,0.193c0.086,0.346,0.071,1.043,0.063,1.409c-0.19,0.033-0.507-0.287-0.579-0.387
		c-0.136-0.186-0.224-0.446-0.279-0.721c-0.101-0.521-0.11-0.878-0.24-1.471C31.714,5.116,31.75,5.095,31.808,5.048z M31.784,9.26
		c0.205,0.007,0.395,0.11,0.567,0.309c0.114,0.131,0.185,0.258,0.213,0.38c0.027,0.121,0.024,0.235-0.011,0.34l-0.35-0.069
		c0.02-0.072,0.03-0.13,0.028-0.174c-0.002-0.044-0.012-0.087-0.031-0.129c-0.018-0.042-0.047-0.086-0.087-0.132
		c-0.095-0.11-0.203-0.163-0.323-0.16c-0.121,0.003-0.263,0.076-0.429,0.219c-0.153,0.133-0.245,0.259-0.273,0.379
		c-0.029,0.12,0.007,0.239,0.11,0.358c0.07,0.08,0.139,0.129,0.207,0.146c0.07,0.019,0.145,0.024,0.227,0.017l0.028,0.355
		c-0.135,0.017-0.26,0.001-0.374-0.048c-0.113-0.049-0.223-0.135-0.329-0.258c-0.361-0.416-0.308-0.827,0.159-1.233
		C31.356,9.353,31.578,9.254,31.784,9.26z M30.433,3.918c0.417-0.339,0.822,0.627,0.928,0.966c0.144,0.462,0.269,1.244,0.255,1.789
		c-0.622,0.029-0.826-0.57-0.949-1.099c-0.117-0.5-0.168-0.962-0.295-1.488C30.349,3.992,30.374,3.967,30.433,3.918z M29.044,3.051
		c0.398-0.338,0.817,0.678,0.937,0.976c0.093,0.23,0.195,0.516,0.257,0.759L30.4,5.645c-0.066-0.015-0.153-0.038-0.206-0.063
		c-0.06-0.026-0.113-0.054-0.174-0.091c-0.651-0.408-0.892-1.342-1.007-2.036C28.982,3.272,28.916,3.16,29.044,3.051z M27.152,2.331
		c0.18-0.237,0.614,0.108,0.735,0.209c0.2,0.167,0.357,0.352,0.505,0.596c0.169,0.278,0.619,1.238,0.649,1.547
		c-0.401,0.01-0.609-0.105-0.808-0.306c-0.242-0.244-0.462-0.681-0.641-1.019c-0.062-0.117-0.124-0.233-0.191-0.35
		C27.127,2.535,26.986,2.549,27.152,2.331z M25.451,1.749c0.206-0.244,0.615,0.04,0.765,0.156c0.437,0.338,0.561,0.683,0.624,0.757
		c0.047,0.052,0.076,0.096,0.115,0.165c0.137,0.237,0.476,0.893,0.522,1.105c-0.37,0.025-0.641-0.081-0.85-0.253
		c-0.154-0.126-0.284-0.279-0.398-0.441c-0.03-0.043-0.071-0.097-0.109-0.154c-0.149-0.222-0.278-0.441-0.428-0.672
		C25.414,1.984,25.269,1.965,25.451,1.749z M23.697,1.305c0.171-0.277,0.602,0.015,0.764,0.136c0.217,0.162,0.39,0.334,0.572,0.547
		c0.165,0.191,0.812,1.128,0.865,1.411c-0.394,0.13-0.594,0.065-0.867-0.151c-0.346-0.274-0.739-0.875-1.002-1.253
		c-0.077-0.111-0.149-0.214-0.233-0.325C23.704,1.55,23.586,1.487,23.697,1.305z M23.939,2.331c0.074,0.108,0.14,0.203,0.215,0.309
		c0.053,0.075,0.195,0.236,0.21,0.309l-0.207,0.013c-0.767,0.057-1.509-0.793-1.873-1.317l-0.021-0.03
		c-0.002-0.003-0.005-0.008-0.007-0.011l-0.081-0.113c-0.123-0.178-0.193-0.221-0.149-0.337C22.294,0.438,23.745,2.05,23.939,2.331z
		 M20.506,0.938c0.415-0.025,0.964,0.308,1.234,0.536c0.384,0.324,0.454,0.536,0.823,0.941c0.062,0.068,0.254,0.234,0.281,0.292
		c-1.004,0.459-1.843-1.046-2.583-1.413C20.238,1.067,20.291,0.951,20.506,0.938z M19.179,0.957c0.288,0.09,0.548,0.249,0.754,0.402
		c0.085,0.063,0.056,0.079,0.157,0.139c0.065,0.039,0.11,0.074,0.163,0.118c0.107,0.091,0.205,0.183,0.3,0.276
		c0.097,0.093,0.516,0.503,0.553,0.611c-0.317,0.098-0.521,0.148-0.872,0.024c-0.582-0.204-1.17-0.857-1.786-1.236
		C18.424,0.826,18.81,0.841,19.179,0.957z M16.89,1.023C17.071,1,17.252,1.044,17.406,1.089c0.286,0.085,0.546,0.218,0.776,0.36
		c0.263,0.164,0.37,0.256,0.59,0.424c0.162,0.125,0.579,0.477,0.667,0.606c-0.055,0.09-0.196,0.169-0.339,0.202
		c-0.167,0.039-0.345,0.004-0.483-0.04c-0.645-0.21-1.487-1.017-1.957-1.257C16.652,1.171,16.688,1.048,16.89,1.023z M15.843,1.427
		c0.069,0.021,0.128,0.041,0.198,0.067c0.039,0.015,0.06,0.025,0.099,0.042c0.365,0.155,0.792,0.347,1.101,0.575
		c0.072,0.053,0.553,0.373,0.596,0.443c-0.584,0.277-1.121,0.146-1.653-0.118c-0.185-0.091-0.973-0.584-1.113-0.722
		C15.031,1.675,14.85,1.125,15.843,1.427z M13.669,1.772c0.374-0.049,0.724,0.062,1.008,0.177c0.355,0.143,1.273,0.699,1.465,0.932
		c-0.071,0.081-0.288,0.15-0.388,0.175c-0.164,0.039-0.323,0.049-0.505,0.045c-0.343-0.01-0.641-0.097-0.915-0.194
		c-0.261-0.094-0.523-0.224-0.744-0.358c-0.187-0.114-0.58-0.274-0.691-0.341c-0.028-0.017-0.017-0.009-0.033-0.025
		C12.986,2.006,13.365,1.813,13.669,1.772z M11.49,2.668c0.366-0.297,0.976-0.373,1.411-0.165c0.467,0.224,0.97,0.53,1.415,0.681
		l0.17,0.056c0.003,0.001,0.001,0,0.004,0.002c0.005,0.002,0.005,0.003,0.019,0.01c0.002,0.001,0.009,0.01,0.011,0.007
		c0.001-0.004,0.007,0.004,0.01,0.007c-0.345,0.46-1.095,0.361-1.662,0.2c-0.266-0.075-0.541-0.176-0.799-0.267
		c-0.187-0.067-0.647-0.185-0.852-0.2C11.226,2.891,11.41,2.734,11.49,2.668z M10.366,3.394c0.488-0.258,0.912-0.144,1.487,0.018
		c0.453,0.128,0.922,0.352,1.414,0.423c-0.07,0.201-0.389,0.387-0.64,0.446c-0.906,0.215-1.86-0.264-2.85-0.243
		C9.824,3.804,10.168,3.5,10.366,3.394z M8.391,4.758c0.203-0.283,0.878-0.44,1.233-0.449c0.34-0.008,0.73,0.024,1.035,0.083
		c0.138,0.027,0.882,0.151,0.942,0.184c-0.043,0.189-0.305,0.404-0.48,0.484C10.664,5.269,9.92,5.177,9.413,5.144
		C9.086,5.121,8.792,5.152,8.485,5.154C8.418,5.061,8.273,4.922,8.391,4.758z M6.883,5.976c0.136-0.322,0.78-0.498,1.116-0.531
		c0.218-0.022,0.842-0.026,1.067-0.012c0.333,0.021,0.651,0.079,0.976,0.122C9.981,5.825,9.595,6.122,9.268,6.213
		C8.851,6.329,8.398,6.324,7.93,6.326c-0.157,0-0.315,0.002-0.472,0.006C7.29,6.338,7.167,6.374,6.998,6.364
		C6.942,6.268,6.808,6.152,6.883,5.976z M5.494,7.259c0.153-0.289,0.792-0.47,1.104-0.54C7.26,6.571,7.959,6.624,8.663,6.658
		C8.694,6.935,8.46,7.174,8.287,7.274c-0.414,0.241-1.233,0.28-1.738,0.297C6.246,7.581,5.89,7.638,5.6,7.639
		C5.54,7.552,5.407,7.423,5.494,7.259z M5.525,8.037C6.09,7.89,6.33,7.848,6.9,7.821c0.175-0.008,0.33-0.032,0.507-0.036
		C7.278,8.273,6.709,8.602,6.251,8.75c-0.474,0.154-0.89,0.175-1.379,0.212C4.601,8.983,4.514,9.019,4.427,8.899
		C4.075,8.416,5.213,8.119,5.525,8.037z M3.709,9.786c0.35-0.281,0.696-0.425,1.143-0.536c0.134-0.033,0.707-0.073,0.994-0.126
		C6.001,9.096,6.18,9.03,6.335,9.019C6.292,9.658,5.687,9.915,5.13,10.076c-0.292,0.084-0.586,0.152-0.877,0.24
		c-0.146,0.044-0.285,0.089-0.418,0.141c-0.19,0.075-0.237,0.158-0.403,0.015C3.163,10.237,3.577,9.892,3.709,9.786z M2.643,11.357
		c0.191-0.175,0.432-0.311,0.706-0.429c0.082-0.036,0.121-0.057,0.213-0.072c0.094-0.014,0.119-0.046,0.196-0.078
		c0.207-0.086,0.758-0.211,1.004-0.254l0.03-0.005c0.143-0.029,0.229-0.054,0.388-0.067c-0.071,1.044-1.446,1.242-2.373,1.631
		c-0.196,0.082-0.22,0.151-0.385-0.007C2.157,11.825,2.501,11.488,2.643,11.357z M1.447,13.449c0.132-0.4,0.864-0.84,1.308-1.035
		c0.463-0.205,0.835-0.315,1.321-0.444c0.022-0.006,0.106-0.028,0.119-0.028c0.07,0.001,0.063-0.007,0.074,0.091
		c0.01,0.092,0.006,0.2-0.015,0.281c-0.175,0.664-1.46,1.043-2.182,1.341c-0.085,0.035-0.348,0.179-0.425,0.161
		C1.552,13.794,1.379,13.653,1.447,13.449z M3.584,18.843c-0.025-0.033-0.074-0.053-0.145-0.058l0.023-0.303
		c0.065,0.005,0.123,0.029,0.174,0.072s0.09,0.1,0.117,0.172c0.026,0.072,0.036,0.154,0.029,0.247
		c-0.007,0.09-0.029,0.17-0.066,0.237c-0.037,0.068-0.084,0.119-0.141,0.154c-0.057,0.034-0.118,0.049-0.183,0.044l0.023-0.303
		c0.126,0.01,0.193-0.039,0.201-0.147C3.62,18.915,3.609,18.875,3.584,18.843z M0.907,15.353c-0.399-0.34,0.672-1.035,0.944-1.207
		c0.53-0.337,0.611-0.363,1.151-0.578c0.124-0.049,0.307-0.144,0.422-0.174c-0.019,0.671-0.52,1.116-0.939,1.387
		c-0.23,0.149-0.489,0.28-0.757,0.398c-0.136,0.06-0.266,0.112-0.408,0.169C1.124,15.427,1.072,15.495,0.907,15.353z M0.642,16.66
		c0.169-0.332,0.341-0.514,0.578-0.734c0.511-0.477,0.683-0.499,1.177-0.781c0.113-0.064,0.334-0.225,0.426-0.256
		c0.209,0.667-0.201,1.035-0.69,1.444c-0.203,0.171-0.426,0.332-0.629,0.507c-0.181,0.156-0.431,0.365-0.575,0.557
		C0.349,17.405,0.455,17.028,0.642,16.66z M0.4,18.479c0.148-0.317,0.338-0.539,0.545-0.749c0.106-0.107,0.078-0.032,0.17-0.143
		c0.185-0.223,1.139-0.938,1.302-0.984c0.109,0.353,0.133,0.574-0.036,0.903c-0.285,0.554-1.112,1.149-1.609,1.725
		C0.243,19.224,0.203,18.904,0.4,18.479z M0.442,20.198c0.144-0.296,0.315-0.52,0.5-0.741l0.295-0.315
		c0.235-0.234,0.4-0.37,0.645-0.579c0.074-0.063,0.281-0.246,0.38-0.265c0.138,0.232,0.352,0.398,0.085,0.903
		c-0.293,0.553-1.021,1.16-1.44,1.636c-0.048,0.056-0.096,0.113-0.147,0.168C0.682,21.092-0.023,21.147,0.442,20.198z M0.675,22.68
		c-0.518-0.183,0.302-1.364,0.426-1.542c0.382-0.546,0.398-0.516,0.793-0.939c0.052-0.056,0.231-0.267,0.296-0.294
		c0.099,0.313,0.223,0.491,0.086,0.971c-0.191,0.669-0.728,1.214-1.194,1.689C0.963,22.686,0.929,22.771,0.675,22.68z M1.204,24.442
		c-0.323-0.04-0.276-0.559-0.221-0.856c0.06-0.323,0.191-0.57,0.338-0.816c0.187-0.313,0.583-0.637,0.94-1.208
		c0.033-0.053,0.037-0.061,0.079-0.085c0.092,0.057,0.187,0.226,0.231,0.354c0.236,0.705-0.622,1.557-0.998,2.396
		C1.527,24.33,1.537,24.484,1.204,24.442z M1.981,26.193c-0.056,0.021-0.194,0.034-0.265,0.023c-0.468-0.072-0.33-0.864-0.195-1.235
		c0.028-0.079,0.05-0.129,0.08-0.199c0.076-0.179,0.068-0.121,0.112-0.186c0.027-0.04,0.051-0.141,0.081-0.198
		c0.13-0.247,0.67-1.066,0.809-1.167c0.178,0.141,0.335,0.473,0.318,0.805c-0.032,0.589-0.577,1.358-0.831,1.983
		c-0.013,0.032-0.022,0.064-0.038,0.102C2.026,26.182,2.042,26.17,1.981,26.193z M2.509,27.944
		c-0.753,0.116-0.385-1.218-0.247-1.593c0.214-0.578,0.505-1.014,0.791-1.478c0.242,0.078,0.455,0.329,0.463,0.663
		c0.006,0.306-0.131,0.674-0.229,0.911c-0.112,0.266-0.233,0.522-0.353,0.782l-0.251,0.586C2.641,27.929,2.647,27.923,2.509,27.944z
		 M3.58,29.167c-0.108,0.239-0.09,0.26-0.246,0.284c-0.711,0.111-0.405-1.139-0.317-1.507c0.067-0.279,0.14-0.559,0.251-0.799
		c0.059-0.129,0.273-0.652,0.33-0.725c0.049,0.024,0.033,0.016,0.074,0.056C4.414,27.205,3.934,28.385,3.58,29.167z M4.511,29.35
		c-0.039,0.207-0.081,0.41-0.117,0.612c-0.043,0.24-0.045,0.424-0.065,0.673c-0.237,0.111-0.395,0.167-0.56-0.241
		c-0.07-0.172-0.183-0.609-0.089-0.811c0.167-0.356,0.297-0.625,0.433-0.997l0.089-0.278c0.005-0.016,0.007-0.025,0.013-0.039
		c0.021-0.046,0.008-0.022,0.029-0.046c0.131,0.079,0.231,0.238,0.282,0.441C4.573,28.855,4.552,29.137,4.511,29.35z M5.379,31.191
		c-0.031,0.262-0.024,0.48-0.047,0.74c-0.225,0.096-0.407,0.166-0.597-0.18C4.61,31.523,4.524,31,4.586,30.786
		c0.039-0.135,0.013-0.049,0.018-0.203c0.005-0.177,0.102-0.578,0.15-0.761c0.019-0.073,0.07-0.305,0.119-0.36
		C5.555,29.746,5.45,30.59,5.379,31.191z M5.418,26.71c-0.109-0.242-0.116-0.452-0.019-0.631c0.096-0.179,0.279-0.329,0.548-0.451
		c0.283-0.127,0.521-0.163,0.716-0.108c0.195,0.056,0.344,0.198,0.446,0.425c0.109,0.241,0.114,0.45,0.017,0.63
		c-0.097,0.18-0.279,0.331-0.547,0.451c-0.268,0.122-0.502,0.16-0.7,0.114C5.68,27.093,5.527,26.949,5.418,26.71z M6.408,33.152
		c-0.487,0.374-0.721-0.445-0.768-0.857c-0.03-0.275-0.027-0.573,0.005-0.849c0.015-0.142,0.029-0.27,0.053-0.402
		c0.024-0.13,0.059-0.262,0.074-0.384c0.496,0.038,0.631,0.441,0.671,0.942C6.468,31.921,6.405,32.701,6.408,33.152z M7.562,34.166
		c-0.273,0.164-0.397,0.099-0.538-0.143c-0.101-0.173-0.174-0.417-0.218-0.641c-0.115-0.574-0.121-0.987-0.085-1.612
		c0.357,0.119,0.635,0.494,0.753,0.879C7.621,33.13,7.586,33.63,7.562,34.166z M6.705,28.9l-0.362-0.564
		c-0.109-0.171-0.153-0.327-0.133-0.47c0.02-0.143,0.118-0.272,0.296-0.386c0.18-0.115,0.341-0.159,0.483-0.129
		c0.142,0.028,0.274,0.139,0.397,0.33l0.16,0.25l0.464-0.297l0.195,0.304L6.705,28.9z M8.884,35.138
		c-0.365,0.291-0.806-0.495-0.908-0.774c-0.1-0.271-0.123-0.458-0.121-0.775c0.002-0.345-0.042-0.54-0.074-0.851
		c0.264,0.025,0.476,0.187,0.583,0.33c0.321,0.426,0.33,1.148,0.511,1.745C8.919,34.96,9.005,35.041,8.884,35.138z M10.311,36.076
		c-0.441,0.36-0.946-0.567-1.04-0.895c-0.024-0.085-0.004-0.1-0.041-0.185C9.135,34.774,9,33.988,9.035,33.787
		c0.92,0.114,1.015,1.25,1.263,1.961C10.349,35.896,10.437,35.972,10.311,36.076z M11.777,36.947
		c-0.379,0.301-0.878-0.532-1.006-0.786c-0.136-0.272-0.436-1.149-0.434-1.509c0.357-0.012,0.533,0.077,0.699,0.267
		c0.155,0.177,0.248,0.372,0.347,0.615c0.142,0.345,0.244,0.723,0.376,1.074C11.816,36.76,11.902,36.849,11.777,36.947z
		 M12.681,37.414c-0.295-0.297-0.591-0.825-0.775-1.218l-0.26-0.745c0.51,0.031,0.916,0.437,1.118,0.745
		c0.13,0.198,0.226,0.38,0.317,0.61c0.06,0.15,0.225,0.55,0.235,0.704C13.209,37.58,13.092,37.826,12.681,37.414z M14.533,37.957
		c-0.272-0.147-0.431-0.286-0.608-0.477c-0.309-0.334-0.577-0.798-0.799-1.211c-0.031-0.057-0.027-0.073-0.008-0.103
		c0.511-0.132,0.968,0.317,1.239,0.655c0.2,0.25,0.674,0.921,0.882,1.04C15.223,38.283,14.735,38.067,14.533,37.957z M16.278,38.376
		c-0.24-0.113-0.634-0.398-0.752-0.594c-0.04-0.065-0.078-0.073-0.133-0.128c-0.117-0.116-0.425-0.551-0.534-0.721l-0.142-0.235
		c0.013-0.008,0.014-0.011,0.041-0.02c0.196-0.064,0.56,0.031,0.749,0.127c0.215,0.11,0.383,0.265,0.54,0.422
		c0.21,0.213,0.766,0.882,0.938,0.982C16.955,38.598,16.529,38.497,16.278,38.376z M18.697,38.609
		c-0.225,0.439-1.255-0.353-1.392-0.473c-0.222-0.195-0.895-0.89-0.991-1.123c0.203-0.169,0.583-0.097,0.833,0.039
		c0.399,0.218,0.8,0.667,1.112,0.986l0.399,0.386C18.728,38.486,18.754,38.499,18.697,38.609z M19.008,38.268
		c-0.444-0.311-0.5-0.355-0.855-0.718c-0.062-0.063-0.215-0.2-0.267-0.275c0.05-0.035,0.13-0.039,0.191-0.042
		c0.216-0.012,0.396,0.007,0.592,0.065c0.263,0.077,0.475,0.192,0.678,0.332c0.196,0.134,0.361,0.275,0.523,0.421
		c0.139,0.127,0.372,0.385,0.484,0.476C20.343,39.185,19.151,38.367,19.008,38.268z M21.847,38.651
		c-0.462,0.055-1.245-0.29-1.568-0.573c-0.092-0.08-0.172-0.176-0.276-0.266c-0.198-0.171-0.311-0.272-0.526-0.416
		c-0.064-0.042-0.046-0.017-0.076-0.073c0.584-0.207,0.943-0.04,1.47,0.301c0.581,0.376,0.567,0.387,1.204,0.734
		C22.089,38.573,22.046,38.628,21.847,38.651z M22.317,38.188c-0.084-0.07-0.215-0.115-0.312-0.176l-0.597-0.416
		c-0.05-0.038-0.085-0.065-0.138-0.107c-0.065-0.052-0.108-0.073-0.143-0.137c0.604-0.228,0.967-0.105,1.554,0.209
		c0.22,0.118,0.42,0.24,0.636,0.36l0.498,0.254c0.041,0.032,0.035,0.022,0.038,0.094C23.875,38.842,22.531,38.366,22.317,38.188z
		 M25.367,38.259c-0.569,0.099-1.5-0.347-1.974-0.623l-0.566-0.359c-0.071-0.048-0.046-0.017-0.073-0.081
		c0.213-0.163,0.398-0.249,0.776-0.173c0.275,0.056,0.507,0.159,0.733,0.265c0.226,0.106,0.442,0.221,0.661,0.335
		c0.229,0.119,0.445,0.216,0.667,0.326C25.607,38.166,25.563,38.225,25.367,38.259z M26.949,37.832
		c-0.463,0.078-1.594-0.287-1.963-0.478c-0.111-0.056-0.216-0.111-0.323-0.166c-0.096-0.05-0.265-0.107-0.33-0.176
		c0.348-0.282,1.11-0.186,1.533-0.053c0.504,0.16,0.849,0.365,1.28,0.574C27.164,37.739,27.131,37.802,26.949,37.832z M28.88,36.968
		c-0.096,0.093-0.251,0.152-0.405,0.192c-0.523,0.138-1.013,0.089-1.535-0.044c-0.177-0.046-0.734-0.393-1.284-0.486
		c0.059-0.161,0.37-0.339,0.602-0.386c0.703-0.142,1.676,0.285,2.588,0.309C28.911,36.675,29.03,36.82,28.88,36.968z M30.243,36.218
		c-0.3,0.115-0.82,0.156-1.172,0.107c-0.063-0.009-0.07-0.02-0.106-0.031c-0.073-0.022-0.186-0.009-0.257-0.022
		c-0.165-0.026-0.326-0.059-0.484-0.095c-0.073-0.016-0.147-0.036-0.223-0.055l-0.611-0.175c-0.055-0.025-0.025-0.007-0.053-0.036
		c0.142-0.135,0.213-0.301,0.534-0.427c0.527-0.208,1.196-0.071,1.739,0c0.313,0.04,0.576,0.06,0.901,0.082
		C30.693,35.864,30.668,36.057,30.243,36.218z M30.759,35.293c-0.703,0.001-1.249-0.129-1.871-0.252
		c0.02-0.272,0.273-0.481,0.494-0.562c0.578-0.21,1.736-0.031,2.397,0.023c0.301,0.025,0.331-0.045,0.412,0.138
		C32.426,35.172,31.194,35.291,30.759,35.293z M32.263,34.137c-0.641,0.065-0.824,0.075-1.446,0.008
		c-0.169-0.018-0.323-0.02-0.493-0.033c0.167-0.408,0.726-0.683,1.269-0.778c0.312-0.055,0.644-0.059,0.983-0.048l0.718,0.054
		c0.119,0.01,0.135-0.006,0.186,0.079C33.816,33.972,32.596,34.103,32.263,34.137z M33.635,32.957
		c-0.571,0.127-0.931,0.047-1.531,0.06c-0.181,0.003-0.353,0.037-0.516,0.036c0.038-0.278,0.281-0.515,0.475-0.624
		c0.461-0.258,1.231-0.278,1.811-0.358c0.166-0.023,0.301-0.047,0.457-0.082c0.221-0.05,0.246-0.117,0.388,0.034
		C35.104,32.429,33.996,32.874,33.635,32.957z M35.722,31.233c-0.246,0.171-0.644,0.333-0.969,0.395
		c-0.114,0.022-0.125,0-0.244,0.037c-0.322,0.099-1.191,0.131-1.542,0.135c0.091-0.59,0.724-0.856,1.226-0.981
		c0.469-0.117,0.901-0.164,1.364-0.277c0.207-0.051,0.274-0.128,0.409,0.022C36.215,30.84,35.891,31.115,35.722,31.233z
		 M36.059,30.103c-0.451,0.161-1.4,0.367-1.933,0.364c-0.011-0.411,0.144-0.599,0.39-0.756c0.524-0.332,1.679-0.519,2.406-0.724
		c0.113-0.031,0.137,0.008,0.2,0.073C37.534,29.48,36.388,29.986,36.059,30.103z M37.977,27.542
		c0.518,0.521-1.465,1.263-1.864,1.377c-0.152,0.043-0.31,0.069-0.469,0.108c-0.129,0.033-0.342,0.101-0.467,0.114
		c0.241-1.138,1.616-1.442,2.603-1.67C37.887,27.445,37.912,27.476,37.977,27.542z M38.08,26.551
		c-0.187,0.241-0.347,0.388-0.608,0.565c-0.39,0.263-0.373,0.234-0.786,0.367c-0.203,0.066-0.807,0.342-0.824,0.343
		c-0.052-1.048,1.153-1.344,2.026-2.025c0.132-0.103,0.201-0.211,0.401-0.055C38.533,25.935,38.176,26.426,38.08,26.551z
		 M38.663,24.741c-0.351,0.494-0.706,0.641-0.758,0.693c-0.056,0.056-0.091,0.083-0.165,0.131c-0.121,0.08-0.237,0.15-0.369,0.225
		c-0.146,0.084-0.65,0.374-0.8,0.401c-0.129-0.75,0.449-1.211,0.825-1.495c0.347-0.262,0.663-0.457,1.015-0.748
		c0.081-0.066,0.148-0.213,0.383-0.036C39.056,24.109,38.788,24.565,38.663,24.741z M39.126,22.024
		c0.548,0.264-0.411,1.279-0.633,1.482c-0.3,0.274-1.052,0.84-1.428,0.999c-0.207-0.2-0.128-0.631,0.058-0.902
		c0.225-0.329,0.486-0.516,0.765-0.754c0.28-0.24,0.751-0.563,1.008-0.809C38.971,21.967,39.009,21.968,39.126,22.024z
		 M38.09,22.352c-0.218,0.166-0.432,0.351-0.641,0.511l-0.024-0.049c-0.089-0.263,0.008-0.684,0.109-0.912
		c0.272-0.615,0.861-1.107,1.376-1.508c0.133-0.103,0.192-0.199,0.392-0.084C39.838,20.622,38.382,22.129,38.09,22.352z"/>
	<path class="st0" d="M35.032,19.672c-0.199-0.043-0.358-0.085-0.476-0.126l0.015,0.586l1.186-0.029l-0.009-0.359
		C35.47,19.739,35.232,19.715,35.032,19.672"/>
	<path class="st0" d="M19.201,34.508c0-0.156-0.105-0.277-0.28-0.277c-0.169,0-0.281,0.121-0.281,0.277
		c0,0.163,0.112,0.28,0.281,0.28C19.105,34.788,19.201,34.68,19.201,34.508"/>
	<path class="st0" d="M34.989,17.617c-0.209,0.027-0.358,0.076-0.446,0.148c-0.089,0.073-0.124,0.179-0.106,0.318
		c0.018,0.141,0.079,0.236,0.182,0.283c0.103,0.047,0.26,0.057,0.469,0.031c0.21-0.027,0.359-0.076,0.446-0.148
		c0.089-0.071,0.124-0.177,0.106-0.319c-0.018-0.141-0.079-0.235-0.182-0.282C35.355,17.602,35.198,17.592,34.989,17.617"/>
</g>
</svg>
