<?xml version="1.0" encoding="utf-8"?>
<!-- Generator: Adobe Illustrator 22.0.1, SVG Export Plug-In . SVG Version: 6.00 Build 0)  -->
<svg version="1.1" id="Слой_1" xmlns="http://www.w3.org/2000/svg" xmlns:xlink="http://www.w3.org/1999/xlink" x="0px" y="0px"
	 viewBox="0 0 39.69 39.69" style="enable-background:new 0 0 39.69 39.69;" xml:space="preserve">
<style type="text/css">
	.st0{fill:#4C5567;}
	.st1{fill-rule:evenodd;clip-rule:evenodd;fill:#4C5567;}
	.st2{fill:#FFFFFF;}
</style>
<g>
	<g>
		<path class="st0" d="M38.185,39.685H1.5c-0.675,0-1.225-0.549-1.225-1.224V1.224C0.276,0.549,0.825,0,1.5,0h36.684
			c0.675,0,1.225,0.549,1.225,1.224v37.237C39.409,39.136,38.86,39.685,38.185,39.685z M2.118,37.844h35.449V1.841H2.118V37.844z"/>
	</g>
	<g>
		<path class="st0" d="M8.615,7.124c0.797,0,1.42,0.385,1.869,1.154c0.535,0.91,0.803,2.421,0.803,4.531
			c0,2.105-0.27,3.617-0.808,4.538c-0.445,0.759-1.066,1.138-1.863,1.138c-0.801,0-1.446-0.416-1.936-1.248
			c-0.491-0.832-0.736-2.316-0.736-4.45c0-2.095,0.27-3.602,0.808-4.523C7.197,7.504,7.818,7.124,8.615,7.124z M8.615,8.893
			c-0.191,0-0.361,0.082-0.511,0.246c-0.149,0.165-0.265,0.46-0.347,0.884c-0.109,0.552-0.163,1.48-0.163,2.785
			c0,1.305,0.048,2.202,0.146,2.69c0.097,0.488,0.22,0.813,0.367,0.975c0.148,0.162,0.318,0.243,0.508,0.243s0.361-0.082,0.51-0.247
			c0.15-0.164,0.266-0.459,0.348-0.884c0.108-0.547,0.163-1.472,0.163-2.777c0-1.306-0.049-2.202-0.146-2.69
			C9.394,9.63,9.271,9.304,9.123,9.139C8.976,8.975,8.806,8.893,8.615,8.893z"/>
		<path class="st0" d="M12.678,18.295v-2.133h1.577v2.133H12.678z"/>
		<path class="st0" d="M18.201,7.124c0.797,0,1.42,0.385,1.869,1.154c0.535,0.91,0.803,2.421,0.803,4.531
			c0,2.105-0.27,3.617-0.808,4.538c-0.445,0.759-1.066,1.138-1.863,1.138c-0.801,0-1.446-0.416-1.936-1.248
			c-0.491-0.832-0.736-2.316-0.736-4.45c0-2.095,0.27-3.602,0.808-4.523C16.782,7.504,17.404,7.124,18.201,7.124z M18.201,8.893
			c-0.191,0-0.361,0.082-0.511,0.246c-0.149,0.165-0.265,0.46-0.347,0.884c-0.109,0.552-0.163,1.48-0.163,2.785
			c0,1.305,0.048,2.202,0.146,2.69c0.097,0.488,0.22,0.813,0.367,0.975c0.148,0.162,0.318,0.243,0.508,0.243s0.361-0.082,0.51-0.247
			c0.15-0.164,0.266-0.459,0.348-0.884c0.108-0.547,0.163-1.472,0.163-2.777c0-1.306-0.049-2.202-0.146-2.69
			s-0.22-0.814-0.368-0.979C18.561,8.975,18.392,8.893,18.201,8.893z"/>
		<path class="st0" d="M24.593,7.124c0.797,0,1.42,0.385,1.869,1.154c0.535,0.91,0.803,2.421,0.803,4.531
			c0,2.105-0.27,3.617-0.808,4.538c-0.445,0.759-1.066,1.138-1.863,1.138c-0.801,0-1.446-0.416-1.936-1.248
			c-0.491-0.832-0.736-2.316-0.736-4.45c0-2.095,0.27-3.602,0.808-4.523C23.175,7.504,23.796,7.124,24.593,7.124z M24.593,8.893
			c-0.191,0-0.361,0.082-0.511,0.246c-0.149,0.165-0.265,0.46-0.347,0.884c-0.109,0.552-0.163,1.48-0.163,2.785
			c0,1.305,0.048,2.202,0.146,2.69c0.097,0.488,0.22,0.813,0.367,0.975c0.148,0.162,0.318,0.243,0.508,0.243
			c0.191,0,0.361-0.082,0.51-0.247c0.15-0.164,0.266-0.459,0.348-0.884c0.108-0.547,0.163-1.472,0.163-2.777
			c0-1.306-0.049-2.202-0.146-2.69c-0.097-0.488-0.22-0.814-0.368-0.979C24.953,8.975,24.784,8.893,24.593,8.893z"/>
		<path class="st0" d="M28.342,15.434l1.572-0.22c0.045,0.481,0.178,0.861,0.399,1.142c0.221,0.281,0.475,0.421,0.763,0.421
			c0.33,0,0.608-0.181,0.836-0.542s0.343-0.907,0.343-1.635c0-0.683-0.114-1.195-0.34-1.537c-0.226-0.342-0.521-0.513-0.884-0.513
			c-0.453,0-0.859,0.271-1.218,0.812l-1.28-0.251l0.808-5.79h4.17v1.996h-2.974l-0.247,1.89c0.351-0.238,0.711-0.357,1.077-0.357
			c0.699,0,1.293,0.344,1.779,1.032c0.486,0.688,0.73,1.581,0.73,2.679c0,0.916-0.196,1.733-0.589,2.452
			c-0.535,0.982-1.278,1.472-2.228,1.472c-0.759,0-1.378-0.276-1.858-0.827C28.722,17.106,28.436,16.365,28.342,15.434z"/>
	</g>
	<g>
		<rect x="5.461" y="24.815" class="st1" width="28.763" height="10.108"/>
	</g>
	<g>
		<path class="st2" d="M15.435,27.247h3.694v5.273h-1.065v-4.381h-1.586v2.252c0,0.645-0.021,1.095-0.064,1.351
			c-0.044,0.255-0.148,0.454-0.315,0.597s-0.427,0.214-0.782,0.214c-0.125,0-0.352-0.012-0.68-0.036v-0.824l0.237,0.004
			c0.223,0,0.373-0.03,0.449-0.09c0.077-0.06,0.115-0.207,0.115-0.442l-0.004-0.907V27.247z"/>
		<path class="st2" d="M20.244,27.247h1.064v2.244c0.237-0.024,0.398-0.085,0.482-0.183c0.084-0.098,0.213-0.372,0.388-0.82
			c0.221-0.571,0.442-0.926,0.665-1.065c0.221-0.139,0.576-0.209,1.068-0.209c0.024,0,0.075-0.001,0.155-0.003v0.787l-0.151-0.004
			c-0.218,0-0.377,0.027-0.479,0.081c-0.101,0.054-0.182,0.136-0.244,0.246c-0.062,0.11-0.155,0.337-0.278,0.68
			c-0.064,0.183-0.134,0.335-0.21,0.457c-0.076,0.122-0.21,0.237-0.401,0.345c0.237,0.067,0.433,0.203,0.588,0.406
			s0.325,0.492,0.509,0.863l0.719,1.446h-1.252l-0.63-1.363c-0.009-0.019-0.03-0.056-0.061-0.111
			c-0.012-0.019-0.057-0.102-0.133-0.248c-0.137-0.259-0.249-0.421-0.336-0.486c-0.088-0.065-0.222-0.098-0.401-0.101v2.309h-1.064
			V27.247z"/>
	</g>
</g>
</svg>
