<?xml version="1.0" encoding="utf-8"?>
<!-- Generator: Adobe Illustrator 22.0.1, SVG Export Plug-In . SVG Version: 6.00 Build 0)  -->
<svg version="1.1" id="Слой_1" xmlns="http://www.w3.org/2000/svg" xmlns:xlink="http://www.w3.org/1999/xlink" x="0px" y="0px"
	 viewBox="0 0 39.689999 39.689999" style="enable-background:new 0 0 39.689999 39.689999;" xml:space="preserve">
<style type="text/css">
	.st0{fill:#4C5567;}
	.st1{clip-path:url(#SVGID_2_);fill:url(#SVGID_3_);}
	.st2{fill:#FFFFFF;}
</style>
<g>
	<path class="st0" d="M38.184784,39.68504H1.500255c-0.675161,0-1.224137-0.548977-1.224137-1.224136V1.224137
		C0.276118,0.548976,0.825093,0,1.500255,0h36.684528c0.675163,0,1.224136,0.548976,1.224136,1.224137v37.236767
		C39.40892,39.136063,38.859947,39.68504,38.184784,39.68504z M2.117212,37.843945h35.450615V1.841094H2.117212V37.843945z"/>
</g>
<g>
	<g>
		<path class="st0" d="M8.979438,5.774396V4.133001h6.043219v1.283392c-0.498935,0.490515-1.006288,1.194807-1.52206,2.112875
			c-0.515408,0.918068-0.908551,1.893974-1.179067,2.926983c-0.270149,1.033743-0.403394,1.956936-0.399367,2.770312h-1.703991
			c0.029284-1.274607,0.29248-2.574106,0.789217-3.899229c0.496738-1.32439,1.160031-2.508947,1.990247-3.552939H8.979438z"/>
	</g>
	<g>
		<path class="st0" d="M16.519093,13.226564v-1.767319h1.767319v1.767319H16.519093z"/>
	</g>
	<g>
		<path class="st0" d="M19.745146,10.855986l1.760729-0.183028c0.050516,0.399001,0.199135,0.713809,0.446589,0.946621
			s0.532246,0.349217,0.855106,0.349217c0.368984,0,0.681231-0.150083,0.937103-0.449516
			c0.255873-0.300166,0.383627-0.75188,0.383627-1.35514c0-0.565923-0.126656-0.990547-0.380333-1.273875
			C23.494291,8.60767,23.164108,8.46564,22.75742,8.46564c-0.507353,0-0.961994,0.224758-1.364656,0.673543l-1.433842-0.20792
			l0.905622-4.798262h4.672338v1.653841h-3.332939l-0.276739,1.565988c0.394243-0.196938,0.796539-0.295773,1.207619-0.295773
			c0.783726,0,1.448484,0.285524,1.993542,0.855839c0.544691,0.569583,0.817404,1.309749,0.817404,2.219764
			c0,0.758468-0.220001,1.435672-0.660366,2.030879c-0.5996,0.813376-1.431644,1.219698-2.496502,1.219698
			c-0.85108,0-1.544756-0.228418-2.081394-0.685257C20.170868,12.241141,19.849836,11.6269,19.745146,10.855986z"/>
	</g>
	<g>
		<path class="st0" d="M27.058945,10.7674V9.000813h3.470942V10.7674H27.058945z"/>
	</g>
	<g>
		<path class="st0" d="M12.063459,23.722122h-1.766952v-6.660023c-0.645723,0.603992-1.406387,1.050581-2.282725,1.339766v-1.603327
			c0.46123-0.150814,0.961995-0.437071,1.503026-0.858767c0.540665-0.420964,0.911845-0.912944,1.11281-1.474474h1.433841V23.722122
			z"/>
	</g>
	<g>
		<path class="st0" d="M14.641958,21.275404l1.710213-0.207188c0.054543,0.436338,0.201332,0.769449,0.440367,1.000065
			s0.528219,0.345556,0.867918,0.345556c0.364592,0,0.671713-0.138369,0.920998-0.415108
			c0.249649-0.276737,0.374475-0.649384,0.374475-1.119398c0-0.444393-0.119701-0.796539-0.358736-1.056438
			c-0.238668-0.259899-0.530415-0.389482-0.874142-0.389482c-0.226223,0-0.496737,0.043926-0.81118,0.131779l0.195108-1.440063
			c0.478069,0.012445,0.842661-0.090782,1.094141-0.311148s0.377403-0.512478,0.377403-0.877069
			c0-0.310417-0.092245-0.557871-0.276737-0.742363s-0.42975-0.276738-0.735773-0.276738
			c-0.301996,0-0.5597,0.104693-0.773476,0.314809c-0.213778,0.209383-0.343727,0.515408-0.389851,0.918068l-1.628583-0.276737
			c0.113111-0.557871,0.283693-1.002995,0.512479-1.336105c0.228419-0.333843,0.546887-0.595939,0.955772-0.786288
			c0.408518-0.191081,0.866819-0.286256,1.373808-0.286256c0.867918,0,1.563791,0.276738,2.087984,0.830215
			c0.43158,0.452445,0.647552,0.964191,0.647552,1.534506c0,0.808985-0.442196,1.454708-1.326588,1.936438
			c0.528219,0.113476,0.950281,0.366787,1.26692,0.761396c0.316639,0.393875,0.474775,0.869749,0.474775,1.426886
			c0,0.809715-0.295408,1.499365-0.886587,2.068949c-0.591181,0.570314-1.326954,0.855106-2.207319,0.855106
			c-0.83424,0-1.526087-0.239401-2.075171-0.719666C15.048646,22.678862,14.729812,22.051443,14.641958,21.275404z"/>
	</g>
	<g>
		<path class="st0" d="M22.244576,23.722122v-1.767319h1.767319v1.767319H22.244576z"/>
	</g>
	<g>
		<path class="st0" d="M25.470627,21.351543l1.760729-0.183027c0.050516,0.399,0.199135,0.713808,0.446589,0.946621
			c0.247454,0.232811,0.532246,0.349216,0.855106,0.349216c0.368986,0,0.681231-0.150084,0.937105-0.449516
			c0.255873-0.300167,0.383625-0.751879,0.383625-1.355141c0-0.565922-0.126656-0.990547-0.380331-1.273874
			c-0.253677-0.282595-0.58386-0.424625-0.990547-0.424625c-0.507355,0-0.961996,0.22476-1.364658,0.673544l-1.43384-0.20792
			l0.905622-4.798262h4.672338V16.2824h-3.332941l-0.276737,1.565987c0.394241-0.196938,0.796537-0.295773,1.207619-0.295773
			c0.783726,0,1.448483,0.285524,1.99354,0.855839c0.544693,0.569584,0.817404,1.309748,0.817404,2.219763
			c0,0.758469-0.219999,1.435673-0.660364,2.03088c-0.5996,0.813375-1.431646,1.219698-2.496502,1.219698
			c-0.851082,0-1.544758-0.228418-2.081396-0.685257C25.896351,22.7367,25.575319,22.122458,25.470627,21.351543z"/>
	</g>
</g>
<g>
	<g>
		<defs>
			<rect id="SVGID_1_" x="4.263836" y="25.441706" width="31.237488" height="10.977509"/>
		</defs>
		<clipPath id="SVGID_2_">
			<use xlink:href="#SVGID_1_"  style="overflow:visible;"/>
		</clipPath>
		
			<linearGradient id="SVGID_3_" gradientUnits="userSpaceOnUse" x1="-275.666809" y1="441.642365" x2="-274.666809" y2="441.642365" gradientTransform="matrix(31.237801 0 0 10.97745 8615.488281 -4817.176758)">
			<stop  offset="0" style="stop-color:#E42226"/>
			<stop  offset="0.04" style="stop-color:#E63A24"/>
			<stop  offset="0.08" style="stop-color:#E95424"/>
			<stop  offset="0.12" style="stop-color:#EC6B20"/>
			<stop  offset="0.15" style="stop-color:#EF801C"/>
			<stop  offset="0.19" style="stop-color:#F59E12"/>
			<stop  offset="0.23" style="stop-color:#FBBB05"/>
			<stop  offset="0.27" style="stop-color:#FFD603"/>
			<stop  offset="0.31" style="stop-color:#FFEC0D"/>
			<stop  offset="0.35" style="stop-color:#CAD518"/>
			<stop  offset="0.4" style="stop-color:#98C32E"/>
			<stop  offset="0.45" style="stop-color:#4EAD3A"/>
			<stop  offset="0.5" style="stop-color:#149947"/>
			<stop  offset="0.55" style="stop-color:#11996E"/>
			<stop  offset="0.59" style="stop-color:#119B95"/>
			<stop  offset="0.64" style="stop-color:#0E9DBC"/>
			<stop  offset="0.68" style="stop-color:#2A9DD8"/>
			<stop  offset="0.72" style="stop-color:#1E88C9"/>
			<stop  offset="0.76" style="stop-color:#1374BA"/>
			<stop  offset="0.8" style="stop-color:#1F5AA6"/>
			<stop  offset="0.83" style="stop-color:#33408F"/>
			<stop  offset="0.88" style="stop-color:#3D3D8D"/>
			<stop  offset="0.92" style="stop-color:#463A8B"/>
			<stop  offset="0.96" style="stop-color:#4F3688"/>
			<stop  offset="1" style="stop-color:#573286"/>
		</linearGradient>
		<rect x="4.263836" y="25.441736" class="st1" width="31.237457" height="10.977478"/>
	</g>
	<g>
		<path class="st2" d="M12.529064,28.869913h1.359375l1.03125,2.890625l1.039063-2.890625h1.355469v4.148436h-0.933594v-2.730467
			l-1.011719,2.730467h-0.9375l-0.964859-2.730467v2.730467h-0.937485V28.869913z"/>
		<path class="st2" d="M18.372814,28.869913h1.093735v1.695313c0.181656-0.020508,0.310562-0.076172,0.386734-0.167969
			c0.075195-0.09082,0.166016-0.290039,0.273438-0.597656c0.140625-0.408203,0.293945-0.669922,0.460938-0.785156
			c0.166016-0.114258,0.384766-0.171875,0.65625-0.171875c0.083008,0,0.227539,0.006836,0.433594,0.019531l0.003906,0.726563
			c-0.289063,0-0.474609,0.027344-0.554688,0.082031c-0.081055,0.057617-0.167969,0.228516-0.261719,0.511719
			c-0.12793,0.382813-0.311523,0.619141-0.550781,0.707031c0.345703,0.09668,0.638672,0.397461,0.878906,0.902344
			c0.012695,0.026367,0.027344,0.053711,0.042969,0.082031l0.613281,1.144529h-1.179688l-0.546875-1.199217
			c-0.112305-0.242188-0.208984-0.397461-0.291016-0.466797c-0.082031-0.068359-0.204102-0.103516-0.36525-0.103516v1.769529
			h-1.093735V28.869913z"/>
		<path class="st2" d="M22.450939,28.869913h1.359375l1.031235,2.890625l1.039078-2.890625h1.355469v4.148436h-0.933594v-2.730467
			l-1.011719,2.730467h-0.9375l-0.964844-2.730467v2.730467h-0.9375V28.869913z"/>
	</g>
</g>
</svg>
