<?xml version="1.0" encoding="utf-8"?>
<!-- Generator: Adobe Illustrator 22.0.1, SVG Export Plug-In . SVG Version: 6.00 Build 0)  -->
<svg version="1.1" id="Слой_1" xmlns="http://www.w3.org/2000/svg" xmlns:xlink="http://www.w3.org/1999/xlink" x="0px" y="0px"
	 viewBox="0 0 39.689999 39.689999" style="enable-background:new 0 0 39.689999 39.689999;" xml:space="preserve">
<style type="text/css">
	.st0{fill:#4C5567;}
	.st1{clip-path:url(#SVGID_2_);fill:url(#SVGID_3_);}
	.st2{fill:#FFFFFF;}
</style>
<g>
	<path class="st0" d="M38.184784,39.68504H1.500255c-0.675161,0-1.224137-0.548977-1.224137-1.224136V1.224137
		C0.276118,0.548976,0.825093,0,1.500255,0h36.684528c0.675163,0,1.224136,0.548976,1.224136,1.224137v37.236767
		C39.40892,39.136063,38.859947,39.68504,38.184784,39.68504z M2.117212,37.843945h35.450615V1.841094H2.117212V37.843945z"/>
</g>
<g>
	<g>
		<defs>
			<rect id="SVGID_1_" x="4.263836" y="25.441706" width="31.237488" height="10.977509"/>
		</defs>
		<clipPath id="SVGID_2_">
			<use xlink:href="#SVGID_1_"  style="overflow:visible;"/>
		</clipPath>
		
			<linearGradient id="SVGID_3_" gradientUnits="userSpaceOnUse" x1="-275.666809" y1="441.642365" x2="-274.666809" y2="441.642365" gradientTransform="matrix(31.237801 0 0 10.97745 8615.488281 -4817.176758)">
			<stop  offset="0" style="stop-color:#E42226"/>
			<stop  offset="0.04" style="stop-color:#E63A24"/>
			<stop  offset="0.08" style="stop-color:#E95424"/>
			<stop  offset="0.12" style="stop-color:#EC6B20"/>
			<stop  offset="0.15" style="stop-color:#EF801C"/>
			<stop  offset="0.19" style="stop-color:#F59E12"/>
			<stop  offset="0.23" style="stop-color:#FBBB05"/>
			<stop  offset="0.27" style="stop-color:#FFD603"/>
			<stop  offset="0.31" style="stop-color:#FFEC0D"/>
			<stop  offset="0.35" style="stop-color:#CAD518"/>
			<stop  offset="0.4" style="stop-color:#98C32E"/>
			<stop  offset="0.45" style="stop-color:#4EAD3A"/>
			<stop  offset="0.5" style="stop-color:#149947"/>
			<stop  offset="0.55" style="stop-color:#11996E"/>
			<stop  offset="0.59" style="stop-color:#119B95"/>
			<stop  offset="0.64" style="stop-color:#0E9DBC"/>
			<stop  offset="0.68" style="stop-color:#2A9DD8"/>
			<stop  offset="0.72" style="stop-color:#1E88C9"/>
			<stop  offset="0.76" style="stop-color:#1374BA"/>
			<stop  offset="0.8" style="stop-color:#1F5AA6"/>
			<stop  offset="0.83" style="stop-color:#33408F"/>
			<stop  offset="0.88" style="stop-color:#3D3D8D"/>
			<stop  offset="0.92" style="stop-color:#463A8B"/>
			<stop  offset="0.96" style="stop-color:#4F3688"/>
			<stop  offset="1" style="stop-color:#573286"/>
		</linearGradient>
		<rect x="4.263836" y="25.441736" class="st1" width="31.237457" height="10.977478"/>
	</g>
	<g>
		<path class="st2" d="M12.529064,28.869913h1.359375l1.03125,2.890625l1.039063-2.890625h1.355469v4.148436h-0.933594v-2.730467
			l-1.011719,2.730467h-0.9375l-0.964859-2.730467v2.730467h-0.937485V28.869913z"/>
		<path class="st2" d="M18.372814,28.869913h1.093735v1.695313c0.181656-0.020508,0.310562-0.076172,0.386734-0.167969
			c0.075195-0.09082,0.166016-0.290039,0.273438-0.597656c0.140625-0.408203,0.293945-0.669922,0.460938-0.785156
			c0.166016-0.114258,0.384766-0.171875,0.65625-0.171875c0.083008,0,0.227539,0.006836,0.433594,0.019531l0.003906,0.726563
			c-0.289063,0-0.474609,0.027344-0.554688,0.082031c-0.081055,0.057617-0.167969,0.228516-0.261719,0.511719
			c-0.12793,0.382813-0.311523,0.619141-0.550781,0.707031c0.345703,0.09668,0.638672,0.397461,0.878906,0.902344
			c0.012695,0.026367,0.027344,0.053711,0.042969,0.082031l0.613281,1.144529h-1.179688l-0.546875-1.199217
			c-0.112305-0.242188-0.208984-0.397461-0.291016-0.466797c-0.082031-0.068359-0.204102-0.103516-0.36525-0.103516v1.769529
			h-1.093735V28.869913z"/>
		<path class="st2" d="M22.450939,28.869913h1.359375l1.031235,2.890625l1.039078-2.890625h1.355469v4.148436h-0.933594v-2.730467
			l-1.011719,2.730467h-0.9375l-0.964844-2.730467v2.730467h-0.9375V28.869913z"/>
	</g>
</g>
<g>
	<g>
		<path class="st0" d="M6.323301,13.318193c-0.561097-0.236488-0.969331-0.562446-1.223803-0.976974
			c-0.255371-0.414079-0.383057-0.868621-0.383057-1.363178c0-0.844342,0.294935-1.542117,0.884807-2.092874
			c0.589871-0.551206,1.42792-0.826359,2.514147-0.826359c1.076335,0,1.911686,0.275153,2.506053,0.826359
			c0.595266,0.550756,0.892,1.248531,0.892,2.092874c0,0.525129-0.136677,0.99271-0.409133,1.401844
			c-0.273355,0.409583-0.656411,0.722053-1.150969,0.938309c0.628537,0.252673,1.106009,0.620893,1.433315,1.10466
			c0.326407,0.484216,0.490061,1.042615,0.490061,1.676098c0,1.045313-0.333601,1.89505-0.999904,2.548765
			c-0.667202,0.653713-1.553807,0.98102-2.660715,0.98102c-1.030476,0-1.887408-0.270657-2.572594-0.811073
			c-0.808375-0.638428-1.212113-1.513792-1.212113-2.626095c0-0.612802,0.151964-1.175247,0.454992-1.687788
			C5.190317,13.99169,5.669588,13.596494,6.323301,13.318193z M6.57058,15.982955c0,0.597514,0.15285,1.063296,0.459488,1.398246
			c0.306625,0.334501,0.688783,0.501751,1.147372,0.501751c0.447799,0,0.818266-0.160955,1.111403-0.482418
			c0.294037-0.321911,0.440605-0.786795,0.440605-1.394199c0-0.530525-0.149266-0.956743-0.447799-1.278205
			c-0.298532-0.321911-0.677093-0.482867-1.135682-0.482867c-0.530524,0-0.925271,0.182986-1.185137,0.548509
			C6.700963,15.159293,6.57058,15.555838,6.57058,15.982955z M6.7711,11.132703c0,0.432512,0.122291,0.76971,0.366871,1.011593
			c0.244581,0.242332,0.570089,0.363275,0.977424,0.363275c0.41183,0,0.740935-0.122291,0.988214-0.366871
			c0.247278-0.244581,0.371367-0.583128,0.371367-1.01564c0-0.406885-0.122291-0.732393-0.366871-0.977424
			C8.863524,9.903504,8.539815,9.780765,8.138774,9.780765c-0.417226,0-0.749928,0.123639-0.996329,0.370917
			C6.895189,10.39896,6.7711,10.725818,6.7711,11.132703z"/>
	</g>
	<g>
		<path class="st0" d="M13.475491,16.407824v-2.170204h4.263079v2.170204H13.475491z"/>
	</g>
	<g>
		<path class="st0" d="M24.079685,19.427767h-2.169756v-8.179518c-0.793089,0.741835-1.727352,1.289893-2.803686,1.645525v-1.969685
			c0.566492-0.185234,1.181541-0.536819,1.846045-1.054305c0.663605-0.517486,1.119497-1.121295,1.366776-1.810976h1.760622
			V19.427767z"/>
	</g>
	<g>
		<path class="st0" d="M31.579861,19.427767V17.14921h-4.634445v-1.899998l4.912296-7.190404h1.822666v7.182761h1.406342v1.90764
			h-1.406342v2.278557H31.579861z M31.579861,15.24157v-3.869681l-2.603167,3.869681H31.579861z"/>
	</g>
</g>
</svg>
