<?xml version="1.0" encoding="utf-8"?>
<!-- Generator: Adobe Illustrator 22.0.1, SVG Export Plug-In . SVG Version: 6.00 Build 0)  -->
<svg version="1.1" id="Слой_1" xmlns="http://www.w3.org/2000/svg" xmlns:xlink="http://www.w3.org/1999/xlink" x="0px" y="0px"
	 viewBox="0 0 39.69 39.69" style="enable-background:new 0 0 39.69 39.69;" xml:space="preserve">
<style type="text/css">
	.st0{fill:#4C5567;}
</style>
<g>
	<g>
		<g>
			<path class="st0" d="M28.409,13.436l-8.331-2.829c-0.197-0.038-0.357-0.038-0.512,0L11.23,13.44
				c-0.626,0.192-0.658,0.662-0.66,0.745v0.013v10.887c0,0.315,0.198,0.592,0.512,0.709l8.483,3.273
				c0.152,0.064,0.474,0.038,0.553,0l8.483-3.269c0.315-0.118,0.513-0.395,0.513-0.709V14.198
				C29.114,13.963,28.97,13.508,28.409,13.436z M19.054,27.217l-6.944-2.681v-9.193l6.944,2.643V27.217z M19.842,16.607
				l-6.235-2.371l6.235-2.089l6.234,2.089L19.842,16.607z M27.574,24.536l-6.943,2.681V18.01l6.943-2.666V24.536z"/>
		</g>
		<g>
			<path class="st0" d="M17.471,25.206c-0.214-0.082-0.418-0.275-0.613-0.578c-0.193-0.301-0.343-0.651-0.451-1.049
				c-0.189,0.277-0.377,0.555-0.565,0.833c0.186,0.576,0.422,1.053,0.708,1.434c0.287,0.382,0.589,0.632,0.904,0.753
				c0.451,0.175,0.829,0.091,1.136-0.252c0.307-0.342,0.462-0.994,0.462-1.954c0-0.646-0.113-1.228-0.337-1.744
				c-0.224-0.516-0.561-0.968-1.008-1.356c-0.327-0.284-0.56-0.546-0.7-0.784c-0.141-0.238-0.211-0.53-0.211-0.874
				c0-0.381,0.073-0.639,0.22-0.774c0.146-0.134,0.321-0.162,0.523-0.086c0.196,0.075,0.379,0.245,0.545,0.511
				c0.165,0.267,0.294,0.578,0.384,0.931c0.183-0.267,0.366-0.536,0.55-0.805c-0.141-0.509-0.345-0.941-0.613-1.296
				c-0.267-0.354-0.548-0.588-0.841-0.699c-0.417-0.158-0.773-0.068-1.068,0.267c-0.296,0.336-0.443,0.946-0.443,1.831
				c0,0.393,0.033,0.747,0.101,1.062c0.067,0.314,0.163,0.584,0.287,0.809c0.124,0.226,0.243,0.412,0.362,0.555
				c0.118,0.144,0.256,0.29,0.414,0.435c0.376,0.344,0.647,0.642,0.807,0.9c0.161,0.259,0.241,0.579,0.241,0.961
				c0,0.442-0.076,0.736-0.228,0.881C17.886,25.264,17.697,25.293,17.471,25.206z"/>
		</g>
		<g>
			<path class="st0" d="M13.73,23.764c-0.214-0.082-0.417-0.274-0.61-0.575c-0.192-0.301-0.342-0.65-0.45-1.047
				c-0.187,0.277-0.375,0.554-0.561,0.832c0.183,0.573,0.419,1.05,0.705,1.43c0.285,0.38,0.585,0.629,0.898,0.75
				c0.449,0.173,0.826,0.09,1.132-0.252c0.306-0.342,0.46-0.993,0.46-1.951c0-0.645-0.113-1.225-0.336-1.74
				c-0.224-0.514-0.559-0.965-1.004-1.352c-0.326-0.283-0.559-0.544-0.698-0.781c-0.14-0.237-0.21-0.528-0.21-0.871
				c0-0.381,0.072-0.639,0.217-0.773c0.146-0.134,0.321-0.162,0.522-0.086c0.196,0.075,0.377,0.245,0.542,0.51
				c0.165,0.265,0.294,0.576,0.383,0.929c0.182-0.267,0.365-0.536,0.547-0.804c-0.141-0.508-0.343-0.938-0.609-1.291
				c-0.267-0.353-0.546-0.586-0.838-0.697c-0.415-0.158-0.77-0.068-1.064,0.267c-0.294,0.335-0.44,0.945-0.44,1.827
				c0,0.393,0.033,0.746,0.1,1.06c0.067,0.314,0.163,0.583,0.285,0.808c0.124,0.225,0.244,0.41,0.361,0.553
				c0.118,0.143,0.255,0.288,0.412,0.433c0.374,0.342,0.644,0.64,0.803,0.897c0.16,0.258,0.24,0.578,0.24,0.958
				c0,0.441-0.075,0.735-0.227,0.879C14.141,23.823,13.954,23.85,13.73,23.764z"/>
		</g>
	</g>
	<g>
		<path class="st0" d="M38.185,39.685H1.5c-0.674,0-1.224-0.549-1.224-1.224V1.224C0.276,0.549,0.825,0,1.5,0h36.685
			c0.675,0,1.225,0.549,1.225,1.224v37.237C39.409,39.136,38.86,39.685,38.185,39.685z M2.118,37.844h35.449V1.841H2.118V37.844z"/>
	</g>
</g>
</svg>
