<?xml version="1.0" encoding="utf-8"?>
<!-- Generator: Adobe Illustrator 22.0.1, SVG Export Plug-In . SVG Version: 6.00 Build 0)  -->
<svg version="1.1" id="Слой_1" xmlns="http://www.w3.org/2000/svg" xmlns:xlink="http://www.w3.org/1999/xlink" x="0px" y="0px"
	 viewBox="0 0 39.69 39.69" style="enable-background:new 0 0 39.69 39.69;" xml:space="preserve">
<style type="text/css">
	.st0{fill-rule:evenodd;clip-rule:evenodd;fill:#4C5567;}
	.st1{fill:#4C5567;}
</style>
<g>
	<g>
		<g>
			<path class="st0" d="M27.553,14.885l-7.372-2.503c-0.175-0.034-0.315-0.034-0.453,0l-7.376,2.506
				c-0.554,0.17-0.583,0.586-0.584,0.66v0.011v4.368l1.362,0.454v-3.809l6.144,2.339v8.168l-2.595-1.002l0.079,1.494l2.969,1.146
				c0.134,0.057,0.42,0.034,0.49,0l7.507-2.893c0.279-0.104,0.453-0.349,0.453-0.627v-9.637
				C28.178,15.351,28.05,14.949,27.553,14.885z M19.973,17.69l-5.517-2.097l5.517-1.849l5.517,1.849L19.973,17.69z M26.815,24.707
				l-6.144,2.372v-8.147l6.144-2.359V24.707z"/>
		</g>
		<g>
			<g>
				<path class="st0" d="M28.401,9.146c-1.049,0-1.902,0.853-1.902,1.903c0,1.049,0.853,1.902,1.902,1.902
					c1.05,0,1.903-0.853,1.903-1.902C30.305,9.999,29.451,9.146,28.401,9.146"/>
			</g>
			<g>
				<path class="st0" d="M28.401,8.587c-0.204,0-0.371-0.166-0.371-0.371V7.622c0-0.205,0.167-0.371,0.371-0.371
					c0.205,0,0.371,0.166,0.371,0.371v0.594C28.773,8.421,28.607,8.587,28.401,8.587"/>
			</g>
			<g>
				<path class="st0" d="M28.401,13.511c-0.204,0-0.371,0.166-0.371,0.371v0.594c0,0.204,0.167,0.371,0.371,0.371
					c0.205,0,0.371-0.167,0.371-0.371v-0.594C28.773,13.677,28.607,13.511,28.401,13.511"/>
			</g>
			<g>
				<path class="st0" d="M30.143,9.308c-0.146-0.145-0.146-0.38,0-0.525l0.42-0.421c0.145-0.144,0.38-0.144,0.525,0
					c0.145,0.145,0.145,0.38,0,0.526l-0.42,0.42C30.522,9.452,30.287,9.452,30.143,9.308"/>
			</g>
			<g>
				<path class="st0" d="M26.661,12.79c-0.145-0.146-0.38-0.146-0.525,0l-0.421,0.42c-0.144,0.145-0.144,0.38,0,0.525
					c0.145,0.145,0.38,0.145,0.526,0l0.42-0.42C26.806,13.17,26.806,12.934,26.661,12.79"/>
			</g>
			<g>
				<path class="st0" d="M30.864,11.048c0-0.205,0.166-0.371,0.371-0.371h0.594c0.204,0,0.371,0.167,0.371,0.371
					c0,0.205-0.167,0.371-0.371,0.371h-0.594C31.03,11.42,30.864,11.254,30.864,11.048"/>
			</g>
			<g>
				<path class="st0" d="M25.94,11.048c0-0.205-0.166-0.371-0.371-0.371h-0.594c-0.205,0-0.371,0.167-0.371,0.371
					c0,0.205,0.166,0.371,0.371,0.371h0.594C25.774,11.42,25.94,11.254,25.94,11.048"/>
			</g>
			<g>
				<path class="st0" d="M30.143,12.79c0.144-0.145,0.379-0.145,0.525,0l0.42,0.42c0.145,0.145,0.145,0.38,0,0.525
					c-0.145,0.145-0.38,0.145-0.525,0l-0.42-0.42C29.997,13.17,29.997,12.934,30.143,12.79"/>
			</g>
			<g>
				<path class="st0" d="M26.661,9.308c0.145-0.145,0.145-0.38,0-0.525l-0.42-0.42c-0.145-0.145-0.38-0.145-0.526,0
					c-0.144,0.144-0.144,0.38,0,0.525l0.421,0.42C26.281,9.453,26.516,9.453,26.661,9.308"/>
			</g>
		</g>
		<g>
			<path class="st0" d="M15.126,26.557l-0.193-0.111l-1.168-0.674l0.085,0.137c0.113,0.182,0.057,0.42-0.125,0.533
				c-0.181,0.112-0.42,0.057-0.533-0.125l-0.157-0.252v1.477l0,0.223v0.371c0,0.205-0.166,0.371-0.371,0.371
				c-0.204,0-0.371-0.167-0.371-0.371l0-0.371v-0.223l0-1.534l-0.247,0.461c-0.101,0.189-0.336,0.26-0.524,0.159
				c-0.189-0.101-0.26-0.336-0.159-0.524l0.167-0.312l-1.647,0.951c-0.178,0.103-0.405,0.042-0.507-0.136
				c-0.102-0.177-0.042-0.405,0.136-0.507l1.892-1.093l-0.668,0.022c-0.213,0.007-0.392-0.16-0.399-0.373
				c-0.007-0.213,0.16-0.392,0.373-0.399l0.407-0.013l-1.605-0.927c-0.178-0.103-0.238-0.33-0.136-0.507
				c0.103-0.178,0.329-0.239,0.507-0.136l1.7,0.982l-0.255-0.411c-0.113-0.182-0.057-0.42,0.125-0.533
				c0.181-0.113,0.42-0.057,0.533,0.125l0.308,0.496V21.28c0-0.205,0.167-0.371,0.371-0.371c0.206,0,0.371,0.166,0.372,0.371v1.887
				l0.18-0.336c0.101-0.189,0.336-0.26,0.524-0.159c0.188,0.101,0.26,0.336,0.159,0.524l-0.286,0.534l1.32-0.762l0.257-0.148
				l0.257-0.148c0.177-0.102,0.405-0.041,0.507,0.136c0.103,0.178,0.041,0.405-0.136,0.507l-0.257,0.148l-0.257,0.148l-1.275,0.736
				l0.361-0.012c0.213-0.007,0.392,0.16,0.399,0.373c0.007,0.213-0.16,0.392-0.373,0.399l-0.297,0.01l1.185,0.684l0.193,0.111
				l0.321,0.185c0.177,0.102,0.238,0.33,0.136,0.507c-0.102,0.177-0.33,0.238-0.507,0.136L15.126,26.557z"/>
		</g>
	</g>
	<g>
		<path class="st1" d="M38.185,39.685H1.5c-0.674,0-1.224-0.549-1.224-1.224V1.224C0.276,0.549,0.825,0,1.5,0h36.685
			c0.675,0,1.225,0.549,1.225,1.224v37.237C39.409,39.136,38.86,39.685,38.185,39.685z M2.118,37.844h35.449V1.841H2.118V37.844z"/>
	</g>
</g>
</svg>
