<?xml version="1.0" encoding="utf-8"?>
<!-- Generator: Adobe Illustrator 22.0.1, SVG Export Plug-In . SVG Version: 6.00 Build 0)  -->
<svg version="1.1" id="Слой_1" xmlns="http://www.w3.org/2000/svg" xmlns:xlink="http://www.w3.org/1999/xlink" x="0px" y="0px"
	 viewBox="0 0 39.69 39.69" style="enable-background:new 0 0 39.69 39.69;" xml:space="preserve">
<style type="text/css">
	.st0{fill:#4C5567;}
	.st1{fill-rule:evenodd;clip-rule:evenodd;fill:#4C5567;}
</style>
<g>
	<g>
		<path class="st0" d="M38.185,39.685H1.5c-0.674,0-1.224-0.549-1.224-1.224V1.224C0.276,0.549,0.825,0,1.5,0h36.685
			c0.675,0,1.225,0.549,1.225,1.224v37.237C39.409,39.136,38.86,39.685,38.185,39.685z M2.118,37.844h35.449V1.841H2.118V37.844z"/>
	</g>
	<g>
		<g>
			<g>
				<path class="st1" d="M28.216,13.579l-8.144-2.765c-0.083-0.016-0.158-0.022-0.23-0.024v1.529l6.094,2.042l-6.094,2.318v0.852
					l2.316-0.074l5.243-2.013v1.531v2.943v4.511l-6.787,2.621v-1.961v-4.801v-0.215l-0.925,1.103l0.138,7.719
					c0.122,0,0.242-0.015,0.286-0.036l8.292-3.195c0.307-0.115,0.501-0.385,0.501-0.694v-0.752v-4.469v-2.774v-2.651
					C28.906,14.094,28.765,13.65,28.216,13.579z"/>
			</g>
			<g>
				<path class="st1" d="M15.804,25.788l-3.52-1.359l-0.019-0.002v-0.878l0.019,0.002v-8.107l3.413,1.299l0.029-1.63l-1.978-0.752
					l2.003-0.671l0.029-1.587l-4.356,1.481c-0.612,0.188-0.644,0.647-0.645,0.729v0.012v6.334v2.705v0.904v0.592v0.107
					c0,0.307,0.192,0.579,0.5,0.693l4.525,1.745V25.788z"/>
			</g>
		</g>
		<g>
			<g>
				<path class="st1" d="M13.924,18.564l2.304,1.894c0.193,0.16,0.674,0.476,0.722,0.648c0.37-0.053,0.043,0.061,0.312-0.127
					l2.947-2.414l-2.035-0.008c0.039-2.554,0.482-5.583,1.534-7.868c0.494-1.071,1.663-2.667,3.036-1.228
					c0.425,0.446,0.736,1.047,0.975,1.597c0.389,0.896,0.119,0.97,0.774,1.131c0.661,0.162,0.49,0.116,0.557,0.025
					c-0.355-1.046-1.965-6.072-4.781-4.895c-0.745,0.311-1.304,0.973-1.743,1.631c-1.584,2.371-2.366,6.681-2.376,9.611
					L13.924,18.564z"/>
			</g>
			<g>
				<path class="st1" d="M21.702,32.434l0.436-0.134c0.161-0.187,0.36-0.262,0.592-0.475c0.481-0.443,0.959-1.143,1.244-1.665
					c0.392-0.719,0.867-1.82,1.052-2.642l-0.8-0.19c-0.363,0.453-0.477,1.988-1.695,3.117c-1.315,1.219-2.521-0.8-2.858-1.511
					c-0.761-1.612-1.128-3.652-1.335-5.389c-0.04-0.337-0.073-0.664-0.098-1c-0.045-0.597,0.096-0.88-0.283-0.883h-1.777
					c-0.217,1.335,0.715,5.344,1.221,6.747C17.73,29.315,19.253,33.249,21.702,32.434"/>
			</g>
		</g>
	</g>
</g>
</svg>
