<?xml version="1.0" encoding="utf-8"?>
<!-- Generator: Adobe Illustrator 22.0.1, SVG Export Plug-In . SVG Version: 6.00 Build 0)  -->
<svg version="1.1" id="Слой_1" xmlns="http://www.w3.org/2000/svg" xmlns:xlink="http://www.w3.org/1999/xlink" x="0px" y="0px"
	 viewBox="0 0 39.69 39.69" style="enable-background:new 0 0 39.69 39.69;" xml:space="preserve">
<style type="text/css">
	.st0{fill-rule:evenodd;clip-rule:evenodd;fill:#4C5263;}
	.st1{fill:none;}
	.st2{fill:#4C5263;}
</style>
<g>
	<path class="st0" d="M2.794,17.378c-0.217-0.027-0.364,0.108-0.397,0.374c-0.013,0.108-0.011,0.183-0.005,0.223l0.697,0.085
		c0.016-0.044,0.026-0.1,0.035-0.177C3.158,17.599,3.036,17.408,2.794,17.378z"/>
	<path class="st0" d="M3.667,16.136l0.126-0.51l-0.524,0.022c-0.147,0.007-0.328,0.006-0.473,0.007l-0.002,0.006
		c0.128,0.069,0.294,0.146,0.419,0.216L3.667,16.136z"/>
	<path d="M19.843,19.995"/>
	<rect x="10.318" y="12.179" class="st1" width="19.048" height="15.632"/>
	<path class="st0" d="M10.337,5.478c-0.125-0.18-0.324-0.2-0.544-0.048c-0.09,0.062-0.144,0.113-0.17,0.144l0.4,0.577
		c0.044-0.016,0.092-0.046,0.156-0.09C10.413,5.897,10.475,5.678,10.337,5.478z"/>
	<path class="st0" d="M8.966,8.147C9.232,7.9,9.15,7.505,8.835,7.166C8.544,6.852,8.144,6.723,7.872,6.975
		C7.606,7.222,7.686,7.621,8.001,7.959C8.318,8.301,8.702,8.393,8.966,8.147z"/>
	<path class="st0" d="M16.521,3.067c-0.07-0.13-0.146-0.294-0.209-0.425l-0.007,0.001c-0.007,0.146-0.005,0.329-0.016,0.472
		l-0.039,0.522l0.515-0.104L16.521,3.067z"/>
	<path class="st0" d="M32.066,7.882c0.071-0.13,0.167-0.283,0.243-0.408L32.304,7.47c-0.125,0.074-0.279,0.175-0.404,0.245
		l-0.459,0.254l0.37,0.374L32.066,7.882z"/>
	<path class="st0" d="M18.874,2.97c0.07-0.005,0.144-0.013,0.192-0.023l-0.04-0.643c-0.04-0.005-0.11-0.014-0.219-0.007
		c-0.232,0.014-0.412,0.125-0.397,0.368C18.423,2.881,18.631,2.985,18.874,2.97z"/>
	<path class="st0" d="M27.412,5.777c0.32,0.172,0.667-0.033,0.887-0.441c0.202-0.377,0.196-0.797-0.131-0.973
		c-0.32-0.172-0.671,0.032-0.89,0.44C27.057,5.214,27.095,5.607,27.412,5.777z"/>
	<path class="st0" d="M21.904,3.892c0.077-0.055,0.134-0.144,0.146-0.26c0.014-0.119-0.026-0.212-0.095-0.28
		c-0.087-0.085-0.217-0.131-0.342-0.145c-0.06-0.007-0.123-0.01-0.191-0.007l-0.083,0.739c0.058,0.017,0.132,0.029,0.204,0.037
		C21.673,3.99,21.808,3.962,21.904,3.892z"/>
	<path class="st0" d="M36.164,20.927c0.271,0.012,0.393-0.191,0.404-0.448c0.003-0.077-0.001-0.141-0.005-0.209l-0.75-0.033
		c-0.014,0.059-0.02,0.123-0.023,0.2C35.779,20.699,35.896,20.916,36.164,20.927z"/>
	<path class="st0" d="M19.843,0C8.884,0,0,8.884,0,19.843c0,10.959,8.884,19.842,19.843,19.842s19.842-8.884,19.842-19.842
		C39.685,8.884,30.801,0,19.843,0z M35.314,10.71l-0.798,0.446l0.432,0.774l0.798-0.446l0.262,0.469l-2.076,1.16l-0.262-0.468
		l0.868-0.486l-0.432-0.774l-0.869,0.486l-0.263-0.471l2.076-1.161L35.314,10.71z M34.423,9.293
		c0.165,0.224,0.245,0.427,0.262,0.533l-0.408,0.166c-0.028-0.115-0.085-0.262-0.198-0.414c-0.254-0.344-0.658-0.457-1.083-0.142
		c-0.382,0.283-0.455,0.688-0.17,1.074c0.097,0.131,0.232,0.254,0.329,0.314l-0.289,0.314c-0.098-0.05-0.273-0.197-0.444-0.429
		c-0.489-0.66-0.329-1.305,0.215-1.707C33.288,8.518,33.995,8.714,34.423,9.293z M32.856,7.456l-1.176,2.198l-0.407-0.412
		l0.305-0.56l-0.478-0.485l-0.554,0.309l-0.392-0.397l2.206-1.155L32.856,7.456z M31.427,6.083L29.994,7.98l-0.43-0.324l1.166-1.546
		l-0.672-0.508l-1.167,1.547l-0.431-0.326l1.433-1.897L31.427,6.083z M28.383,3.994c0.643,0.346,0.736,1.016,0.425,1.595
		c-0.369,0.688-1.011,0.881-1.623,0.552c-0.622-0.335-0.734-1.001-0.414-1.598C27.11,3.915,27.763,3.661,28.383,3.994z M25.804,3.32
		c-0.172-0.063-0.39-0.065-0.538-0.049l0.014-0.405c0.189-0.035,0.453-0.035,0.761,0.079c0.489,0.182,0.686,0.533,0.565,0.86
		c-0.103,0.279-0.361,0.393-0.642,0.361l-0.002,0.007c0.264,0.139,0.438,0.422,0.326,0.724c-0.185,0.496-0.751,0.481-1.168,0.326
		c-0.232-0.085-0.464-0.228-0.611-0.404l0.249-0.347c0.08,0.089,0.282,0.256,0.49,0.332c0.254,0.095,0.449,0.046,0.519-0.138
		c0.091-0.249-0.149-0.394-0.356-0.471l-0.211-0.078l0.137-0.371l0.209,0.078c0.228,0.085,0.44,0.042,0.504-0.133
		C26.104,3.544,26.019,3.399,25.804,3.32z M23.368,2.22l1.427,0.343l-0.104,0.429l-0.902-0.217l-0.115,0.481l0.851,0.204
		l-0.102,0.425L23.572,3.68l-0.133,0.548l0.951,0.23l-0.104,0.428l-1.475-0.355L23.368,2.22z M21.031,1.906l1.57,0.177l-0.049,0.435
		L21.515,2.4L21.47,2.806c0.081-0.001,0.194,0.004,0.289,0.016c0.239,0.027,0.481,0.114,0.644,0.267
		c0.151,0.138,0.239,0.336,0.21,0.595c-0.027,0.232-0.134,0.4-0.284,0.507c-0.251,0.177-0.63,0.207-0.991,0.165
		c-0.262-0.029-0.453-0.068-0.57-0.1L21.031,1.906z M17.872,2.648c-0.014-0.222,0.074-0.397,0.215-0.519
		c0.174-0.152,0.46-0.215,0.762-0.234c0.261-0.016,0.512-0.01,0.686,0.007L19.68,4.24l-0.532,0.033l-0.058-0.932l-0.13,0.008
		c-0.106,0.007-0.188,0.044-0.248,0.108c-0.142,0.153-0.183,0.459-0.241,0.657c-0.02,0.072-0.034,0.13-0.072,0.206l-0.57,0.036
		c0.045-0.08,0.078-0.174,0.103-0.275c0.078-0.276,0.117-0.558,0.286-0.741c0.049-0.057,0.117-0.1,0.189-0.136V3.192
		C18.141,3.161,17.893,2.991,17.872,2.648z M15.904,2.313l0.692-0.14l1.194,2.186l-0.568,0.115l-0.301-0.562l-0.668,0.134
		l-0.045,0.632l-0.547,0.111L15.904,2.313z M13.315,3.102l0.311,0.859l0.832-0.303L14.146,2.8l0.504-0.183l0.811,2.235l-0.504,0.183
		l-0.339-0.935l-0.833,0.302l0.34,0.935l-0.508,0.184l-0.811-2.234L13.315,3.102z M12.329,3.5l0.21,0.401l-0.577,0.301l0.895,1.709
		l-0.478,0.251l-0.895-1.709l-0.567,0.296l-0.21-0.4L12.329,3.5z M9.539,5.113c0.272-0.189,0.503-0.272,0.705-0.258
		c0.193,0.012,0.39,0.116,0.522,0.307c0.133,0.192,0.182,0.398,0.142,0.588c-0.052,0.247-0.231,0.466-0.492,0.647
		c-0.058,0.04-0.112,0.073-0.157,0.095l0.485,0.699l-0.438,0.303L8.969,5.568C9.09,5.45,9.269,5.3,9.539,5.113z M7.591,6.652
		c0.536-0.497,1.201-0.367,1.647,0.114C9.77,7.337,9.745,8.006,9.236,8.479C8.719,8.961,8.053,8.851,7.591,8.354
		C7.106,7.831,7.077,7.13,7.591,6.652z M6.351,7.942l1.865,1.474L7.881,9.839l-1.519-1.2L5.839,9.3l1.519,1.201l-0.335,0.423
		L5.158,9.451L6.351,7.942z M4.495,10.429c0.141-0.241,0.296-0.395,0.386-0.452l0.313,0.309c-0.095,0.071-0.208,0.181-0.304,0.345
		c-0.215,0.368-0.16,0.784,0.297,1.051C5.599,11.921,6,11.829,6.242,11.415c0.082-0.14,0.142-0.313,0.158-0.425l0.404,0.141
		c-0.007,0.11-0.074,0.329-0.219,0.578c-0.414,0.71-1.068,0.817-1.652,0.476C4.231,11.776,4.133,11.05,4.495,10.429z M2.337,20.811
		l-0.451,0.002l-0.006-1.827l0.451-0.002l0.002,0.65l1.926-0.007l0.002,0.539l-1.926,0.007L2.337,20.811z M4.28,18.741l-2.327-0.282
		c-0.008-0.168-0.001-0.401,0.039-0.727c0.04-0.329,0.131-0.556,0.276-0.699c0.137-0.135,0.345-0.213,0.576-0.185
		c0.231,0.029,0.417,0.128,0.534,0.286c0.149,0.202,0.194,0.481,0.156,0.796c-0.009,0.07-0.02,0.132-0.032,0.181l0.842,0.102
		L4.28,18.741z M4.837,15.616l-0.635,0.032l-0.164,0.66l0.551,0.311l-0.134,0.54l-2.13-1.275L2.494,15.2l2.482-0.144L4.837,15.616z
		 M5.059,14.821L2.86,13.916l0.206-0.499l0.845,0.347l0.337-0.819l-0.845-0.348l0.204-0.496l2.198,0.905l-0.203,0.496l-0.92-0.378
		l-0.337,0.819l0.92,0.379L5.059,14.821z M19.843,34.214c-7.937,0-14.372-6.435-14.372-14.372S11.905,5.471,19.843,5.471
		s14.372,6.435,14.372,14.372S27.78,34.214,19.843,34.214z M34.413,14.424c-0.245-0.662,0.111-1.234,0.747-1.47
		c0.669-0.248,1.327-0.006,1.571,0.652c0.254,0.685-0.121,1.249-0.737,1.478C35.263,15.355,34.655,15.076,34.413,14.424z
		 M35.113,16.892c-0.172-0.802,0.239-1.322,0.9-1.464c0.791-0.17,1.353,0.301,1.504,1.003c0.059,0.272,0.048,0.491,0.02,0.593
		l-0.44-0.016c0.022-0.117,0.031-0.274-0.009-0.459c-0.089-0.416-0.41-0.686-0.926-0.575c-0.464,0.1-0.698,0.438-0.598,0.906
		c0.034,0.158,0.106,0.326,0.17,0.421l-0.393,0.167C35.272,17.381,35.174,17.175,35.113,16.892z M37.274,18.148l-0.052-0.637
		l0.451-0.037l0.149,1.823l-0.451,0.036l-0.052-0.647l-1.921,0.156l-0.044-0.538L37.274,18.148z M37.794,20.328l-0.823-0.035
		c0.003,0.074,0.01,0.187,0.005,0.29c-0.022,0.51-0.284,0.932-0.812,0.909c-0.226-0.01-0.391-0.091-0.509-0.213
		c-0.222-0.239-0.275-0.64-0.259-1.009c0.011-0.264,0.037-0.461,0.06-0.579l2.362,0.103L37.794,20.328z"/>
	<path class="st0" d="M36.326,13.742c-0.126-0.341-0.525-0.42-0.958-0.259c-0.438,0.162-0.669,0.481-0.543,0.819
		c0.126,0.341,0.523,0.416,0.956,0.255C36.181,14.409,36.454,14.089,36.326,13.742z"/>
	<g>
		<path class="st2" d="M27.88,21.168l-0.095,1.259C27.83,22.009,27.859,21.589,27.88,21.168z"/>
		<path class="st2" d="M25.317,19.377c0.039,0.07,0.07,0.145,0.092,0.224c0.003,0.01,0.007,0.02,0.009,0.031
			c0.021,0.083,0.035,0.169,0.035,0.259c0,0.082-0.011,0.16-0.028,0.235c-0.001,0.004-0.003,0.008-0.004,0.012
			c-0.017,0.073-0.042,0.142-0.074,0.208h1.24v-0.969L25.317,19.377L25.317,19.377z"/>
		<path class="st2" d="M14.362,20.308c-0.029-0.063-0.051-0.129-0.067-0.198c-0.001-0.002-0.002-0.004-0.002-0.007
			c-0.015-0.07-0.025-0.142-0.025-0.215c0-0.09,0.016-0.178,0.039-0.263c0.005-0.017,0.01-0.034,0.016-0.051
			c0.027-0.082,0.062-0.162,0.107-0.235H13.13v0.969H14.362z"/>
		<polygon class="st2" points="27.942,20.346 30.088,20.346 30.021,19.377 28.015,19.377 		"/>
		<path class="st2" d="M27.672,23.346l-1.078,0.669c-0.166,0.942-0.382,1.875-0.667,2.79c-0.88-0.188-1.768-0.332-2.661-0.439v0.955
			c0.783,0.09,1.564,0.208,2.338,0.363c-0.193,0.5-0.404,0.971-0.63,1.416h1.059c0.006,0,0.011-0.003,0.017-0.003
			c0.15-0.318,0.286-0.643,0.408-0.975v-0.483l0.703-0.599c-0.102-0.028-0.201-0.066-0.303-0.093
			C27.228,25.77,27.494,24.565,27.672,23.346z"/>
		<path class="st2" d="M11.968,22.98l-0.274-3.641H9.668l-0.067,0.964l2.161,0.005C11.774,21.203,11.853,22.094,11.968,22.98z"/>
		<path class="st2" d="M19.358,14.04h0.969v-0.515c1.244-0.016,2.484-0.118,3.715-0.289c-0.303-0.352-0.8-0.591-1.255-0.591h-5.885
			c-0.42,0-0.892,0.243-1.197,0.574c1.21,0.175,2.43,0.283,3.654,0.306V14.04z"/>
		<path class="st2" d="M13.11,24.04l-1.095-0.68c0.178,1.214,0.444,2.415,0.813,3.588c-0.113,0.028-0.222,0.068-0.335,0.098
			l0.734,0.625v0.407c0.13,0.358,0.274,0.71,0.437,1.053h1.063c-0.232-0.452-0.448-0.931-0.645-1.44
			c0.785-0.158,1.576-0.278,2.371-0.37v-0.984c-0.001-0.011-0.007-0.021-0.009-0.032c-0.9,0.101-1.797,0.241-2.685,0.424
			C13.483,25.846,13.275,24.947,13.11,24.04z"/>
		<path class="st2" d="M23.481,20.346c-0.033-0.067-0.06-0.136-0.078-0.209c-0.001-0.005-0.003-0.01-0.005-0.015
			c-0.018-0.075-0.03-0.152-0.03-0.232c0-0.087,0.015-0.171,0.036-0.253c0.003-0.012,0.007-0.024,0.011-0.036
			c0.024-0.079,0.056-0.154,0.097-0.225v0h-3.187v-1.632h-0.969v1.593h-3.16c0,0,0,0,0,0c0.044,0.072,0.077,0.15,0.103,0.233
			c0.005,0.015,0.01,0.03,0.014,0.046c0.022,0.086,0.038,0.176,0.038,0.27c0,0.075-0.008,0.148-0.022,0.218
			c0,0.001-0.001,0.002-0.001,0.003c-0.014,0.069-0.035,0.135-0.062,0.198h3.091v1.891h0.969v-1.852H23.481z"/>
		<path class="st2" d="M19.843,5.471c-7.937,0-14.372,6.435-14.372,14.372s6.435,14.372,14.372,14.372s14.372-6.435,14.372-14.372
			C34.204,11.91,27.776,5.481,19.843,5.471z M29.667,10.761c-1.016,0.424-2.063,0.767-3.133,1.027
			c-0.64-1.85-1.717-3.518-3.139-4.864C25.803,7.593,27.975,8.922,29.667,10.761z M16.29,6.924
			c-1.423,1.341-2.502,3.005-3.146,4.851c-1.07-0.26-2.117-0.603-3.133-1.027C11.707,8.913,13.881,7.588,16.29,6.924z
			 M30.332,28.175c-0.773-0.35-1.571-0.636-2.38-0.892l-0.797,0.679v0.117c0.855,0.235,1.699,0.51,2.518,0.852
			c-1.694,1.837-3.869,3.164-6.278,3.83c0.918-0.866,1.69-1.867,2.297-2.964h-1.097c-1.148,1.947-2.63,3.193-4.267,3.403v-6.072
			c0.749,0.009,1.496,0.054,2.241,0.122v-0.945c0-0.003,0.001-0.006,0.001-0.009c-0.745-0.071-1.493-0.122-2.243-0.137v-3.264
			h-0.969v3.225c-0.741,0.009-1.481,0.055-2.219,0.12c0.002,0.02,0.009,0.038,0.01,0.058l0.001,0.019v0.019v0.914
			c0.734-0.067,1.47-0.112,2.208-0.122V33.2c-1.629-0.208-3.104-1.446-4.25-3.372H14.02c0.601,1.084,1.365,2.074,2.27,2.933
			c-2.41-0.668-4.585-1.997-6.278-3.837v-0.039c0.819-0.342,1.662-0.616,2.517-0.852v-0.041l-0.838-0.713
			c-0.793,0.242-1.577,0.512-2.338,0.844c-1.776-2.233-2.788-4.977-2.887-7.829l2.436,0.006l0.067-0.962H6.465
			c0.1-2.851,1.112-5.596,2.887-7.829c1.121,0.507,2.284,0.918,3.475,1.227c-0.41,1.305-0.689,2.644-0.864,3.997
			c0.265,0.426,0.587,1.294,0.798,0.839l0.092-0.191c0.15-1.526,0.447-3.035,0.904-4.503c0.389,0.083,0.78,0.154,1.172,0.221
			c0.196-0.328,0.497-0.614,0.847-0.819c-0.568-0.079-1.134-0.168-1.696-0.28c1.208-3.139,3.107-5.239,5.277-5.516v5.462h0.969
			V6.485c2.17,0.278,4.069,2.384,5.277,5.51c-0.55,0.111-1.104,0.199-1.66,0.278c0.371,0.211,0.678,0.508,0.862,0.849
			c0.375-0.062,0.749-0.127,1.121-0.203c0.443,1.421,0.732,2.883,0.887,4.36l0.147,0.306c0.115,0.251,0.416-0.125,0.796-0.563
			c-0.168-1.455-0.459-2.895-0.9-4.297c1.19-0.293,2.352-0.686,3.475-1.176c1.776,2.233,2.788,4.977,2.887,7.829H30.72l0.067,0.969
			h2.432C33.12,23.198,32.108,25.942,30.332,28.175z"/>
	</g>
	<g>
		<path class="st2" d="M30.343,23.739l-0.425-6.112c0-0.456-0.387-0.843-0.878-0.843c-0.49,0-0.877,0.387-0.877,0.878l-0.425,5.656
			L23.45,25.98c-0.099,0.065-0.165,0.199-0.165,0.326v2.406c0,0.223,0.195,0.387,0.425,0.387h2.341c0.23,0,0.425-0.158,0.425-0.387
			v-1.073l3.51-2.989C30.315,24.39,30.377,24.232,30.343,23.739z"/>
		<path class="st2" d="M13.149,19.014v4.217l0.539,0.335h1.442c0.161,0,0.326-0.161,0.326-0.326v-1.042H24.3v1.045
			c0,0.161,0.13,0.326,0.326,0.326h1.383l0.598-0.372v-4.184c0-0.391-0.065-0.713-0.261-1.138l-2.081-4.322
			c-0.223-0.521-0.878-0.908-1.46-0.908H16.92c-0.552,0-1.2,0.418-1.429,0.908l-2.081,4.322
			C13.214,18.297,13.149,18.589,13.149,19.014z M25.472,19.891c0,0.586-0.459,1.042-1.042,1.042c-0.586,0-1.042-0.49-1.042-1.042
			c0-0.552,0.459-1.042,1.042-1.042C25.012,18.849,25.472,19.305,25.472,19.891z M16.471,14.757c0.261-0.59,0.521-0.716,1.104-0.716
			h4.579c0.586,0,0.847,0.134,1.138,0.716l1.429,2.989h-9.687L16.471,14.757z M15.329,18.846c0.586,0,1.042,0.456,1.042,1.042
			c0,0.586-0.456,1.042-1.042,1.042c-0.586,0-1.042-0.49-1.042-1.042C14.287,19.336,14.743,18.846,15.329,18.846z"/>
		<path class="st2" d="M13.67,29.13h2.376c0.23,0,0.425-0.165,0.425-0.387v-2.406c-0.007-0.127-0.072-0.254-0.168-0.326
			l-4.288-2.663l-0.425-5.656c0.031-0.521-0.387-0.908-0.878-0.908s-0.908,0.387-0.908,0.874l-0.425,6.115
			c-0.031,0.49,0.031,0.648,0.356,0.908l3.51,2.989v1.073C13.245,28.973,13.44,29.13,13.67,29.13z"/>
	</g>
</g>
</svg>
