<?xml version="1.0" encoding="utf-8"?>
<!-- Generator: Adobe Illustrator 22.0.1, SVG Export Plug-In . SVG Version: 6.00 Build 0)  -->
<svg version="1.1" id="Слой_1" xmlns="http://www.w3.org/2000/svg" xmlns:xlink="http://www.w3.org/1999/xlink" x="0px" y="0px"
	 viewBox="0 0 39.69 39.69" style="enable-background:new 0 0 39.69 39.69;" xml:space="preserve">
<style type="text/css">
	.st0{fill:#4C5567;}
</style>
<g>
	<g>
		<path class="st0" d="M31.644,14.868c-1.255-0.627-2.368-1.16-3.935-1.672c0.028-0.178,0.042-0.361,0.042-0.547
			c0-0.835-0.52-1.878-1.591-3.188c-0.735-0.899-1.46-1.589-1.491-1.618c-0.276-0.261-0.707-0.261-0.983,0
			c-0.031,0.029-0.756,0.719-1.491,1.618c-0.793,0.971-1.284,1.795-1.485,2.496c-4.362-0.152-8.406,0.779-12.669,2.911
			c-0.353,0.177-0.496,0.606-0.32,0.959l4.817,9.634c0.158,0.316,0.523,0.469,0.859,0.36c1.064-0.345,2.147-0.602,3.242-0.771
			l1.66,3.31c-0.4,0.39-0.649,0.934-0.649,1.535c0,1.182,0.962,2.144,2.144,2.144s2.144-0.962,2.144-2.144
			c0-1.249-1.074-2.25-2.34-2.134l-1.449-2.888c0.547-0.044,1.096-0.066,1.645-0.066c2.206,0,4.451,0.35,6.493,1.013
			c0.336,0.109,0.702-0.044,0.86-0.36l4.816-9.632C32.14,15.474,31.997,15.044,31.644,14.868z M20.509,29.895
			c0,0.394-0.321,0.715-0.715,0.715c-0.394,0-0.715-0.321-0.715-0.715c0-0.394,0.321-0.715,0.715-0.715
			C20.189,29.18,20.509,29.501,20.509,29.895z M24.178,9.37c1.012,1.058,2.144,2.527,2.144,3.278c0,1.182-0.962,2.144-2.144,2.144
			s-2.144-0.962-2.144-2.144C22.034,11.899,23.166,10.429,24.178,9.37z M26.14,24.278c-2.021-0.591-4.201-0.901-6.345-0.901
			c-0.78,0-1.559,0.042-2.333,0.124l-3.64-7.258c-0.177-0.353-0.606-0.495-0.959-0.318c-0.353,0.177-0.495,0.606-0.318,0.959
			l3.425,6.828c-0.815,0.144-1.624,0.332-2.423,0.567l-4.223-8.446c3.812-1.802,7.453-2.586,11.359-2.448
			c0.341,1.618,1.779,2.836,3.496,2.836c1.278,0,2.4-0.674,3.032-1.685c1.238,0.402,2.184,0.82,3.154,1.293L26.14,24.278z"/>
	</g>
	<g>
		<path class="st0" d="M38.185,39.685H1.5c-0.675,0-1.225-0.549-1.225-1.224V1.224C0.276,0.549,0.825,0,1.5,0h36.684
			c0.675,0,1.225,0.549,1.225,1.224v37.238C39.409,39.136,38.86,39.685,38.185,39.685z M2.118,37.844h35.45V1.841H2.118V37.844z"/>
	</g>
</g>
</svg>
