<?xml version="1.0" encoding="utf-8"?>
<!-- Generator: Adobe Illustrator 22.0.1, SVG Export Plug-In . SVG Version: 6.00 Build 0)  -->
<svg version="1.1" id="Слой_1" xmlns="http://www.w3.org/2000/svg" xmlns:xlink="http://www.w3.org/1999/xlink" x="0px" y="0px"
	 viewBox="0 0 39.69 39.69" style="enable-background:new 0 0 39.69 39.69;" xml:space="preserve">
<style type="text/css">
	.st0{fill:#4C5567;}
	.st1{fill-rule:evenodd;clip-rule:evenodd;fill:#4C5567;}
	.st2{fill:#FFFFFF;}
</style>
<g>
	<g>
		<path class="st0" d="M38.185,39.685H1.5c-0.675,0-1.224-0.549-1.224-1.224V1.224C0.276,0.549,0.825,0,1.5,0h36.684
			c0.675,0,1.224,0.549,1.224,1.224v37.237C39.409,39.136,38.86,39.685,38.185,39.685z M2.117,37.844h35.45V1.841H2.117V37.844z"/>
	</g>
	<g>
		<path class="st0" d="M12.818,16.175v2.016H5.21c0.082-0.762,0.33-1.484,0.741-2.167c0.412-0.682,1.226-1.587,2.441-2.715
			c0.978-0.912,1.578-1.53,1.8-1.854c0.298-0.448,0.448-0.891,0.448-1.328c0-0.484-0.13-0.856-0.39-1.116
			c-0.26-0.26-0.619-0.39-1.077-0.39c-0.453,0-0.813,0.136-1.081,0.409c-0.268,0.273-0.422,0.726-0.463,1.36l-2.163-0.217
			C5.593,8.98,5.998,8.122,6.677,7.602c0.679-0.52,1.529-0.78,2.548-0.78c1.118,0,1.996,0.301,2.634,0.904s0.958,1.352,0.958,2.248
			c0,0.51-0.092,0.995-0.274,1.456c-0.183,0.461-0.473,0.943-0.869,1.448c-0.263,0.335-0.737,0.816-1.421,1.444
			c-0.685,0.628-1.119,1.045-1.301,1.251c-0.183,0.206-0.331,0.407-0.444,0.603H12.818z"/>
		<path class="st0" d="M14.748,18.191v-2.17h2.17v2.17H14.748z"/>
		<path class="st0" d="M18.71,15.279l2.163-0.224c0.062,0.489,0.244,0.877,0.549,1.163c0.304,0.286,0.654,0.428,1.05,0.428
			c0.453,0,0.836-0.184,1.151-0.552c0.314-0.368,0.471-0.923,0.471-1.664c0-0.695-0.156-1.217-0.467-1.564
			c-0.312-0.348-0.717-0.522-1.216-0.522c-0.623,0-1.182,0.276-1.676,0.826l-1.761-0.255l1.112-5.893h5.739v2.032H21.73l-0.34,1.923
			c0.484-0.242,0.978-0.363,1.483-0.363c0.963,0,1.779,0.35,2.448,1.05c0.67,0.7,1.004,1.609,1.004,2.726
			c0,0.932-0.271,1.764-0.811,2.495c-0.736,0.999-1.758,1.498-3.066,1.498c-1.045,0-1.897-0.281-2.557-0.842
			C19.233,16.981,18.839,16.227,18.71,15.279z"/>
		<path class="st0" d="M26.898,18.191l2.958-4.225l-2.835-3.978h2.649l1.452,2.256l1.53-2.256h2.549l-2.781,3.885l3.035,4.317
			h-2.665l-1.668-2.541l-1.684,2.541H26.898z"/>
	</g>
	<g>
		<rect x="5.513" y="24.814" class="st1" width="28.763" height="10.108"/>
	</g>
	<g>
		<path class="st2" d="M9.527,32.52v-0.96l2.77-3.421H9.84v-0.892h3.859v0.827l-2.888,3.557h3v0.888H9.527z"/>
		<path class="st2" d="M14.268,29.916c0-0.537,0.081-0.988,0.241-1.352c0.12-0.269,0.284-0.509,0.491-0.723
			c0.208-0.213,0.435-0.372,0.682-0.474c0.329-0.139,0.707-0.209,1.137-0.209c0.777,0,1.399,0.241,1.865,0.723
			c0.467,0.482,0.7,1.152,0.7,2.011c0,0.852-0.231,1.517-0.694,1.998c-0.463,0.481-1.082,0.721-1.856,0.721
			c-0.784,0-1.408-0.239-1.87-0.718C14.499,31.414,14.268,30.755,14.268,29.916z M15.365,29.88c0,0.597,0.138,1.05,0.414,1.358
			c0.276,0.308,0.626,0.462,1.05,0.462c0.425,0,0.773-0.153,1.045-0.459c0.272-0.306,0.408-0.765,0.408-1.376
			c0-0.604-0.133-1.055-0.397-1.352c-0.265-0.298-0.617-0.446-1.056-0.446c-0.439,0-0.792,0.15-1.061,0.451
			C15.499,28.82,15.365,29.273,15.365,29.88z"/>
		<path class="st2" d="M19.998,29.916c0-0.537,0.081-0.988,0.241-1.352c0.12-0.269,0.284-0.509,0.491-0.723
			c0.208-0.213,0.435-0.372,0.682-0.474c0.329-0.139,0.707-0.209,1.137-0.209c0.777,0,1.399,0.241,1.865,0.723
			c0.467,0.482,0.7,1.152,0.7,2.011c0,0.852-0.231,1.517-0.694,1.998c-0.463,0.481-1.082,0.721-1.856,0.721
			c-0.784,0-1.408-0.239-1.87-0.718C20.229,31.414,19.998,30.755,19.998,29.916z M21.095,29.88c0,0.597,0.138,1.05,0.414,1.358
			c0.276,0.308,0.626,0.462,1.05,0.462c0.425,0,0.773-0.153,1.045-0.459c0.272-0.306,0.408-0.765,0.408-1.376
			c0-0.604-0.133-1.055-0.397-1.352c-0.265-0.298-0.617-0.446-1.056-0.446c-0.439,0-0.792,0.15-1.061,0.451
			C21.229,28.82,21.095,29.273,21.095,29.88z"/>
		<path class="st2" d="M25.929,32.52v-5.273h1.593l0.957,3.597l0.946-3.597h1.597v5.273h-0.989v-4.151l-1.047,4.151h-1.025
			l-1.043-4.151v4.151H25.929z"/>
	</g>
</g>
</svg>
