<?xml version="1.0" encoding="utf-8"?>
<!-- Generator: Adobe Illustrator 22.0.1, SVG Export Plug-In . SVG Version: 6.00 Build 0)  -->
<svg version="1.1" id="Слой_1" xmlns="http://www.w3.org/2000/svg" xmlns:xlink="http://www.w3.org/1999/xlink" x="0px" y="0px"
	 viewBox="0 0 39.69 39.69" style="enable-background:new 0 0 39.69 39.69;" xml:space="preserve">
<style type="text/css">
	.st0{fill:#4C5567;}
	.st1{fill-rule:evenodd;clip-rule:evenodd;fill:#4C5567;}
	.st2{fill:#FFFFFF;}
</style>
<g>
	<g>
		<path class="st0" d="M38.184,39.685H1.501c-0.675,0-1.224-0.549-1.224-1.225V1.224C0.277,0.549,0.826,0,1.501,0h36.684
			c0.675,0,1.224,0.549,1.224,1.224V38.46C39.408,39.136,38.859,39.685,38.184,39.685z M2.118,37.843h35.45V1.842H2.118V37.843z"/>
	</g>
	<g>
		<path class="st0" d="M7.36,15.279l2.163-0.223c0.062,0.489,0.244,0.876,0.549,1.162c0.304,0.286,0.654,0.428,1.05,0.428
			c0.453,0,0.836-0.183,1.151-0.552c0.314-0.368,0.471-0.923,0.471-1.664c0-0.696-0.156-1.216-0.467-1.564
			c-0.312-0.347-0.717-0.521-1.216-0.521c-0.623,0-1.182,0.275-1.676,0.826l-1.761-0.255l1.112-5.893h5.739v2.031H10.38l-0.34,1.924
			c0.484-0.242,0.978-0.363,1.483-0.363c0.963,0,1.779,0.35,2.448,1.05c0.67,0.7,1.004,1.609,1.004,2.726
			c0,0.932-0.271,1.764-0.811,2.495c-0.736,0.999-1.758,1.498-3.066,1.498c-1.045,0-1.897-0.28-2.557-0.842
			C7.883,16.981,7.489,16.227,7.36,15.279z"/>
		<path class="st0" d="M19.795,6.822c1.097,0,1.954,0.391,2.572,1.173c0.736,0.927,1.104,2.464,1.104,4.612
			c0,2.142-0.371,3.681-1.112,4.618c-0.613,0.773-1.467,1.158-2.564,1.158c-1.102,0-1.99-0.423-2.665-1.27
			c-0.674-0.847-1.011-2.357-1.011-4.53c0-2.132,0.371-3.666,1.112-4.603C17.844,7.208,18.698,6.822,19.795,6.822z M19.795,8.621
			c-0.263,0-0.497,0.084-0.703,0.251c-0.206,0.167-0.366,0.467-0.479,0.9c-0.149,0.562-0.224,1.506-0.224,2.835
			c0,1.328,0.067,2.241,0.201,2.738c0.134,0.496,0.302,0.828,0.506,0.992c0.203,0.166,0.436,0.248,0.699,0.248
			s0.497-0.084,0.703-0.251c0.206-0.167,0.366-0.467,0.479-0.9c0.149-0.556,0.224-1.498,0.224-2.826
			c0-1.329-0.067-2.242-0.201-2.739c-0.134-0.496-0.303-0.829-0.506-0.996C20.29,8.705,20.058,8.621,19.795,8.621z"/>
		<path class="st0" d="M24.344,18.191l2.958-4.225l-2.835-3.977h2.649l1.452,2.255l1.53-2.255h2.549l-2.781,3.885l3.035,4.317
			h-2.665l-1.668-2.541l-1.684,2.541H24.344z"/>
	</g>
	<g>
		<rect x="5.514" y="24.814" class="st1" width="28.762" height="10.108"/>
	</g>
	<g>
		<path class="st2" d="M9.528,32.52v-0.96l2.77-3.42H9.84v-0.892H13.7v0.827l-2.888,3.557h3v0.888H9.528z"/>
		<path class="st2" d="M14.268,29.916c0-0.537,0.081-0.988,0.241-1.353c0.12-0.268,0.284-0.509,0.491-0.723
			c0.208-0.213,0.435-0.372,0.682-0.475c0.329-0.139,0.707-0.209,1.137-0.209c0.777,0,1.399,0.241,1.865,0.724
			c0.467,0.481,0.7,1.152,0.7,2.011c0,0.851-0.231,1.517-0.694,1.998s-1.082,0.722-1.856,0.722c-0.784,0-1.408-0.239-1.87-0.718
			C14.499,31.414,14.268,30.755,14.268,29.916z M15.365,29.88c0,0.597,0.138,1.05,0.414,1.358s0.626,0.462,1.05,0.462
			c0.425,0,0.773-0.153,1.045-0.458c0.272-0.305,0.408-0.765,0.408-1.375c0-0.604-0.133-1.055-0.397-1.353
			c-0.265-0.297-0.617-0.446-1.056-0.446c-0.439,0-0.792,0.151-1.061,0.452C15.499,28.819,15.365,29.274,15.365,29.88z"/>
		<path class="st2" d="M19.998,29.916c0-0.537,0.081-0.988,0.241-1.353c0.12-0.268,0.284-0.509,0.491-0.723
			c0.208-0.213,0.435-0.372,0.682-0.475c0.329-0.139,0.707-0.209,1.137-0.209c0.777,0,1.399,0.241,1.865,0.724
			c0.467,0.481,0.7,1.152,0.7,2.011c0,0.851-0.231,1.517-0.694,1.998s-1.082,0.722-1.856,0.722c-0.784,0-1.408-0.239-1.87-0.718
			C20.229,31.414,19.998,30.755,19.998,29.916z M21.095,29.88c0,0.597,0.138,1.05,0.414,1.358s0.626,0.462,1.05,0.462
			c0.425,0,0.773-0.153,1.045-0.458c0.272-0.305,0.408-0.765,0.408-1.375c0-0.604-0.133-1.055-0.397-1.353
			c-0.265-0.297-0.617-0.446-1.056-0.446c-0.439,0-0.792,0.151-1.061,0.452C21.229,28.819,21.095,29.274,21.095,29.88z"/>
		<path class="st2" d="M25.929,32.52v-5.273h1.593l0.957,3.596l0.946-3.596h1.597v5.273h-0.989v-4.151l-1.047,4.151h-1.025
			l-1.043-4.151v4.151H25.929z"/>
	</g>
</g>
</svg>
