<?xml version="1.0" encoding="utf-8"?>
<!-- Generator: Adobe Illustrator 22.0.1, SVG Export Plug-In . SVG Version: 6.00 Build 0)  -->
<svg version="1.1" id="Слой_1" xmlns="http://www.w3.org/2000/svg" xmlns:xlink="http://www.w3.org/1999/xlink" x="0px" y="0px"
	 viewBox="0 0 39.69 39.69" style="enable-background:new 0 0 39.69 39.69;" xml:space="preserve">
<style type="text/css">
	.st0{fill:#4C5567;}
	.st1{fill-rule:evenodd;clip-rule:evenodd;fill:#4C5567;}
	.st2{fill:#FFFFFF;}
</style>
<g>
	<g>
		<path class="st0" d="M38.184,39.685H1.501c-0.675,0-1.224-0.549-1.224-1.225V1.225C0.277,0.549,0.826,0,1.501,0h36.683
			c0.675,0,1.224,0.549,1.224,1.225V38.46C39.408,39.136,38.859,39.685,38.184,39.685z M2.118,37.843h35.449V1.842H2.118V37.843z"/>
	</g>
	<g>
		<path class="st0" d="M11.585,18.191v-2.279H6.951v-1.9l4.912-7.19h1.823v7.183h1.406v1.907h-1.406v2.279H11.585z M11.585,14.006
			v-3.869l-2.603,3.869H11.585z"/>
		<path class="st0" d="M23.456,16.175v2.016h-7.608c0.082-0.762,0.33-1.484,0.741-2.166c0.412-0.683,1.225-1.588,2.441-2.715
			c0.978-0.911,1.578-1.529,1.8-1.853c0.298-0.448,0.448-0.891,0.448-1.329c0-0.483-0.13-0.856-0.39-1.116
			c-0.26-0.26-0.619-0.39-1.077-0.39c-0.453,0-0.813,0.137-1.081,0.41c-0.268,0.273-0.422,0.725-0.463,1.359l-2.163-0.216
			c0.129-1.195,0.533-2.051,1.213-2.572c0.679-0.52,1.529-0.779,2.548-0.779c1.117,0,1.996,0.301,2.634,0.903
			c0.638,0.603,0.958,1.351,0.958,2.247c0,0.51-0.092,0.995-0.274,1.456c-0.183,0.461-0.473,0.943-0.869,1.448
			c-0.263,0.334-0.737,0.816-1.421,1.444c-0.685,0.628-1.119,1.045-1.301,1.251c-0.183,0.207-0.331,0.407-0.444,0.603H23.456z"/>
		<path class="st0" d="M24.344,18.191l2.958-4.225l-2.835-3.977h2.649l1.452,2.255l1.53-2.255h2.549l-2.781,3.885l3.035,4.317
			h-2.665l-1.668-2.541l-1.684,2.541H24.344z"/>
	</g>
	<g>
		<rect x="5.514" y="24.815" class="st1" width="28.762" height="10.107"/>
	</g>
	<g>
		<path class="st2" d="M9.528,32.52v-0.96l2.769-3.42H9.841v-0.892H13.7v0.827l-2.888,3.557h2.999v0.888H9.528z"/>
		<path class="st2" d="M14.268,29.917c0-0.537,0.081-0.988,0.241-1.353c0.12-0.268,0.284-0.509,0.491-0.723
			c0.208-0.213,0.435-0.372,0.682-0.475c0.329-0.139,0.707-0.209,1.137-0.209c0.777,0,1.399,0.241,1.865,0.724
			c0.467,0.481,0.7,1.152,0.7,2.011c0,0.851-0.231,1.517-0.694,1.997c-0.463,0.481-1.082,0.722-1.856,0.722
			c-0.784,0-1.408-0.239-1.87-0.718C14.499,31.414,14.268,30.756,14.268,29.917z M15.365,29.88c0,0.597,0.138,1.049,0.414,1.358
			c0.276,0.308,0.626,0.462,1.05,0.462c0.425,0,0.773-0.153,1.045-0.458c0.272-0.305,0.408-0.765,0.408-1.375
			c0-0.604-0.133-1.055-0.397-1.353c-0.265-0.297-0.617-0.446-1.056-0.446c-0.439,0-0.792,0.151-1.061,0.452
			C15.499,28.82,15.365,29.274,15.365,29.88z"/>
		<path class="st2" d="M19.998,29.917c0-0.537,0.081-0.988,0.241-1.353c0.12-0.268,0.284-0.509,0.491-0.723
			c0.208-0.213,0.435-0.372,0.682-0.475c0.329-0.139,0.707-0.209,1.137-0.209c0.777,0,1.399,0.241,1.865,0.724
			c0.467,0.481,0.7,1.152,0.7,2.011c0,0.851-0.231,1.517-0.694,1.997s-1.082,0.722-1.856,0.722c-0.784,0-1.408-0.239-1.87-0.718
			C20.229,31.414,19.998,30.756,19.998,29.917z M21.095,29.88c0,0.597,0.138,1.049,0.414,1.358s0.626,0.462,1.05,0.462
			c0.425,0,0.773-0.153,1.045-0.458c0.272-0.305,0.408-0.765,0.408-1.375c0-0.604-0.133-1.055-0.397-1.353
			c-0.265-0.297-0.617-0.446-1.056-0.446c-0.439,0-0.792,0.151-1.061,0.452C21.229,28.82,21.095,29.274,21.095,29.88z"/>
		<path class="st2" d="M25.929,32.52v-5.273h1.593l0.957,3.596l0.946-3.596h1.597v5.273h-0.989v-4.15l-1.047,4.15H27.96l-1.043-4.15
			v4.15H25.929z"/>
	</g>
</g>
</svg>
