<?xml version="1.0" encoding="utf-8"?>
<!-- Generator: Adobe Illustrator 22.0.1, SVG Export Plug-In . SVG Version: 6.00 Build 0)  -->
<svg version="1.1" id="Слой_1" xmlns="http://www.w3.org/2000/svg" xmlns:xlink="http://www.w3.org/1999/xlink" x="0px" y="0px"
	 viewBox="0 0 39.69 39.69" style="enable-background:new 0 0 39.69 39.69;" xml:space="preserve">
<style type="text/css">
	.st0{fill:#4C5567;}
	.st1{fill-rule:evenodd;clip-rule:evenodd;fill:#4C5567;}
	.st2{fill:#FFFFFF;}
</style>
<g>
	<g>
		<path class="st0" d="M38.185,39.685H1.5c-0.675,0-1.224-0.549-1.224-1.224V1.224C0.276,0.549,0.825,0,1.5,0h36.684
			c0.675,0,1.224,0.549,1.224,1.224v37.237C39.409,39.136,38.86,39.685,38.185,39.685z M2.117,37.844h35.45V1.841H2.117V37.844z"/>
	</g>
	<g>
		<path class="st0" d="M14.659,16.175v2.016H7.051c0.082-0.762,0.33-1.484,0.741-2.167c0.412-0.682,1.226-1.587,2.441-2.715
			c0.978-0.912,1.578-1.53,1.8-1.854c0.298-0.448,0.448-0.891,0.448-1.328c0-0.484-0.13-0.856-0.39-1.116
			c-0.26-0.26-0.619-0.39-1.077-0.39c-0.453,0-0.813,0.136-1.081,0.409C9.664,9.304,9.51,9.757,9.469,10.39l-2.163-0.217
			C7.435,8.98,7.839,8.122,8.519,7.602c0.679-0.52,1.529-0.78,2.548-0.78c1.118,0,1.996,0.301,2.634,0.904s0.958,1.352,0.958,2.248
			c0,0.51-0.092,0.995-0.274,1.456c-0.183,0.461-0.473,0.943-0.869,1.448c-0.263,0.335-0.737,0.816-1.421,1.444
			c-0.685,0.628-1.119,1.045-1.301,1.251c-0.183,0.206-0.331,0.407-0.444,0.603H14.659z"/>
		<path class="st0" d="M17.988,12.082c-0.562-0.237-0.969-0.562-1.224-0.977c-0.255-0.414-0.382-0.869-0.382-1.363
			c0-0.844,0.294-1.542,0.884-2.093c0.589-0.551,1.428-0.826,2.514-0.826c1.076,0,1.911,0.276,2.506,0.826
			c0.595,0.551,0.892,1.249,0.892,2.093c0,0.525-0.137,0.993-0.41,1.402c-0.273,0.409-0.657,0.722-1.151,0.938
			c0.628,0.252,1.105,0.621,1.433,1.104c0.327,0.484,0.49,1.043,0.49,1.676c0,1.045-0.333,1.895-1,2.549
			c-0.667,0.654-1.554,0.981-2.661,0.981c-1.03,0-1.887-0.27-2.572-0.811c-0.808-0.638-1.212-1.514-1.212-2.626
			c0-0.613,0.152-1.175,0.455-1.688C16.855,12.755,17.334,12.36,17.988,12.082z M18.235,14.746c0,0.597,0.153,1.063,0.459,1.398
			c0.306,0.335,0.689,0.502,1.147,0.502c0.448,0,0.819-0.161,1.112-0.482c0.294-0.322,0.44-0.786,0.44-1.394
			c0-0.53-0.149-0.956-0.448-1.279c-0.299-0.321-0.677-0.482-1.136-0.482c-0.53,0-0.926,0.183-1.185,0.548
			C18.365,13.923,18.235,14.319,18.235,14.746z M18.436,9.896c0,0.433,0.122,0.77,0.367,1.012c0.244,0.242,0.57,0.363,0.977,0.363
			c0.412,0,0.741-0.122,0.989-0.367c0.247-0.244,0.371-0.583,0.371-1.016c0-0.406-0.122-0.732-0.366-0.977
			c-0.245-0.244-0.568-0.367-0.969-0.367c-0.417,0-0.749,0.124-0.996,0.371C18.559,9.162,18.436,9.49,18.436,9.896z"/>
		<path class="st0" d="M24.344,18.191l2.958-4.225l-2.835-3.978h2.649l1.452,2.256l1.53-2.256h2.549l-2.781,3.885l3.035,4.317
			h-2.665l-1.668-2.541l-1.684,2.541H24.344z"/>
	</g>
	<g>
		<rect x="5.513" y="24.815" class="st1" width="28.763" height="10.108"/>
	</g>
	<g>
		<path class="st2" d="M9.527,32.52v-0.96l2.77-3.421H9.84v-0.892h3.859v0.827l-2.888,3.557h3v0.888H9.527z"/>
		<path class="st2" d="M14.268,29.916c0-0.537,0.081-0.988,0.241-1.352c0.12-0.269,0.284-0.509,0.491-0.723
			c0.208-0.213,0.435-0.372,0.682-0.474c0.329-0.139,0.707-0.209,1.137-0.209c0.777,0,1.399,0.241,1.865,0.723
			c0.467,0.482,0.7,1.152,0.7,2.011c0,0.852-0.231,1.517-0.694,1.998c-0.463,0.481-1.082,0.721-1.856,0.721
			c-0.784,0-1.408-0.239-1.87-0.718C14.499,31.414,14.268,30.755,14.268,29.916z M15.365,29.88c0,0.597,0.138,1.05,0.414,1.358
			c0.276,0.308,0.626,0.462,1.05,0.462c0.425,0,0.773-0.153,1.045-0.459c0.272-0.306,0.408-0.765,0.408-1.376
			c0-0.604-0.133-1.055-0.397-1.352c-0.265-0.298-0.617-0.446-1.056-0.446c-0.439,0-0.792,0.15-1.061,0.451
			C15.499,28.82,15.365,29.273,15.365,29.88z"/>
		<path class="st2" d="M19.998,29.916c0-0.537,0.081-0.988,0.241-1.352c0.12-0.269,0.284-0.509,0.491-0.723
			c0.208-0.213,0.435-0.372,0.682-0.474c0.329-0.139,0.707-0.209,1.137-0.209c0.777,0,1.399,0.241,1.865,0.723
			c0.467,0.482,0.7,1.152,0.7,2.011c0,0.852-0.231,1.517-0.694,1.998c-0.463,0.481-1.082,0.721-1.856,0.721
			c-0.784,0-1.408-0.239-1.87-0.718C20.229,31.414,19.998,30.755,19.998,29.916z M21.095,29.88c0,0.597,0.138,1.05,0.414,1.358
			c0.276,0.308,0.626,0.462,1.05,0.462c0.425,0,0.773-0.153,1.045-0.459c0.272-0.306,0.408-0.765,0.408-1.376
			c0-0.604-0.133-1.055-0.397-1.352c-0.265-0.298-0.617-0.446-1.056-0.446c-0.439,0-0.792,0.15-1.061,0.451
			C21.229,28.82,21.095,29.273,21.095,29.88z"/>
		<path class="st2" d="M25.929,32.52v-5.273h1.593l0.957,3.597l0.946-3.597h1.597v5.273h-0.989v-4.151l-1.047,4.151h-1.025
			l-1.043-4.151v4.151H25.929z"/>
	</g>
</g>
</svg>
