<?xml version="1.0" encoding="utf-8"?>
<!-- Generator: Adobe Illustrator 22.0.1, SVG Export Plug-In . SVG Version: 6.00 Build 0)  -->
<svg version="1.1" id="Слой_1" xmlns="http://www.w3.org/2000/svg" xmlns:xlink="http://www.w3.org/1999/xlink" x="0px" y="0px"
	 viewBox="0 0 39.69 39.69" style="enable-background:new 0 0 39.69 39.69;" xml:space="preserve">
<style type="text/css">
	.st0{fill:#4C5567;}
	.st1{fill-rule:evenodd;clip-rule:evenodd;fill:#4C5567;}
	.st2{fill:#FFFFFF;}
</style>
<g>
	<g>
		<path class="st0" d="M38.185,39.685H1.5c-0.675,0-1.224-0.549-1.224-1.224V1.224C0.276,0.549,0.825,0,1.5,0h36.684
			c0.675,0,1.224,0.549,1.224,1.224v37.237C39.409,39.136,38.86,39.685,38.185,39.685z M2.117,37.844h35.45V1.841H2.117V37.844z"/>
	</g>
	<g>
		<path class="st0" d="M7.252,15.186l2.101-0.255C9.42,15.467,9.6,15.877,9.893,16.16c0.294,0.284,0.649,0.425,1.066,0.425
			c0.448,0,0.825-0.17,1.131-0.51c0.306-0.34,0.46-0.798,0.46-1.375c0-0.546-0.147-0.978-0.44-1.297
			c-0.294-0.319-0.651-0.479-1.074-0.479c-0.278,0-0.61,0.054-0.996,0.163l0.24-1.769c0.587,0.015,1.035-0.112,1.344-0.382
			c0.309-0.271,0.463-0.63,0.463-1.077c0-0.381-0.113-0.685-0.34-0.911c-0.227-0.227-0.528-0.34-0.904-0.34
			c-0.371,0-0.687,0.129-0.95,0.386C9.631,9.25,9.471,9.625,9.415,10.12l-2-0.34c0.139-0.684,0.349-1.232,0.629-1.641
			c0.281-0.409,0.672-0.731,1.174-0.965s1.064-0.352,1.687-0.352c1.066,0,1.921,0.34,2.564,1.02c0.53,0.556,0.796,1.184,0.796,1.884
			c0,0.994-0.543,1.787-1.63,2.379c0.649,0.139,1.167,0.451,1.556,0.935c0.389,0.484,0.583,1.069,0.583,1.753
			c0,0.994-0.363,1.841-1.089,2.541c-0.726,0.7-1.63,1.05-2.711,1.05c-1.024,0-1.874-0.295-2.548-0.885
			C7.752,16.91,7.36,16.139,7.252,15.186z"/>
		<path class="st0" d="M19.795,6.822c1.097,0,1.954,0.392,2.572,1.174c0.736,0.927,1.104,2.464,1.104,4.611
			c0,2.142-0.371,3.682-1.112,4.619c-0.613,0.772-1.467,1.158-2.564,1.158c-1.102,0-1.99-0.424-2.665-1.271
			c-0.674-0.847-1.011-2.357-1.011-4.53c0-2.132,0.371-3.666,1.112-4.603C17.844,7.208,18.698,6.822,19.795,6.822z M19.795,8.622
			c-0.263,0-0.497,0.084-0.703,0.251c-0.206,0.168-0.366,0.467-0.479,0.9c-0.149,0.561-0.224,1.506-0.224,2.834
			s0.067,2.241,0.201,2.738c0.134,0.497,0.302,0.828,0.506,0.993c0.203,0.165,0.436,0.247,0.699,0.247
			c0.263,0,0.497-0.084,0.703-0.251c0.206-0.168,0.366-0.467,0.479-0.9c0.149-0.556,0.224-1.498,0.224-2.827S21.134,10.366,21,9.869
			c-0.134-0.497-0.303-0.829-0.506-0.996C20.29,8.705,20.058,8.622,19.795,8.622z"/>
		<path class="st0" d="M24.344,18.191l2.958-4.225l-2.835-3.978h2.649l1.452,2.256l1.53-2.256h2.549l-2.781,3.885l3.035,4.317
			h-2.665l-1.668-2.541l-1.684,2.541H24.344z"/>
	</g>
	<g>
		<rect x="5.513" y="24.815" class="st1" width="28.763" height="10.108"/>
	</g>
	<g>
		<path class="st2" d="M9.527,32.52v-0.96l2.77-3.421H9.84v-0.892h3.859v0.827l-2.888,3.557h3v0.888H9.527z"/>
		<path class="st2" d="M14.268,29.916c0-0.537,0.081-0.988,0.241-1.352c0.12-0.269,0.284-0.509,0.491-0.723
			c0.208-0.213,0.435-0.372,0.682-0.474c0.329-0.139,0.707-0.209,1.137-0.209c0.777,0,1.399,0.241,1.865,0.723
			c0.467,0.482,0.7,1.152,0.7,2.011c0,0.852-0.231,1.517-0.694,1.998c-0.463,0.481-1.082,0.721-1.856,0.721
			c-0.784,0-1.408-0.239-1.87-0.718C14.499,31.414,14.268,30.755,14.268,29.916z M15.365,29.88c0,0.597,0.138,1.05,0.414,1.358
			c0.276,0.308,0.626,0.462,1.05,0.462c0.425,0,0.773-0.153,1.045-0.459c0.272-0.306,0.408-0.765,0.408-1.376
			c0-0.604-0.133-1.055-0.397-1.352c-0.265-0.298-0.617-0.446-1.056-0.446c-0.439,0-0.792,0.15-1.061,0.451
			C15.499,28.82,15.365,29.273,15.365,29.88z"/>
		<path class="st2" d="M19.998,29.916c0-0.537,0.081-0.988,0.241-1.352c0.12-0.269,0.284-0.509,0.491-0.723
			c0.208-0.213,0.435-0.372,0.682-0.474c0.329-0.139,0.707-0.209,1.137-0.209c0.777,0,1.399,0.241,1.865,0.723
			c0.467,0.482,0.7,1.152,0.7,2.011c0,0.852-0.231,1.517-0.694,1.998c-0.463,0.481-1.082,0.721-1.856,0.721
			c-0.784,0-1.408-0.239-1.87-0.718C20.229,31.414,19.998,30.755,19.998,29.916z M21.095,29.88c0,0.597,0.138,1.05,0.414,1.358
			c0.276,0.308,0.626,0.462,1.05,0.462c0.425,0,0.773-0.153,1.045-0.459c0.272-0.306,0.408-0.765,0.408-1.376
			c0-0.604-0.133-1.055-0.397-1.352c-0.265-0.298-0.617-0.446-1.056-0.446c-0.439,0-0.792,0.15-1.061,0.451
			C21.229,28.82,21.095,29.273,21.095,29.88z"/>
		<path class="st2" d="M25.929,32.52v-5.273h1.593l0.957,3.597l0.946-3.597h1.597v5.273h-0.989v-4.151l-1.047,4.151h-1.025
			l-1.043-4.151v4.151H25.929z"/>
	</g>
</g>
</svg>
