<?xml version="1.0" encoding="utf-8"?>
<!-- Generator: Adobe Illustrator 22.0.1, SVG Export Plug-In . SVG Version: 6.00 Build 0)  -->
<svg version="1.1" id="Слой_1" xmlns="http://www.w3.org/2000/svg" xmlns:xlink="http://www.w3.org/1999/xlink" x="0px" y="0px"
	 viewBox="0 0 39.69 39.69" style="enable-background:new 0 0 39.69 39.69;" xml:space="preserve">
<style type="text/css">
	.st0{fill:#4C5567;}
	.st1{fill-rule:evenodd;clip-rule:evenodd;fill:#4C5567;}
	.st2{fill:#FFFFFF;}
</style>
<g>
	<g>
		<path class="st0" d="M38.185,39.685H1.5c-0.675,0-1.224-0.549-1.224-1.224V1.224C0.276,0.549,0.825,0,1.5,0h36.684
			c0.675,0,1.224,0.549,1.224,1.224v37.237C39.409,39.136,38.86,39.685,38.185,39.685z M2.117,37.844h35.45V1.841H2.117V37.844z"/>
	</g>
	<g>
		<path class="st0" d="M12.883,18.191h-2.171v-8.179c-0.793,0.741-1.727,1.29-2.804,1.645v-1.97C8.475,9.502,9.09,9.151,9.755,8.633
			c0.664-0.517,1.12-1.121,1.367-1.811h1.761V18.191z"/>
		<path class="st0" d="M16.126,9.039V7.023h7.423v1.576c-0.613,0.603-1.236,1.468-1.869,2.595c-0.634,1.127-1.116,2.326-1.449,3.595
			c-0.332,1.269-0.495,2.404-0.49,3.402h-2.093c0.036-1.565,0.359-3.162,0.969-4.789c0.61-1.627,1.425-3.082,2.445-4.364H16.126z"/>
		<path class="st0" d="M24.344,18.191l2.958-4.225l-2.835-3.978h2.649l1.452,2.256l1.53-2.256h2.549l-2.781,3.885l3.035,4.317
			h-2.665l-1.668-2.541l-1.684,2.541H24.344z"/>
	</g>
	<g>
		<rect x="5.513" y="24.814" class="st1" width="28.763" height="10.108"/>
	</g>
	<g>
		<path class="st2" d="M9.527,32.52v-0.96l2.77-3.421H9.84v-0.892h3.859v0.827l-2.888,3.557h3v0.888H9.527z"/>
		<path class="st2" d="M14.268,29.916c0-0.537,0.081-0.988,0.241-1.352c0.12-0.269,0.284-0.509,0.491-0.723
			c0.208-0.213,0.435-0.372,0.682-0.474c0.329-0.139,0.707-0.209,1.137-0.209c0.777,0,1.399,0.241,1.865,0.723
			c0.467,0.482,0.7,1.152,0.7,2.011c0,0.852-0.231,1.517-0.694,1.998c-0.463,0.481-1.082,0.721-1.856,0.721
			c-0.784,0-1.408-0.239-1.87-0.718C14.499,31.414,14.268,30.755,14.268,29.916z M15.365,29.88c0,0.597,0.138,1.05,0.414,1.358
			c0.276,0.308,0.626,0.462,1.05,0.462c0.425,0,0.773-0.153,1.045-0.459c0.272-0.306,0.408-0.765,0.408-1.376
			c0-0.604-0.133-1.055-0.397-1.352c-0.265-0.298-0.617-0.446-1.056-0.446c-0.439,0-0.792,0.15-1.061,0.451
			C15.499,28.82,15.365,29.273,15.365,29.88z"/>
		<path class="st2" d="M19.998,29.916c0-0.537,0.081-0.988,0.241-1.352c0.12-0.269,0.284-0.509,0.491-0.723
			c0.208-0.213,0.435-0.372,0.682-0.474c0.329-0.139,0.707-0.209,1.137-0.209c0.777,0,1.399,0.241,1.865,0.723
			c0.467,0.482,0.7,1.152,0.7,2.011c0,0.852-0.231,1.517-0.694,1.998c-0.463,0.481-1.082,0.721-1.856,0.721
			c-0.784,0-1.408-0.239-1.87-0.718C20.229,31.414,19.998,30.755,19.998,29.916z M21.095,29.88c0,0.597,0.138,1.05,0.414,1.358
			c0.276,0.308,0.626,0.462,1.05,0.462c0.425,0,0.773-0.153,1.045-0.459c0.272-0.306,0.408-0.765,0.408-1.376
			c0-0.604-0.133-1.055-0.397-1.352c-0.265-0.298-0.617-0.446-1.056-0.446c-0.439,0-0.792,0.15-1.061,0.451
			C21.229,28.82,21.095,29.273,21.095,29.88z"/>
		<path class="st2" d="M25.929,32.52v-5.273h1.593l0.957,3.597l0.946-3.597h1.597v5.273h-0.989v-4.151l-1.047,4.151h-1.025
			l-1.043-4.151v4.151H25.929z"/>
	</g>
</g>
</svg>
