<svg id="_1" data-name="1" xmlns="http://www.w3.org/2000/svg" viewBox="0 0 115.13 76.88"><defs><style>.cls-1{fill:#fff;fill-rule:evenodd;}</style></defs><title>Logo-BIC-with_descriptor-all_2</title><path class="cls-1" d="M55.44,43.07h1.05a3.37,3.37,0,0,0,.84-.09,2,2,0,0,0,.59-.25,1.82,1.82,0,0,0,.4-.38,4.75,4.75,0,0,0,.31-.5l1.7-3.12h.09l-1.33,4.34h.76a3,3,0,0,0,1.44-.29,1.54,1.54,0,0,0,.7-.93l2.3-7.48h-1a3.45,3.45,0,0,0-.85.08,1.81,1.81,0,0,0-.58.25,1.53,1.53,0,0,0-.41.39,3.37,3.37,0,0,0-.3.49L59.4,38.7h-.09l1.33-4.33h-.76a2.92,2.92,0,0,0-1.43.28,1.55,1.55,0,0,0-.71.93l-2.3,7.49Zm9,0h.76a3,3,0,0,0,1.44-.29,1.58,1.58,0,0,0,.7-.93L68.21,39H69l-1.26,4.09h.75a2.93,2.93,0,0,0,1.44-.29,1.5,1.5,0,0,0,.7-.93l2.31-7.48h-.76a3,3,0,0,0-1.45.28,1.53,1.53,0,0,0-.69.93L69.29,38h-.8l1.14-3.65h-.76a3,3,0,0,0-1.44.28,1.54,1.54,0,0,0-.7.93l-2.3,7.49ZM84.75,34.8H81.44l.38-1.22h-.76a5.55,5.55,0,0,0-.72.05,2.44,2.44,0,0,0-.63.19,1.48,1.48,0,0,0-.49.37,1.4,1.4,0,0,0-.3.61H77.38a2.89,2.89,0,0,0-1.45.29,1.59,1.59,0,0,0-.68.93l-1.9,6.18h3.31l-.38,1.21H77a4.07,4.07,0,0,0,.72,0,2.1,2.1,0,0,0,.63-.18,1.67,1.67,0,0,0,.5-.37,1.57,1.57,0,0,0,.29-.61h1.55a3,3,0,0,0,1.44-.29,1.54,1.54,0,0,0,.7-.93l1.89-6.18Zm-5.29,6.44,1.69-5.48h.32a.41.41,0,0,1,.3.12.28.28,0,0,1,0,.31L80.4,40.8a.66.66,0,0,1-.22.31.6.6,0,0,1-.4.13Zm-2.52,0h-.32a.4.4,0,0,1-.25-.06.2.2,0,0,1-.09-.13.33.33,0,0,1,0-.14.65.65,0,0,0,0-.11l1.42-4.61a.7.7,0,0,1,.15-.28.53.53,0,0,1,.44-.15h.32l-1.69,5.48ZM85,43.07H89.1a2.91,2.91,0,0,0,1.43-.29,1.55,1.55,0,0,0,.71-.93l2.3-7.48H89.47a2.92,2.92,0,0,0-1.43.28,1.55,1.55,0,0,0-.71.93L85,43.07Zm3.69-1.26c0,.15-.13.24-.25.26l-.24,0A.41.41,0,0,1,88,42a.19.19,0,0,1-.06-.22l1.9-6.19a.44.44,0,0,1,.18-.21.59.59,0,0,1,.31-.09.37.37,0,0,1,.27.09.17.17,0,0,1,0,.2l-1.92,6.2Zm5,1.26h.76a2.93,2.93,0,0,0,1.44-.29,1.53,1.53,0,0,0,.69-.93l.54-1.74h1.55a2.92,2.92,0,0,0,1.42-.29,1.5,1.5,0,0,0,.7-.93l1.4-4.52H98.12a3,3,0,0,0-1.44.28,1.54,1.54,0,0,0-.7.93l-2.3,7.49Zm3.72-3.92,1.17-3.83h.32a.49.49,0,0,1,.3.1c.08.07.09.18,0,.34l-.92,3a.62.62,0,0,1-.26.34.75.75,0,0,1-.33.09Zm10.43,1.33,2.82-4.9c.11-.18.22-.34.32-.49a1.65,1.65,0,0,1,.4-.39,1.76,1.76,0,0,1,.57-.25,3.35,3.35,0,0,1,.85-.08h1.83l-2.3,7.48a1.5,1.5,0,0,1-.7.93,2.93,2.93,0,0,1-1.44.29h-.75l1.67-5.46H111l-2.3,4.24a4.75,4.75,0,0,1-.31.5,1.62,1.62,0,0,1-.4.38,1.87,1.87,0,0,1-.59.25,3.26,3.26,0,0,1-.84.09H106l.38-5.46h-.09L105,41.85a1.5,1.5,0,0,1-.7.93,2.93,2.93,0,0,1-1.44.29h-.75l2.3-7.49a1.54,1.54,0,0,1,.7-.93,3,3,0,0,1,1.44-.28h1.51Z"/><path class="cls-1" d="M23.83,49.45c-11.47,0-21.15-5-21.15-11s9.68-10.94,21.15-10.94S45,32.55,45,38.48s-9.7,11-21.17,11Zm18.52-18.8h0V28.8l-1.23,1c-.37-.23-.74-.45-1.14-.66l-.43-.23,2.8-2.32V24.09l-4.75,4c-.59-.24-1.19-.47-1.81-.67l6.56-5.45V19.41l-8.78,7.31c-.69-.17-1.39-.33-2.11-.47l10.89-9V14.7L28.94,25.86c-.79-.1-1.59-.18-2.4-.23L42.32,12.54V10L23.68,25.55c-1,0-2,0-2.93.11L42.35,7.73V5.23l-25,20.82c-1.18.19-2.33.43-3.44.72L42.35,3.17V.64l-33.64,28c-.34.17-.69.34-1,.52-4.53,2.44-7,5.75-7,9.31,0,2.92,1.73,5.61,4.64,7.78V48L6.42,47c.52.33,1.06.65,1.63.95L5.33,50.23v2.43l4.59-3.81c.6.25,1.23.49,1.87.71L5.33,54.94v2.4l8.6-7.14c.69.19,1.4.35,2.12.5L5.33,59.63V62L18.5,51.1c.88.12,1.78.21,2.7.26L5.33,64.58V67L24,51.45c.95,0,1.88-.05,2.8-.11L5.33,69.26v2.4l25-20.73c1.22-.2,2.41-.45,3.54-.75L5.33,73.92v2.4l34-28.18C44,45.76,47,42.31,47,38.48,47,35.6,45.38,32.88,42.35,30.65Z"/><path class="cls-1" d="M23.84,28.67c5.87,0,11,1.66,13.4,4.07H10.43C12.89,30.33,18,28.67,23.84,28.67Z"/><path class="cls-1" d="M23.84,48.33c5.87,0,11-1.66,13.4-4.08H10.43C12.89,46.67,18,48.33,23.84,48.33Z"/><path class="cls-1" d="M10.75,42.85h4.06a2.93,2.93,0,0,0,1.44-.29,1.5,1.5,0,0,0,.7-.93l1.23-4H14.87l.77-2.52h2a2,2,0,0,0,1-.25,1.09,1.09,0,0,0,.55-.71h-4a3,3,0,0,0-1.44.28,1.56,1.56,0,0,0-.7.94l-2.3,7.48Zm2.81-1,1-3.3h.32a.4.4,0,0,1,.28.1c.08.06.1.17.05.33l-.74,2.44a.69.69,0,0,1-.22.3.56.56,0,0,1-.39.13Zm5.75,1h1a3.4,3.4,0,0,0,.85-.09,1.92,1.92,0,0,0,.58-.25,1.32,1.32,0,0,0,.4-.38,4.75,4.75,0,0,0,.31-.5l1.71-3.12h.09L23,42.85h.75a2.93,2.93,0,0,0,1.44-.29,1.5,1.5,0,0,0,.7-.93l2.3-7.48h-1a3.85,3.85,0,0,0-.84.08,2.14,2.14,0,0,0-.59.25,1.49,1.49,0,0,0-.4.39,3.9,3.9,0,0,0-.31.5l-1.71,3.12h-.09l1.33-4.34h-.75a3,3,0,0,0-1.44.28,1.52,1.52,0,0,0-.7.94l-2.3,7.48Zm9,0h.75a3,3,0,0,0,1.44-.29,1.5,1.5,0,0,0,.7-.93L32,38.85h.09l-.15,4h.34a4.05,4.05,0,0,0,1.17-.14,1.71,1.71,0,0,0,.65-.33.89.89,0,0,0,.27-.4,1.82,1.82,0,0,0,.05-.35l-.11-3.31,2.58-4.17h-1a3.92,3.92,0,0,0-.84.08,2.14,2.14,0,0,0-.59.25,1.65,1.65,0,0,0-.4.39,3.9,3.9,0,0,0-.31.5l-1.33,2.52h-.09l1.15-3.74h-.75a2.94,2.94,0,0,0-1.44.28,1.52,1.52,0,0,0-.7.94Z"/></svg>