<?xml version="1.0" encoding="UTF-8"?>
<!DOCTYPE svg PUBLIC "-//W3C//DTD SVG 1.1//EN" "http://www.w3.org/Graphics/SVG/1.1/DTD/svg11.dtd">
<!-- Creator: CorelDRAW X6 -->
<svg xmlns="http://www.w3.org/2000/svg" xml:space="preserve" width="560mm" height="560mm" version="1.1" style="shape-rendering:geometricPrecision; text-rendering:geometricPrecision; image-rendering:optimizeQuality; fill-rule:evenodd; clip-rule:evenodd"
viewBox="0 0 56000 56000"
 xmlns:xlink="http://www.w3.org/1999/xlink">
 <defs>
  <style type="text/css">
   <![CDATA[
    .fil2 {fill:#FEFEFE}
    .fil0 {fill:#40495B}
    .fil1 {fill:#FEFEFE;fill-rule:nonzero}
    .fil3 {fill:#40495B;fill-rule:nonzero}
   ]]>
  </style>
 </defs>
 <g id="Слой_x0020_1">
  <metadata id="CorelCorpID_0Corel-Layer"/>
  <g id="_773412592">
   <path class="fil0" d="M28000 48280c-11200,0 -20281,-9080 -20281,-20280 0,-11200 9081,-20281 20281,-20281 11200,0 20280,9081 20280,20281 0,11200 -9080,20280 -20280,20280zm0 -48280c-15464,0 -28000,12536 -28000,28000 0,15464 12536,28001 28000,28001 15463,0 28000,-12537 28000,-28001 0,-15464 -12537,-28000 -28000,-28000z"/>
   <path class="fil1" d="M6775 35977l-2105 712 -262 -773c-85,-250 -101,-467 -50,-651 51,-184 191,-315 419,-392 155,-52 297,-56 427,-10 130,45 236,121 317,227 81,106 148,238 201,394l86 253 794 -269 172 508zm-1370 -103l-72 -214c-83,-244 -209,-337 -379,-279 -161,54 -201,200 -120,438l75 223 497 -168zm854 -1359l-2375 -409 -117 -508 1958 -1399 134 581 -386 266 193 838 462 61 131 569zm-1047 -683l-126 -544 -681 441 807 104zm450 -2537c49,382 -24,695 -216,939l-386 -274c140,-142 197,-318 170,-528 -13,-102 -50,-186 -111,-252 -61,-66 -135,-94 -223,-82 -185,23 -259,182 -221,474l23 178 -383 49 -24 -190c-32,-251 -134,-366 -306,-344 -73,9 -126,49 -161,118 -34,70 -46,145 -36,226 23,185 107,325 250,421l-288 350c-229,-173 -364,-427 -407,-762 -31,-243 -3,-444 85,-602 87,-159 223,-250 408,-273 129,-16 242,4 340,61 98,57 168,137 211,239l9 -1c19,-133 69,-245 149,-335 80,-90 191,-145 332,-162 143,-18 274,8 391,80 118,72 208,167 272,285 64,119 104,247 122,386zm-194 -1184l-2216 169 -62 -814c-20,-263 18,-477 113,-643 95,-166 263,-258 503,-276 163,-12 302,20 417,96 115,76 199,176 251,299 52,123 85,267 97,432l20 266 836 -64 41 535zm-1302 -439l-17 -225c-20,-257 -119,-378 -298,-365 -169,13 -244,144 -225,395l18 235 523 -40zm1199 -1106l-2198 -988 13 -521 2245 -866 -15 596 -441 162 -22 860 432 174 -15 584zm-843 -923l14 -559 -770 257 755 302zm946 -1637l-2205 -280 197 -1551 433 55 -129 1018 417 53 44 -343c31,-247 111,-441 240,-582 129,-141 309,-196 542,-167 226,29 386,129 479,300 93,171 125,377 94,618l-112 878zm-356 -586l36 -286c30,-237 -41,-366 -213,-388 -172,-22 -274,85 -304,322l-36 286 517 66zm942 -2537c-79,341 -250,597 -514,770 -264,173 -567,220 -907,142 -343,-79 -591,-253 -746,-522 -155,-269 -193,-574 -114,-917 80,-345 248,-604 505,-777 257,-174 557,-221 899,-142 341,79 592,254 753,525 162,271 203,578 124,921zm-769 291c153,-86 250,-220 292,-401 42,-181 13,-345 -87,-490 -100,-145 -247,-241 -443,-286 -192,-44 -363,-23 -514,65 -151,88 -248,222 -290,404 -42,181 -14,344 84,488 98,144 243,238 434,282 196,45 370,25 523,-61zm1224 -2119l-1671 -565 -201 595 -434 -147 575 -1698 434 147 -201 595 1671 565 -172 508zm463 -1332l-2025 -916 217 -481 824 372 4 -9 -497 -1096 277 -612 538 1294 1510 -430 -288 638 -1273 331 -3 6 932 422 -217 481zm797 -1792l-1462 -1916 260 -452 2387 308 -297 517 -464 -68 -429 746 297 359 -291 506zm-302 -1213l279 -484 -799 -141 520 625zm2483 -2297l-1680 -1455 1262 -1457 1680 1455 -351 406 -1336 -1157 -559 645 1336 1157 -351 406zm1553 -1813l-1534 -1608 591 -563c191,-182 381,-288 569,-319 189,-31 366,41 532,215 113,118 176,246 190,383 14,137 -10,265 -72,383 -62,118 -153,235 -273,349l-193 184 578 607 -389 370zm-484 -1286l164 -156c186,-178 217,-332 93,-462 -117,-123 -266,-97 -448,76l-170 162 362 379zm2826 -759c-275,216 -569,308 -884,277 -314,-31 -580,-184 -796,-459 -217,-276 -302,-568 -254,-874 48,-306 210,-568 487,-786 278,-219 572,-315 881,-289 309,26 572,177 789,453 216,275 302,569 258,881 -44,313 -205,578 -481,795zm-782 -256c173,29 333,-14 479,-129 146,-115 226,-260 240,-436 14,-176 -42,-343 -166,-501 -122,-155 -269,-245 -441,-272 -173,-27 -332,18 -479,133 -146,115 -227,259 -241,433 -14,173 40,337 161,492 124,158 273,251 446,280zm1989 -744l-1199 -1871 447 -286 789 1231 11 -7 -71 -1692 476 -305 1199 1871 -447 286 -771 -1202 -8 5 57 1660 -484 310zm2727 -1545c-343,176 -662,214 -956,116l126 -456c181,83 366,77 554,-19 91,-47 158,-110 199,-190 41,-80 42,-159 2,-237 -85,-166 -259,-181 -521,-47l-159 82 -176 -344 170 -87c225,-115 298,-250 219,-405 -33,-65 -89,-102 -166,-111 -77,-9 -152,6 -225,43 -166,85 -269,211 -311,378l-427 -152c85,-274 278,-488 578,-642 218,-112 416,-153 595,-125 179,28 311,125 396,291 59,115 78,229 58,341 -20,112 -71,205 -153,279l4 8c132,-27 254,-19 366,26 112,45 201,130 266,257 66,129 85,260 58,395 -27,135 -86,253 -176,353 -90,100 -197,182 -322,246zm1048 -586l-815 -2068 824 -325c88,-35 173,-59 257,-72 83,-14 169,-16 256,-6 87,10 166,43 236,99 71,56 126,134 165,234 44,111 50,216 20,316 -30,100 -91,188 -183,264l2 6c133,-28 256,-15 368,39 112,54 194,146 246,276 42,107 57,210 45,308 -12,98 -48,185 -107,260 -59,75 -130,141 -212,198 -82,57 -175,106 -278,147l-824 325zm323 -593l280 -111c234,-92 318,-220 254,-383 -60,-152 -208,-181 -443,-88l-277 109 187 473zm-332 -841l269 -106c93,-37 158,-85 195,-144 36,-59 40,-125 12,-197 -53,-134 -186,-160 -398,-76l-245 97 168 426zm3032 427c-336,95 -644,69 -923,-79 -279,-148 -467,-390 -562,-726 -96,-338 -64,-640 97,-905 161,-265 410,-446 748,-542 340,-97 648,-74 925,67 276,141 462,381 558,719 95,336 63,641 -96,913 -160,273 -409,457 -747,553zm-626 -534c149,93 313,113 492,62 179,-51 308,-155 388,-312 79,-157 92,-333 37,-526 -54,-189 -155,-329 -305,-419 -150,-90 -314,-110 -493,-59 -179,51 -308,154 -387,309 -79,155 -91,327 -38,517 55,193 157,336 306,429zm1962 606l-164 -918 192 -34c154,-280 183,-692 86,-1233l-99 -556 1656 -296 310 1737 241 -43 164 918 -464 83 -83 -467 -1459 261 83 467 -464 83zm599 -1054l853 -152 -230 -1289 -618 110 31 176c89,496 77,881 -36,1154zm3094 155c-344,26 -637,-61 -879,-262 -242,-201 -376,-474 -402,-818 -27,-348 66,-638 279,-870 212,-231 490,-360 835,-386 161,-12 319,5 474,50 156,46 282,117 380,212l-335 391c-53,-63 -121,-109 -204,-137 -83,-28 -169,-39 -259,-32 -186,14 -334,90 -444,227 -110,137 -158,304 -143,500 15,200 86,359 213,477 126,117 283,169 468,155 207,-16 357,-103 452,-261l399 322c-192,260 -470,404 -833,432zm1565 -73l45 -1764 -628 -16 12 -458 1792 45 -12 458 -628 -16 -45 1764 -537 -14zm1409 49l280 -2205 878 112c93,12 180,32 260,60 80,28 155,67 227,117 72,50 125,117 160,201 35,84 45,178 32,284 -15,118 -60,214 -135,287 -75,73 -170,121 -287,144l-1 6c130,40 231,110 304,211 73,101 100,221 82,360 -15,114 -51,211 -108,292 -58,80 -131,139 -219,176 -88,37 -182,61 -281,72 -99,11 -204,9 -314,-5l-878 -112zm568 -364l299 38c249,32 385,-40 407,-214 21,-162 -95,-259 -346,-291l-296 -38 -64 504zm114 -897l286 36c100,13 180,2 240,-33 60,-35 95,-90 105,-167 18,-143 -86,-229 -312,-258l-262 -33 -58 455zm2454 1825c-341,-79 -597,-250 -770,-514 -173,-264 -220,-567 -142,-907 79,-343 253,-591 522,-746 269,-155 574,-193 917,-114 345,80 604,248 777,505 174,257 221,557 142,899 -79,341 -254,592 -525,753 -271,162 -578,203 -921,124zm-291 -769c86,153 220,250 401,292 182,42 345,13 490,-87 145,-100 241,-247 286,-443 44,-192 23,-363 -65,-514 -88,-151 -222,-248 -404,-290 -181,-42 -344,-14 -488,84 -144,98 -238,243 -282,434 -45,196 -25,370 61,523zm3320 1577l916 -2025 483 219 -603 1333 11 5 1381 -981 515 233 -916 2025 -483 -219 588 -1301 -9 -4 -1361 952 -523 -237zm3126 1589c-299,-172 -492,-409 -579,-712 -87,-302 -44,-603 128,-902 174,-303 414,-490 720,-562 306,-72 608,-22 907,151 140,80 261,183 364,309 103,126 168,255 195,389l-497 134c-8,-82 -39,-158 -91,-228 -53,-70 -118,-128 -196,-172 -161,-93 -326,-113 -495,-62 -168,52 -302,163 -400,333 -100,174 -131,345 -92,514 39,168 138,299 300,392 180,103 353,116 521,39l149 491c-305,107 -616,70 -931,-112zm981 488l1288 -1811 1571 1117 -1288 1811 -437 -311 1024 -1440 -696 -495 -1024 1440 -437 -311zm1936 1394l1455 -1680 406 351 -534 617 214 185c193,167 313,346 361,537 48,191 -7,377 -165,559 -155,179 -332,259 -532,241 -200,-18 -394,-109 -583,-272l-622 -538zm685 29l183 158c188,163 344,173 467,31 122,-141 89,-293 -99,-456l-183 -158 -368 425zm786 1245l1455 -1680 403 349 -1455 1680 -403 -349zm976 1013l1277 -1217 -433 -454 332 -316 1237 1297 -332 316 -433 -454 -1277 1217 -370 -388zm647 694l2323 -640 322 410 -1177 2099 -369 -469 236 -405 -531 -676 -444 141 -361 -459zm1238 173l345 439 429 -688 -774 249zm307 1870l1871 -1199 290 452 -708 454 468 729 708 -454 290 452 -1871 1199 -290 -452 782 -501 -468 -729 -782 501 -290 -452zm1276 2035l2025 -916 219 483 -1333 603 5 11 1685 175 233 515 -2025 916 -219 -483 1301 -588 -4 -9 -1651 -184 -237 -523zm956 2037l1038 239c1,-146 41,-274 119,-382 78,-108 191,-187 337,-237 226,-76 417,-55 572,63 155,119 274,301 357,547l262 773 -2105 712 -172 -508 782 -265 -60 -178 -932 -178 -198 -586zm1503 592l74 220 532 -180 -80 -238c-80,-238 -208,-327 -382,-268 -93,32 -150,89 -170,173 -20,84 -11,182 26,293zm-376 3077l2188 -391 143 803c46,260 30,477 -48,651 -78,175 -236,283 -473,325 -161,29 -302,11 -424,-53 -122,-64 -215,-155 -280,-272 -65,-117 -111,-257 -140,-420l-47 -263 -825 147 -94 -528zm1340 306l40 222c45,253 156,364 334,333 167,-30 228,-168 184,-416l-41 -232 -516 92zm-978 1672l2216 -169 113 1490 -454 35 -74 -973 -416 32 70 920 -429 33 -70 -920 -460 35 78 1030 -457 35 -118 -1546zm193 1900l2222 56 -19 763 -1437 469 0 13 1412 519 -20 775 -2222 -56 13 -524 1572 52 0 -9 -1558 -617 10 -377 1586 -522 0 -9 -1572 -27 13 -505zm-295 4085c44,-347 189,-619 435,-818 246,-199 542,-276 889,-232 349,44 614,192 795,444 181,252 249,552 205,901 -45,351 -186,626 -424,824 -238,199 -532,276 -881,231 -347,-44 -614,-193 -802,-447 -188,-254 -260,-555 -216,-904zm736 -367c-144,101 -227,244 -251,429 -23,185 22,344 135,479 114,135 270,215 469,240 195,25 364,-14 505,-116 142,-102 224,-246 248,-431 23,-185 -21,-344 -132,-477 -112,-133 -265,-212 -460,-237 -199,-25 -371,13 -514,113zm-933 1919l2165 500 -121 523 -820 -189 -195 844 820 189 -121 523 -2165 -500 121 -523 905 209 195 -844 -905 -209 121 -523zm-744 2710l1671 565 201 -595 434 147 -574 1698 -434 -147 201 -595 -1671 -565 172 -508z"/>
   <path class="fil1" d="M6872 41386l2749 -658 361 493 -1463 2414 -413 -564 293 -466 -596 -814 -526 148 -405 -552zm1444 252l387 529 530 -790 -918 261zm354 2155l1986 -1688 672 791c72,84 131,170 178,257 47,87 82,181 104,281 22,100 16,200 -20,300 -36,100 -102,190 -197,271 -107,91 -221,138 -343,142 -122,4 -243,-30 -363,-103l-6 5c81,137 113,278 96,423 -17,145 -88,271 -213,377 -103,87 -211,143 -324,167 -113,24 -223,17 -329,-20 -106,-37 -206,-91 -300,-160 -95,-69 -184,-154 -268,-253l-672 -791zm781 134l229 269c191,224 365,270 522,136 146,-124 123,-299 -70,-525l-227 -267 -454 386zm808 -687l219 258c76,90 154,144 234,161 80,18 154,-3 223,-62 129,-110 107,-266 -66,-470l-200 -236 -410 348zm36 2385l1803 -1883 450 430 -1186 1239 11 10 1910 -547 479 458 -1803 1883 -449 -430 1158 -1210 -8 -8 -1877 523 -487 -466zm1844 1719l2410 -1478 496 357 -643 2748 -568 -408 134 -534 -819 -589 -454 304 -556 -400zm1451 -208l532 383 259 -916 -791 533zm2432 3452l275 -483 -1732 -985 1288 -2266 547 311 -1023 1799 871 495 1023 -1799 547 311 -1023 1799 246 140 -540 951 -480 -273zm1081 -94l1067 -2378 568 255 -702 1565 13 6 1616 -1155 605 271 -1067 2378 -568 -255 686 -1528 -10 -5 -1593 1122 -615 -276zm3832 1559c-395,-111 -686,-326 -874,-645 -188,-319 -227,-676 -116,-1071 112,-397 329,-679 652,-846 323,-167 684,-194 1081,-83 399,112 694,324 883,634 189,311 228,665 117,1062 -111,395 -330,679 -657,854 -327,175 -689,206 -1086,95zm-299 -918c92,184 244,306 454,365 210,59 403,34 579,-74 176,-109 296,-276 359,-503 62,-222 46,-424 -48,-606 -94,-182 -246,-303 -457,-362 -210,-59 -402,-35 -576,71 -174,107 -292,271 -355,493 -64,227 -49,432 43,616zm2098 1304l488 -2561 618 118 -185 969 998 190 185 -969 618 118 -488 2561 -618 -118 204 -1071 -998 -190 -204 1071 -618 -118zm2779 419l216 -2598 627 52 -82 983 1013 84 82 -983 627 52 -216 2598 -627 -52 90 -1086 -1013 -84 -90 1086 -627 -52zm4108 143c-409,28 -756,-76 -1040,-314 -285,-237 -441,-561 -469,-970 -28,-411 82,-750 330,-1016 249,-266 579,-413 990,-441 414,-29 762,72 1045,301 283,229 438,549 467,961 28,409 -82,751 -331,1025 -249,274 -580,426 -991,454zm-590 -764c149,142 332,206 550,191 218,-15 391,-103 521,-265 129,-162 186,-360 169,-595 -16,-230 -99,-415 -249,-555 -150,-140 -334,-202 -552,-187 -218,15 -391,102 -519,261 -128,159 -184,354 -168,584 16,235 99,424 248,566zm2416 539l-488 -2561 611 -117 321 1685 14 -3 662 -1873 651 -124 488 2561 -611 117 -314 -1646 -11 2 -663 1832 -662 126zm979 -3182c-95,106 -228,175 -399,207 -171,33 -321,17 -449,-46 -128,-63 -222,-176 -280,-340l296 -120c24,73 69,126 135,158 66,32 145,40 237,22 89,-17 159,-53 208,-107 50,-54 72,-120 67,-197l323 2c3,174 -43,314 -137,420zm3153 2218l-662 -1960 -698 236 -172 -509 1992 -673 172 509 -698 236 662 1960 -597 202zm1559 -550l-1042 -2389 1606 -701 213 489 -1050 458 196 449 992 -433 202 462 -992 433 216 496 1110 -484 215 493 -1667 727zm1800 -730l92 -1650 -1346 -637 655 -383 829 453 4 -941 632 -370 -90 1478 1509 712 -670 393 -958 -506 -8 1072 -648 380zm2488 -1466l-1522 -2116 511 -368 576 801 825 -593 -576 -801 511 -368 1522 2116 -511 368 -636 -885 -825 593 636 885 -511 368zm2259 -1676l-1665 -2005 479 -398 1096 1320 11 -9 -326 -1960 510 -423 1665 2005 -479 398 -1070 -1289 -8 7 306 1924 -518 430zm2134 -1875l-1967 -1710 406 -467 800 696 7 -8 -189 -1399 517 -595 169 1635 1842 25 -539 620 -1541 -57 -5 6 906 788 -406 467zm1719 -1977l-2129 -1504 359 -508 1401 990 8 -12 -824 -1808 382 -541 2129 1504 -359 508 -1368 -967 -6 9 795 1779 -389 550z"/>
   <path class="fil2" d="M6819 38340c298,0 540,242 540,540 0,298 -242,540 -540,540 -298,0 -540,-242 -540,-540 0,-298 242,-540 540,-540z"/>
   <path class="fil2" d="M48902 38340c298,0 540,242 540,540 0,298 -242,540 -540,540 -298,0 -540,-242 -540,-540 0,-298 242,-540 540,-540z"/>
   <path class="fil2" d="M50868 21556c188,0 340,152 340,340 0,188 -152,340 -340,340 -188,0 -340,-152 -340,-340 0,-188 152,-340 340,-340z"/>
   <path class="fil2" d="M35234 5102c188,0 340,152 340,340 0,188 -152,340 -340,340 -188,0 -340,-152 -340,-340 0,-188 152,-340 340,-340z"/>
   <path class="fil2" d="M8320 14467c188,0 340,152 340,340 0,188 -152,340 -340,340 -188,0 -340,-152 -340,-340 0,-188 152,-340 340,-340z"/>
   <path class="fil0" d="M38239 13320l-2971 1907c-190,123 -360,279 -496,462l-4434 5934 -18156 436c-328,9 -638,166 -834,431l-850 1137c-450,602 -159,1469 565,1674l13618 3888 -3142 4202 -6414 926c-282,41 -535,193 -707,419l-458 616c-456,610 -151,1484 581,1679l5746 1538 3100 5077c394,647 1322,692 1774,83l461 -617c171,-229 242,-515 202,-797l-926 -6414 3142 -4202 7581 11966c402,636 1315,671 1766,68l850 -1137c198,-265 261,-604 177,-921l-4720 -17538 4437 -5934c137,-183 238,-386 303,-607l989 -3389c173,-579 -328,-1077 -856,-1007l-2 0c-109,15 -220,54 -326,122z"/>
   <path class="fil3" d="M39970 18074l1648 -1202 413 566 -784 1146 7 9 1319 -412 419 575 -1648 1202 -284 -389 1173 -841 -5 -7 -1479 422 -204 -279 863 -1267 -5 -7 -1160 860 -273 -375zm-21279 -2928c-99,63 -184,105 -255,125l-186 -367c40,-9 77,-25 113,-48 66,-42 107,-97 123,-164 15,-67 -2,-167 -51,-300 -50,-133 -139,-301 -267,-501l-387 -607 1312 -837 1097 1720 -415 265 -872 -1368 -498 318 152 238c263,413 404,737 422,973 18,236 -77,420 -286,553zm1870 -1179l-829 -1864 445 -198 546 1227 11 -5 171 -1545 474 -211 829 1864 -445 198 -533 -1198 -8 4 -178 1514 -482 214zm3660 -872l-114 -420 -1504 409 -535 -1969 475 -129 425 1563 756 -206 -425 -1563 475 -129 425 1563 214 -58 225 826 -417 113zm566 -599l-260 -2023 1360 -175 53 414 -889 114 49 380 840 -108 50 392 -840 108 54 420 940 -121 54 417 -1412 181zm1736 -221l-34 -2040 493 -8 13 772 795 -13 -13 -772 493 -8 34 2040 -493 8 -14 -853 -795 13 14 853 -493 8zm2853 111c-351,-40 -614,-173 -790,-398l328 -284c96,156 241,245 434,267 94,11 176,-4 249,-44 72,-40 113,-100 122,-180 19,-170 -105,-270 -375,-301l-163 -19 40 -352 175 20c231,26 355,-40 374,-198 8,-67 -16,-123 -71,-169 -55,-46 -119,-73 -194,-82 -170,-19 -313,24 -430,131l-249 -333c205,-166 461,-232 768,-196 223,26 396,95 519,207 122,113 174,254 155,424 -14,118 -56,215 -129,290 -72,75 -159,120 -259,136l-1 9c115,46 203,115 266,206 63,91 87,202 72,332 -15,132 -67,242 -157,332 -89,89 -194,149 -314,180 -120,31 -243,39 -371,24zm1102 69l482 -1982 473 115 -317 1305 11 3 1079 -1120 504 123 -482 1982 -473 -115 310 -1274 -8 -2 -1066 1090 -512 -125zm2010 482l784 -585c-102,-88 -167,-191 -196,-310 -29,-119 -18,-245 35,-377 81,-204 209,-324 384,-362 175,-38 374,-13 595,75l697 276 -752 1897 -458 -182 279 -705 -161 -64 -678 546 -528 -209zm1307 -700l198 79 190 -480 -214 -85c-214,-85 -353,-49 -415,108 -33,84 -26,158 21,222 47,64 120,116 220,156zm7724 8114l1845 -870 208 441 -1215 572 5 10 1549 137 221 469 -1845 870 -208 -441 1186 -559 -4 -8 -1518 -145 -225 -477zm909 2026l1934 -649 157 467 -732 246 253 754 732 -246 157 467 -1934 649 -157 -467 809 -271 -253 -754 -809 271 -157 -467zm634 2107l2006 -370 321 1740 -2006 370 -89 -485 1595 -294 -142 -771 -1595 294 -89 -485zm344 2163l2039 -61 22 749c7,242 -37,437 -131,585 -95,148 -252,225 -473,232 -150,4 -276,-31 -378,-106 -102,-75 -175,-170 -217,-285 -43,-115 -67,-248 -71,-400l-7 -245 -769 23 -15 -493zm1175 458l6 207c7,236 93,352 258,347 156,-5 230,-122 223,-353l-6 -216 -481 14zm-1284 2392c29,-320 153,-575 371,-765 219,-191 488,-271 807,-243 321,29 569,156 744,381 175,225 247,498 218,820 -29,323 -150,580 -362,770 -212,190 -479,271 -800,242 -320,-29 -570,-156 -751,-383 -181,-227 -257,-501 -228,-822zm663 -361c-128,97 -200,231 -216,402 -15,170 31,315 140,435 109,120 255,188 439,204 180,16 333,-25 460,-123 127,-99 197,-233 213,-403 15,-170 -30,-315 -137,-433 -107,-119 -250,-186 -430,-202 -184,-17 -340,24 -468,121zm-735 1809l1952 595 -204 670 -1387 63 -3 11 1122 806 -207 681 -1952 -595 140 -460 1378 432 3 -8 -1226 -928 101 -331 1531 -73 3 -8 -1384 -410 135 -444zm-963 2980l1471 677 241 -523 382 176 -688 1494 -382 -176 241 -523 -1471 -677 206 -448zm-1048 1955c159,-278 378,-459 656,-541 278,-82 557,-43 835,116 280,160 453,379 517,656 65,277 17,556 -143,836 -161,282 -378,465 -650,549 -272,85 -548,47 -828,-114 -278,-159 -453,-380 -523,-661 -70,-281 -25,-562 135,-842zm753 -52c-157,35 -278,127 -363,275 -85,148 -103,300 -54,454 49,154 154,277 314,369 157,90 313,116 469,79 156,-37 277,-129 362,-278 85,-148 103,-299 56,-451 -48,-152 -150,-273 -307,-363 -160,-92 -319,-120 -476,-85zm-1490 1284l1615 1246 -458 593c-148,192 -305,315 -472,369 -167,54 -338,14 -513,-121 -119,-92 -194,-199 -225,-321 -32,-123 -27,-242 12,-358 40,-116 106,-234 199,-354l150 -194 -609 -470 301 -390zm619 1099l-127 164c-144,187 -151,331 -20,432 123,95 255,51 396,-131l132 -171 -381 -294zm-1802 313l1481 1403 -882 931 -305 -289 543 -573 -1175 -1114 339 -358z"/>
  </g>
 </g>
</svg>
