<?xml version="1.0" encoding="UTF-8"?>
<!DOCTYPE svg PUBLIC "-//W3C//DTD SVG 1.1//EN" "http://www.w3.org/Graphics/SVG/1.1/DTD/svg11.dtd">
<!-- Creator: CorelDRAW X6 -->
<svg xmlns="http://www.w3.org/2000/svg" xml:space="preserve" width="560mm" height="560mm" version="1.1" style="shape-rendering:geometricPrecision; text-rendering:geometricPrecision; image-rendering:optimizeQuality; fill-rule:evenodd; clip-rule:evenodd"
viewBox="0 0 56000 56000"
 xmlns:xlink="http://www.w3.org/1999/xlink">
 <defs>
  <style type="text/css">
   <![CDATA[
    .fil0 {fill:#40495B}
   ]]>
  </style>
 </defs>
 <g id="Слой_x0020_1">
  <metadata id="CorelCorpID_0Corel-Layer"/>
  <g id="_826825088">
   <path class="fil0" d="M26760 20113c229,-225 460,-322 848,-396 1162,-218 2189,912 1392,1776 -439,475 -855,378 -1494,380 -429,3 -923,-384 -1039,-839 -102,-405 95,-727 294,-922zm-834 423c-192,981 628,1739 1404,1888l-1 392 -2182 3 0 908 2255 6c41,615 7,1365 7,1996l10 4001c1,172 7,351 3,520 -3,188 -76,225 -178,328 -155,163 -329,310 -576,413 -525,219 -1207,34 -1547,-253l-1095 -904c-740,-529 -1919,-850 -3018,-962 58,78 117,130 192,212l194 225c127,150 240,293 364,451 470,605 914,1280 1309,1949 168,283 460,767 569,1062 52,-105 199,-1694 244,-1980 422,181 2688,2623 4020,2633 832,7 1815,-666 2286,-1033 320,-250 618,-495 900,-754 168,-151 739,-667 904,-758 62,77 109,351 133,474 97,472 237,989 323,1454 117,-450 176,-784 330,-1201 138,-375 303,-717 492,-1040 277,-470 1005,-1389 1469,-1594 -336,-7 -1379,219 -1689,312 -471,140 -985,436 -1294,700 -542,462 -363,451 -1128,898 -482,280 -990,406 -1545,106 -224,-121 -420,-291 -568,-444 -119,-122 -168,-123 -167,-347 2,-1476 -41,-2995 -49,-4472 -3,-639 -44,-1363 -11,-1992 341,-69 1672,36 2140,-20l-7 -914 -2111 -1c-1,-119 -13,-266 18,-352 391,-156 710,-188 1077,-598 248,-276 488,-706 405,-1257 -121,-813 -960,-1427 -1909,-1438 -974,-11 -1816,563 -1976,1380z"/>
   <path class="fil0" d="M23036 24971c601,-103 1168,174 1256,693 226,1349 -1998,1427 -2151,376 -100,-686 328,-973 895,-1069zm-830 2352c132,14 352,113 504,143 1089,219 2807,-233 2781,-1665 -25,-1410 -1774,-1788 -2866,-1527 -169,40 -364,150 -491,170l-6 -184 -1090 1 -8 4270 1167 1 9 -1209z"/>
   <path class="fil0" d="M34342 28131c508,-351 597,-720 773,-1214 -108,-37 -859,-201 -971,-198 -106,662 -532,1048 -1314,967 -684,-71 -1029,-501 -1063,-1218 -34,-754 261,-1263 888,-1389l546 -32c734,54 776,590 910,798l927 -182c-27,-374 -420,-910 -812,-1137 -1143,-672 -3538,-250 -3439,1944 99,2195 2516,2377 3553,1662z"/>
   <path class="fil0" d="M47622 34953c-64,191 -99,324 -104,403 -7,78 7,142 39,188 33,48 88,86 165,112 107,36 195,25 264,-31 68,-58 135,-187 203,-386l112 -331 -594 -202 -84 247z"/>
   <path class="fil0" d="M22811 7953c114,115 268,149 462,103 195,-44 319,-143 370,-295 52,-152 45,-374 -22,-665 -68,-291 -157,-494 -270,-607 -113,-115 -267,-150 -463,-103 -196,45 -319,144 -371,295 -52,151 -44,373 24,665 66,290 157,494 271,607z"/>
   <polygon class="fil0" points="46899,37869 47974,38041 47207,37268 "/>
   <path class="fil0" d="M48972 35830c58,-55 110,-153 156,-294l106 -311 -511 -174 -100 298c-49,144 -65,258 -48,342 16,83 74,142 174,176 90,31 165,18 223,-37z"/>
   <path class="fil0" d="M13697 11140c-151,131 -215,277 -189,436 24,158 134,350 330,577 195,225 370,362 524,409 154,48 305,6 456,-124 151,-132 214,-277 189,-437 -25,-157 -135,-349 -330,-576 -195,-225 -370,-362 -522,-410 -152,-48 -306,-6 -457,126z"/>
   <path class="fil0" d="M42392 11981c72,28 140,28 203,1 62,-27 133,-86 212,-177 92,-107 130,-211 112,-309 -18,-101 -104,-216 -260,-351l-194 -168 -553 639 158 139c144,123 250,200 322,227z"/>
   <path class="fil0" d="M16174 9451c-100,-10 -236,40 -409,150l-216 140 456 711 176 -113c160,-102 262,-184 309,-245 47,-61 66,-126 60,-194 -10,-68 -45,-153 -112,-255 -75,-119 -164,-184 -264,-195z"/>
   <path class="fil0" d="M9067 37677c271,-123 452,-252 540,-386 89,-134 92,-293 11,-474 -83,-184 -205,-285 -364,-305 -158,-21 -374,30 -645,153 -272,123 -452,251 -542,385 -89,133 -92,291 -8,475 82,182 203,286 361,305 160,21 374,-30 646,-153z"/>
   <path class="fil0" d="M29089 5806l-257 -7 -21 847 210 4c188,6 319,-4 391,-28 74,-24 127,-68 158,-129 31,-61 48,-151 51,-271 4,-142 -32,-245 -110,-311 -76,-64 -217,-101 -422,-105z"/>
   <path class="fil0" d="M46267 18174l378 740 1490 -765 -232 -451c-356,163 -673,279 -954,347 -279,68 -508,110 -683,130z"/>
   <path class="fil0" d="M48720 19931c-156,-30 -374,11 -652,120 -276,111 -464,231 -559,359 -96,130 -107,287 -34,473 73,188 189,295 347,324 158,28 375,-12 652,-122 278,-109 464,-228 560,-356 96,-129 106,-287 32,-474 -73,-188 -189,-295 -347,-324z"/>
   <path class="fil0" d="M9915 39195c-61,-47 -126,-67 -193,-59 -69,10 -152,45 -254,112 -118,75 -184,164 -195,264 -10,101 40,238 150,410l140 216 710 -457 -113 -177c-102,-160 -183,-263 -244,-310z"/>
   <path class="fil0" d="M53749 31550c-308,235 -610,496 -904,723l-34 -69c-126,-372 12,-967 154,-1290 384,-870 1215,-1566 1942,-2133 188,-146 271,-281 553,-119 756,441 -1298,2573 -1710,2888zm1462 -464c773,373 -580,1809 -893,2096 -423,388 -1484,1188 -2015,1413 -292,-283 -180,-892 82,-1276 318,-465 686,-730 1080,-1066 395,-339 1060,-796 1422,-1144 106,-103 159,-102 324,-22zm-653 3843c-496,699 -996,906 -1070,980 -79,79 -128,117 -233,185 -171,113 -334,212 -521,318 -206,119 -917,529 -1129,567 -182,-1061 634,-1713 1164,-2114 490,-370 936,-646 1432,-1058 114,-93 209,-301 540,-51 370,279 -8,922 -185,1173zm-823 2558c-264,341 -490,548 -858,799 -550,372 -526,331 -1109,519 -286,93 -1139,483 -1163,485 -73,-1483 1627,-1901 2859,-2864 186,-146 284,-299 566,-78 344,269 -159,963 -295,1139zm-145 1402c731,737 -2068,1786 -2630,1947 -214,61 -438,98 -662,153 -182,47 -482,143 -659,162 340,-1610 2280,-2039 3673,-2362 151,-35 186,8 278,101zm-2707 3623c-636,228 -1975,519 -2728,515 -16,-581 203,-847 550,-1069 740,-469 2369,-734 3395,-1024 160,-44 193,11 282,103 582,594 -1036,1310 -1500,1475zm-475 1598c-347,242 -909,471 -1368,559 -161,31 -176,0 -344,52 -454,140 -1680,185 -2176,191 128,-835 1022,-1211 1730,-1387 662,-166 1271,-232 1924,-392 292,-72 387,-181 577,31 352,390 -106,779 -344,946zm-2945 2437c-806,180 -1314,66 -2160,85 -255,4 -498,53 -728,51 54,-393 396,-728 670,-882 651,-365 1737,-393 2556,-506 234,-32 425,-67 645,-116 312,-71 347,-166 548,48 543,575 -1020,1205 -1530,1321zm-1936 1670c-904,92 -1163,106 -2040,11 -238,-25 -456,-28 -696,-47 236,-577 1024,-966 1790,-1100 440,-78 909,-83 1387,-68l1013 76c168,14 190,-8 262,112 474,782 -1247,967 -1717,1015zm-2122 1634c-992,1 -1762,-183 -2640,-356 28,-385 385,-680 697,-795 816,-297 2450,-44 3383,32 424,35 467,-64 581,195 332,754 -1407,922 -2021,924zm-728 1309c-423,163 -1157,221 -1654,152 -89,-13 -99,-28 -150,-44 -103,-31 -262,-12 -362,-31 -233,-37 -460,-83 -683,-134 -103,-23 -207,-51 -314,-78l-862 -248c-78,-35 -35,-10 -75,-51 200,-191 301,-426 754,-604 744,-294 1688,-101 2454,0 442,57 813,85 1271,116 257,421 222,693 -378,922zm-1924 1060c-135,131 -354,215 -571,271 -738,195 -1430,126 -2166,-62 -250,-65 -1036,-556 -1812,-688 83,-228 522,-479 850,-546 992,-201 2365,403 3652,437 92,174 260,379 48,587zm-2725 1223c-653,110 -2249,-406 -2770,-676 -156,-79 -305,-157 -456,-235 -136,-71 -374,-151 -466,-249 491,-399 1566,-263 2163,-75 711,227 1198,516 1806,812 26,291 -21,380 -278,423zm-2232 604c-803,140 -2116,-491 -2785,-881l-799 -508c-100,-68 -65,-24 -103,-115 301,-231 562,-352 1095,-245 388,79 715,225 1034,375 319,150 624,313 933,474 323,168 628,305 941,461 22,307 -40,390 -316,438zm-4304 -100c-119,-99 -304,-163 -440,-249l-842 -588c-70,-54 -120,-92 -195,-152 -92,-73 -152,-103 -202,-194 852,-323 1364,-149 2193,295 310,167 592,340 897,509l703 359c58,45 50,31 54,133 31,810 -1865,137 -2167,-115zm-663 655c-652,78 -1757,-410 -2213,-810 -130,-113 -243,-249 -390,-376 -279,-242 -439,-385 -742,-589 -90,-59 -65,-24 -107,-103 824,-293 1330,-57 2074,426 820,532 800,548 1699,1038 20,304 -41,380 -322,414zm-4006 -543c-626,-440 -706,-502 -1206,-1015 -88,-89 -303,-283 -377,-389 70,-50 184,-55 270,-60 305,-17 559,10 835,92 371,109 670,271 957,469 277,190 510,389 738,595 196,180 525,544 683,673 -16,932 -1698,-225 -1900,-366zm-439 482c-318,621 -1771,-500 -1964,-669 -313,-276 -1263,-1259 -1398,-1588 287,-239 823,-137 1176,55 563,308 1129,943 1569,1394l563 546c98,88 135,106 55,262zm-3414 -328c-338,-160 -894,-563 -1061,-840 -57,-92 -110,-103 -188,-181 -165,-164 -600,-779 -753,-1019l-200 -332c18,-12 20,-16 58,-28 277,-91 790,44 1057,180 303,156 540,375 762,597 296,301 1081,1247 1324,1389 -42,549 -644,406 -998,236zm-2462 -594c-384,-208 -608,-404 -858,-675 -436,-473 -814,-1129 -1128,-1713 -44,-81 -38,-103 -11,-146 721,-186 1366,449 1748,926 282,354 951,1303 1244,1471 -22,597 -711,291 -996,136zm-2613 -767c-416,-420 -834,-1167 -1094,-1722l-367 -1054c720,44 1292,618 1578,1054 183,280 319,537 447,863 85,212 318,778 332,995 -151,98 -316,447 -896,-136zm-1276 -660c-535,426 -1239,-752 -1420,-1112 -192,-384 -615,-1625 -612,-2134 504,-17 752,109 986,378 219,250 350,526 490,870 200,488 344,1023 530,1519 80,215 202,340 26,479zm-2069 -1233c-622,509 -1335,-802 -1468,-1266 -34,-120 -6,-141 -58,-261 -134,-314 -325,-1426 -275,-1709 1298,161 1432,1768 1782,2773 72,209 196,317 18,463zm-2014 -1327c-515,411 -1137,-700 -1281,-1095 -141,-383 -174,-648 -171,-1096 3,-488 -59,-764 -104,-1203 372,35 672,265 823,467 453,603 466,1624 721,2468 62,208 184,323 13,460zm-3075 -8821l-511 -798c-154,-242 -216,-462 -188,-665 28,-202 166,-384 418,-546 254,-163 481,-225 682,-183 200,40 387,197 560,467l226 354 655 -420 275 430 -2117 1361zm1209 7446c-385,232 -560,140 -759,-202 -142,-245 -245,-590 -308,-906 -162,-812 -171,-1396 -120,-2280 504,168 896,699 1063,1243 207,682 158,1389 124,2146zm-1628 -1433c-687,529 -1017,-629 -1084,-1212 -42,-389 -38,-811 7,-1201 21,-201 41,-382 75,-568 34,-184 83,-371 104,-543 700,54 890,624 947,1332 35,451 -54,1553 -50,2192zm-1397 -9112c-154,-342 -164,-639 -27,-892 135,-253 394,-465 773,-638 399,-180 735,-231 1010,-153 275,79 485,280 629,601 154,341 161,636 24,891 -137,255 -394,468 -772,638 -378,173 -708,227 -988,162 -281,-67 -497,-269 -650,-608zm-55 6338c-44,370 -34,679 -66,1047 -317,136 -574,235 -842,-255 -176,-323 -298,-1064 -210,-1365 55,-191 18,-69 25,-287 7,-250 144,-817 212,-1076 27,-103 99,-431 168,-509 962,401 814,1595 714,2445zm-1225 -2604c-55,293 -114,580 -165,866 -60,340 -63,600 -92,952 -334,157 -557,236 -790,-341 -98,-243 -258,-861 -126,-1147 236,-503 419,-884 611,-1410l126 -393c7,-23 10,-36 18,-55 30,-65 11,-31 41,-65 185,111 326,336 398,623 66,270 37,669 -21,970zm-1314 -259c-152,338 -127,368 -347,402 -1003,157 -572,-1611 -447,-2132 94,-394 197,-791 354,-1130 83,-182 385,-922 466,-1025 69,34 47,23 104,79 1047,1031 370,2700 -130,3806zm-1512 -1730c-1062,164 -543,-1722 -348,-2253 302,-817 713,-1434 1116,-2090 341,110 642,465 653,938 8,433 -185,953 -323,1288 -158,376 -329,738 -498,1106l-354 829c-59,161 -51,153 -246,182zm-745 -2478c-79,30 -274,48 -374,32 -660,-102 -466,-1222 -275,-1747 40,-112 70,-182 113,-281 107,-253 96,-171 158,-263 38,-57 72,-200 114,-280 184,-349 946,-1507 1142,-1650 251,200 473,669 449,1139 -45,833 -814,1921 -1173,2805 -18,45 -31,91 -54,144 -36,87 -14,69 -100,102zm-1096 -2475c-456,-57 -390,-791 -312,-1211 85,-457 270,-806 477,-1154 264,-443 823,-901 1327,-1709 46,-75 52,-86 111,-120 130,81 264,320 326,501 333,997 -878,2202 -1408,3389 -65,146 -51,363 -520,304zm-746 -2492c-731,-259 426,-1929 601,-2181 539,-772 562,-730 1119,-1328 73,-79 326,-378 418,-416 140,443 315,694 121,1373 -269,946 -1027,1717 -1685,2389 -168,171 -216,290 -574,163zm-329 -3511c203,-419 444,-736 705,-1048l416 -446c332,-331 564,-523 910,-819 104,-89 396,-348 536,-375 195,328 497,563 120,1277 -414,782 -1441,1640 -2032,2314 -68,79 -136,160 -208,238 -110,124 -1105,201 -448,-1141zm-60 -2430c209,-448 477,-762 769,-1059 150,-152 110,-45 240,-202 261,-315 1607,-1327 1837,-1391 154,499 188,812 -51,1277 -402,784 -1569,1625 -2270,2440 -746,-11 -803,-464 -525,-1064zm342 -2573c238,-469 481,-727 816,-1038 721,-675 964,-706 1661,-1105 160,-90 472,-318 601,-362 295,943 -284,1464 -974,2042 -286,242 -601,470 -888,717 -255,220 -608,516 -811,788 -819,11 -669,-522 -405,-1042zm374 -1849c-563,-481 948,-1464 1332,-1707 748,-477 862,-513 1624,-817 175,-69 433,-204 595,-246 -27,949 -734,1578 -1325,1962 -325,211 -690,396 -1068,563 -192,85 -375,158 -576,239 -277,111 -350,208 -583,7zm3778 4935c-35,-47 -104,-75 -205,-82l32 -429c92,7 174,41 246,102 72,61 127,142 165,243 37,102 51,218 41,349 -10,127 -41,241 -93,335 -52,96 -118,168 -199,218 -80,48 -166,69 -258,62l33 -429c178,14 272,-55 284,-208 6,-61 -10,-116 -45,-162zm-3016 -7629c186,-566 1219,-1188 1846,-1464 654,-290 1178,-445 1864,-628 31,-8 150,-40 168,-40 99,2 89,-10 104,129 14,130 9,283 -21,398 -247,939 -2060,1475 -3079,1896 -120,50 -491,253 -600,228 -134,-31 -378,-229 -282,-519zm1688 -2957c270,-247 610,-440 996,-607 116,-51 171,-81 300,-102 133,-20 168,-65 277,-110 292,-122 1070,-299 1417,-359l42 -7c202,-41 323,-77 548,-95 -100,1476 -2040,1756 -3348,2306 -277,116 -310,214 -543,-10 -374,-355 111,-832 312,-1017zm1504 -2222c494,-397 982,-601 1613,-758 189,-47 998,-103 1403,-178 218,-40 471,-133 690,-149 -61,904 -914,1267 -1700,1494 -412,119 -827,215 -1238,339 -206,62 -402,126 -590,200 -268,106 -334,223 -568,21 -380,-331 204,-819 391,-969zm2562 -2474c797,-208 1136,-269 1940,-305 247,-11 466,-45 716,-51 -182,690 -985,1155 -1632,1363 -669,218 -1256,247 -1946,300 -382,30 -505,82 -628,-88 -497,-683 1109,-1103 1549,-1219zm-44 -1102c216,-409 1118,-665 1558,-764 934,-209 1920,-134 2914,-86 44,392 -286,731 -530,872 -584,341 -1740,396 -2452,420 -428,14 -930,95 -1339,96 -85,-123 -272,-305 -150,-539zm1960 -1814c192,-455 1101,-704 1575,-751 308,-31 1188,-36 1506,-17 470,30 919,112 1377,172 -86,383 -631,803 -1092,932 -588,164 -1228,157 -1888,160 -222,0 -445,3 -666,8 -237,7 -410,58 -649,45 -79,-137 -268,-301 -162,-550zm2128 -1721c286,-400 1239,-622 1740,-635 480,-11 1030,34 1460,117 195,38 1244,214 1329,260 -61,267 -430,572 -677,685 -645,295 -1695,165 -2410,117 -461,-31 -876,12 -1310,15 -94,-133 -299,-328 -132,-560zm2787 -1929c689,-365 1287,-204 2098,26 639,181 1301,498 1995,598 -99,284 -549,547 -903,631 -1279,304 -2625,-374 -4022,-344 66,-331 552,-761 831,-911zm1586 -1027c517,-420 1378,-528 1991,-233 659,317 1369,750 1997,963l240 79c4,2 1,0 6,3 7,3 7,4 27,14 3,1 13,14 16,10 1,-6 10,6 14,10 -487,651 -1545,510 -2345,283 -376,-106 -764,-249 -1128,-377 -264,-95 -913,-262 -1202,-283 13,-153 272,-375 385,-468zm3075 -1267c528,-69 1022,88 1422,251 501,202 1796,989 2068,1318 -100,114 -406,212 -548,247 -232,55 -456,69 -713,64 -484,-14 -904,-137 -1291,-275 -368,-133 -738,-317 -1050,-506 -264,-161 -818,-387 -975,-482 -40,-24 -24,-13 -46,-36 169,-250 704,-524 1133,-581zm3068 -488c97,30 180,58 279,95 55,21 85,35 140,59 515,219 1118,491 1554,813 102,75 780,528 841,627 -824,392 -1582,206 -2332,-167 -261,-129 -1373,-826 -1571,-1021 -56,-55 -312,-833 1090,-406zm1477 -572c256,-31 511,30 728,95 404,120 770,308 1095,509 371,232 522,362 833,600 228,177 817,674 941,857 -78,127 -277,239 -478,285 -236,55 -487,6 -682,-57 -910,-297 -2098,-1438 -2762,-1778 -11,-301 40,-477 324,-512zm3230 -93c406,127 773,352 1064,568 120,89 79,112 222,196 92,55 155,105 230,167 151,129 290,259 424,390 137,131 728,712 780,864 -448,138 -735,209 -1231,34 -821,-288 -1651,-1212 -2520,-1748 -34,-657 511,-635 1032,-472zm1872 -27c586,-35 1360,435 1741,758 542,458 641,758 1162,1331 87,96 358,331 396,413 -1417,649 -2601,-1479 -3645,-1998 -33,-320 42,-485 346,-504zm4844 1971c104,153 198,287 303,437 75,106 275,334 296,437l-292 18c-1082,81 -2130,-1121 -2643,-1863l-30 -42c-3,-4 -7,-12 -10,-16l-114 -160c-174,-252 -272,-313 -210,-477 378,-1013 2426,1266 2700,1665zm-342 -1451c241,-392 850,21 1078,192 306,229 550,472 807,773 233,270 1146,1596 1221,1996 -556,184 -838,92 -1224,-214 -488,-387 -1043,-1237 -1414,-1772 -108,-157 -210,-303 -329,-459 -130,-171 -296,-259 -140,-516zm2475 627c290,-345 868,57 1079,220 617,478 792,966 881,1071 66,73 107,136 162,233 193,335 672,1263 736,1563 -522,35 -904,-115 -1200,-358 -217,-178 -400,-394 -562,-623 -42,-61 -100,-138 -154,-218 -210,-314 -392,-623 -604,-950 -392,-604 -597,-631 -340,-938zm2400 824c254,-335 867,153 1037,296 282,236 504,498 713,843 238,393 874,1751 916,2188 -566,14 -859,-149 -1140,-433 -342,-345 -652,-963 -904,-1441 -88,-165 -175,-330 -270,-495 -387,-670 -586,-649 -352,-958zm2670 1018c562,-478 1153,959 1322,1381 131,325 275,730 362,1073l229 1215c-93,-21 -216,-54 -291,-89 -85,-36 -160,-76 -246,-129 -918,-577 -1259,-1898 -1421,-2879 -44,-260 -137,-417 44,-572zm1960 1226c588,-479 1160,887 1310,1366 203,653 380,1759 360,2530 -878,41 -1165,-806 -1339,-1554 -165,-707 -237,-1361 -416,-2104 -32,-134 3,-168 86,-238zm1906 7555c289,10 558,156 800,437 161,186 261,365 301,538 38,171 34,332 -16,481l-494 -97c28,-102 42,-184 40,-246 -3,-62 -17,-123 -44,-182 -26,-59 -66,-121 -123,-187 -134,-156 -286,-231 -456,-226 -171,4 -371,107 -605,310 -216,188 -346,366 -385,536 -41,170 10,338 155,506 99,113 196,182 292,206 99,27 205,34 320,24l40 502c-191,24 -367,2 -528,-68 -159,-69 -314,-191 -464,-365 -510,-588 -435,-1169 224,-1743 338,-293 652,-434 942,-425zm34 -5957c686,-544 1220,958 1336,1604 24,139 -16,137 18,273 122,489 100,1475 89,1992 -268,47 -716,-406 -817,-547 -192,-263 -316,-631 -394,-1019 -142,-737 -155,-1242 -339,-2081 -27,-126 24,-157 106,-222zm1692 7612l299 467 -711 1163 1306 -231 291 455 -2228 330c-138,20 -256,24 -353,11 -96,-10 -178,-38 -244,-83 -68,-44 -134,-117 -200,-222 -27,-42 -63,-119 -107,-229 -45,-111 -73,-202 -84,-275l416 -91c4,51 21,115 48,188 26,75 50,129 69,160 31,50 82,82 150,98 69,15 184,4 346,-34l1004 -1707zm207 -5930c567,-396 1056,995 1144,1493 88,492 59,760 7,1242 -66,604 -17,1062 -47,1336 -1295,-315 -990,-2378 -1196,-3591 -52,-300 -134,-324 92,-481zm1957 9651l-1872 962 134 263 -770 394 -232 -454 404 -208 -618 -1208 -404 206 -231 -454 769 -395 106 205c310,-16 634,-77 968,-184 334,-106 691,-257 1071,-453l676 1324zm-353 -7416c44,-287 21,-450 157,-522 978,-522 922,2350 848,2898 -51,385 -137,765 -166,1149 -569,-235 -864,-1069 -938,-1700 -69,-607 10,-1235 100,-1824zm1085 9986c-150,246 -418,446 -804,599 -408,161 -745,195 -1016,102 -271,-91 -470,-301 -600,-629 -137,-348 -130,-643 20,-892 150,-246 416,-447 802,-600 387,-153 720,-190 995,-110 278,81 484,291 620,639 138,350 133,647 -16,892zm443 -8666c806,-653 954,1089 934,1706 -21,663 -274,1879 -492,2418 -1390,-301 -514,-2922 -442,-4124zm-1130 16608l7 294 -864 22 -13 -512 453 -10 -34 -1357 -454 11 -13 -511 865 -22 6 233c286,120 604,205 952,253 348,49 735,69 1160,58l38 1488 -2104 53zm1380 2895l-255 -435c93,-45 164,-91 207,-133 44,-45 80,-95 107,-154 27,-60 47,-131 57,-216 27,-205 -20,-369 -136,-493 -117,-123 -329,-205 -634,-243 -285,-37 -504,-13 -656,69 -154,82 -244,235 -272,454 -18,149 -6,267 41,356 46,91 112,176 196,255l-346 364c-147,-126 -247,-273 -302,-439 -56,-166 -69,-362 -40,-590 98,-774 580,-1106 1445,-995 444,57 759,196 945,420 186,222 256,519 209,890 -31,243 -97,439 -199,581 -102,144 -224,248 -368,311zm-607 2406l174 -756 -1994 -461 114 -498 1994 461 175 -755 456 106 -463 2008 -456 -105zm1184 -8982c47,372 -32,659 -237,860 -203,202 -514,330 -927,382 -433,55 -769,4 -1009,-152 -238,-156 -381,-409 -426,-759 -46,-371 32,-655 238,-859 206,-204 514,-331 924,-383 414,-52 744,-7 993,139 247,146 395,402 443,772zm-390 -2002l129 552 -1399 -525 -1054 1088 -130 -563 724 -722 -968 -339 -127 -552 1418 538 1037 -1084 131 570 -708 700 947 337zm-1985 12922c-68,-100 -90,-232 -72,-393 -96,192 -208,318 -337,376 -130,59 -280,59 -449,1 -240,-81 -387,-222 -440,-424 -56,-202 -34,-451 65,-742l303 -900 2382 808 -282 840c-104,304 -221,508 -356,608 -134,102 -296,120 -490,54 -148,-49 -255,-124 -324,-228zm-2467 1550l534 86 439 -860 -381 -385 233 -454 1860 1891 -306 599 -2618 -407 240 -471zm-8489 -1680c-477,-1395 -914,-2833 -1387,-4220 -66,-195 -11,-188 82,-351 593,-1034 562,-1208 907,-2153 33,-83 93,-302 130,-365 48,-79 2606,-1892 2962,-2148l185 -131c4,-3 10,-7 14,-10 6,-4 10,-8 14,-11 36,-26 48,-37 88,-65l4160 -2992c192,-138 1075,-802 1212,-851 1087,3974 892,8039 -544,11670 -1194,3015 -2948,5378 -5316,7398 -110,95 -368,322 -483,380 -697,-2061 -1318,-4087 -2024,-6150zm-27789 -10488c68,-504 140,-971 240,-1462 36,-166 79,-324 119,-485 73,-296 141,-593 227,-883 169,61 2230,1578 2393,1699l6241 4490c175,120 122,102 186,338 226,831 482,1447 894,2188 150,270 134,162 -52,728l-2784 8500c-83,245 -439,1430 -526,1549 -332,-180 -1523,-1321 -1791,-1588 -578,-578 -1072,-1156 -1580,-1824 -818,-1080 -1404,-2072 -1992,-3314l-202 -444c-86,-199 -166,-390 -252,-609 -1066,-2701 -1506,-5968 -1120,-8881zm5451 -14463c286,331 430,641 433,926 4,286 -127,544 -394,777 -282,243 -563,335 -845,277 -282,-59 -560,-246 -831,-558 -272,-317 -418,-618 -434,-905 -17,-289 114,-553 396,-798 282,-246 564,-339 845,-281 281,60 558,248 830,563zm1522 -475l-353 227 420 656 -429 276 -1358 -2121 796 -512c240,-154 460,-216 663,-188 202,27 382,167 543,417 164,256 224,484 184,685 -41,201 -196,387 -467,561zm17050 9982c703,638 1338,1352 1870,2355 448,844 898,2099 960,3256 38,711 24,1346 -80,2015 -102,657 -241,1078 -468,1631 -390,940 -903,1933 -1576,2647 -650,690 -1368,1329 -2373,1847 -2149,1106 -4672,1284 -6933,433 -1473,-556 -2742,-1491 -3665,-2656 -583,-734 -749,-1167 -1171,-1990 -99,-194 -460,-1375 -505,-1618 -58,-310 -100,-613 -131,-925 -126,-1273 133,-2663 519,-3673 425,-1104 944,-1844 1609,-2616 1359,-1581 3414,-2599 5636,-2797 2616,-235 4968,874 6310,2091zm-3730 -13684c-145,143 -380,211 -700,202l-419 -10 -20 779 -509 -13 64 -2520 945 24c285,7 504,79 655,216 151,136 223,354 216,652 -7,303 -85,526 -232,669zm1753 2863c41,8 84,15 123,24 539,111 1068,252 1587,409 176,54 349,119 522,177 951,320 1871,710 2747,1173 88,47 181,90 267,138 162,89 315,194 474,289 504,295 992,617 1466,959 207,151 416,304 618,464 525,416 1034,854 1511,1324 88,86 175,172 261,262 485,498 940,1027 1367,1576 124,160 243,322 363,486 418,574 811,1165 1158,1785 27,47 58,91 83,137 64,119 178,335 310,601 162,318 320,636 463,965 76,167 140,317 192,453 31,73 54,150 82,223 22,72 38,133 40,171l-9764 10c-93,-22 -354,-396 -422,-473 -847,-982 -1815,-1745 -3020,-2332 -140,-69 -119,-121 -171,-279 -35,-102 -78,-226 -113,-332 -814,-2432 -1768,-4808 -2602,-7197 -155,-445 -334,-881 -456,-1339 990,41 1967,138 2911,330zm817 -3554l-1102 -198 -94 529 931 167 -80 447 -930 -167 -106 595 1102 196 -83 464 -1603 -288 442 -2481 1604 287 -80 448zm2190 511l-1072 -305 -573 2018 -490 -139 686 -2425 1565 445 -116 406zm4393 2185c-12,-103 -31,-185 -56,-242 -25,-57 -60,-107 -107,-153 -46,-45 -108,-89 -183,-127 -185,-95 -353,-108 -510,-40 -157,68 -305,239 -444,515 -131,255 -184,469 -158,642 25,173 137,310 334,411 132,69 248,96 348,83 100,-13 202,-45 305,-99l224 451c-169,93 -342,139 -515,134 -174,-4 -362,-58 -567,-162 -691,-356 -840,-924 -442,-1701 203,-400 442,-648 714,-748 272,-100 574,-65 906,105 219,112 378,242 478,386 100,144 155,295 166,452l-494 93zm3301 1399l714 621c216,187 339,382 370,584 30,202 -54,416 -247,641 -199,229 -400,352 -603,370 -204,17 -427,-81 -670,-290l-316 -274 -510 588 -385 -335 1647 -1905zm-2409 -1164l272 -383 1676 1195 -272 383 -631 -450 -1185 1670 -415 -295 1185 -1672 -631 -448zm-3277 -2154l560 222 -923 2345 -449 -178 684 -1743 -1596 1382 -512 -202 923 -2343 450 177 -642 1633 1504 -1292zm-11887 -2152l425 -54c23,178 110,256 262,237 60,-8 110,-34 148,-78 40,-45 52,-117 40,-216l425 -55c12,92 -4,178 -50,262 -44,82 -112,153 -204,210 -92,57 -203,93 -333,111 -127,17 -243,8 -347,-24 -104,-31 -188,-82 -251,-152 -64,-71 -102,-150 -114,-242zm202 734l222 1741 684 -1857 612 -78 316 2501 -480 62 -236 -1859 -724 1980 -558 71 -316 -2501 478 -61zm1051 3933c83,-10 164,-11 247,-18 312,-28 630,-36 946,-48 -51,237 -497,1440 -600,1741 -573,1685 -1236,3625 -1844,5265 -243,656 -457,1375 -687,1980 -62,164 -216,166 -548,344 -1010,545 -1878,1277 -2612,2124 -151,174 -410,471 -518,667 -798,26 -1658,-18 -2468,-28 -801,-10 -1632,-24 -2440,-51 -806,-28 -1624,-41 -2440,-51 -388,-4 -806,-6 -1195,-28 -402,-21 -818,0 -1223,-17 2444,-6419 8314,-11142 15382,-11880zm-3989 -3038c120,-263 360,-436 722,-519 364,-85 656,-35 878,149 220,184 378,478 471,885 99,427 82,768 -48,1023 -133,255 -370,421 -713,500 -362,83 -653,34 -876,-151 -222,-184 -380,-479 -473,-884 -93,-406 -82,-741 38,-1003zm-1462 180l491 -194c55,356 76,643 66,860 -11,216 -56,382 -136,497 112,15 213,51 306,107 93,57 192,142 295,256 104,116 257,316 457,600l-492 194c-109,-146 -205,-274 -289,-384 -84,-110 -164,-197 -237,-263 -75,-65 -145,-107 -213,-129 -68,-18 -142,-13 -222,18l-238 95 387 984 -474 188 -921 -2346 473 -187 382 967 271 -106c64,-26 107,-79 131,-163 22,-82 32,-204 26,-364 -6,-160 -27,-369 -62,-631zm-2660 2578c130,257 272,424 428,505 155,81 330,69 528,-31 132,-68 223,-147 271,-236 46,-89 80,-191 97,-305l497 81c-22,192 -86,359 -192,498 -106,140 -260,261 -463,366 -693,355 -1239,144 -1637,-635 -203,-399 -265,-738 -188,-1018 78,-280 282,-505 614,-675 218,-113 416,-168 592,-164 175,3 330,45 463,129l-213 457c-90,-51 -168,-83 -229,-95 -61,-12 -123,-14 -186,-3 -63,12 -134,36 -210,75 -184,95 -294,225 -329,392 -37,165 16,387 156,660zm-6285 3301l378 -437 1901 1650 -324 375 -1277 -1109 399 1147 -194 225 -1184 -239 1277 1110 -323 373 -1901 -1649 386 -449 1331 287 -468 -1286zm-2700 3530l308 -537 2180 1257 -242 420 -1618 -934 1137 1774 -281 488 -2180 -1257 241 -419 1518 874 -1064 -1666zm-720 -256l213 -372c79,45 138,112 176,196 39,86 55,182 45,290 -10,109 -48,221 -113,334 -64,112 -141,199 -228,263 -89,64 -179,101 -272,109 -94,10 -181,-8 -261,-55l213 -370c155,89 271,68 347,-67 31,-52 40,-107 28,-166 -11,-58 -60,-113 -148,-162zm-1171 3999l199 -441 1596 724 -1214 -1571 247 -548 2292 1038 -199 443 -1703 -772 1300 1665 -226 504 -2292 -1040zm1990 1948c-182,-3 -342,-3 -481,-3 -137,0 -255,11 -351,30 -98,20 -174,51 -232,92 -56,43 -97,105 -120,187l-70 249 1016 288 -138 492 -2420 -689 138 -492 999 285 80 -281c18,-67 2,-133 -49,-202 -51,-69 -141,-150 -272,-241 -130,-93 -309,-204 -538,-335l144 -508c316,172 557,330 722,469 165,140 268,276 312,409 79,-79 169,-139 270,-180 102,-39 230,-66 384,-78 154,-12 405,-14 752,-1l-145 509zm-2519 12736c28,-173 93,-320 195,-440l420 279c-64,82 -107,153 -128,212 -21,58 -31,119 -30,185 3,65 16,137 44,219 66,195 178,324 337,383 160,61 386,41 676,-58 272,-92 459,-209 560,-351 102,-142 117,-317 46,-528 -48,-142 -112,-242 -192,-303 -80,-61 -176,-109 -288,-142l152 -481c186,51 341,139 463,263 123,125 220,295 294,514 250,738 -40,1247 -866,1529 -424,143 -768,156 -1033,37 -265,-119 -457,-355 -576,-708 -79,-234 -104,-437 -75,-611zm-608 -2724c54,-168 140,-303 258,-407l374 340c-75,71 -128,134 -158,189 -30,55 -48,115 -56,178 -8,65 -4,140 11,225 35,204 127,345 275,429 150,83 374,99 677,44 284,-51 486,-139 607,-263 121,-124 162,-295 124,-515 -27,-147 -75,-256 -146,-328 -70,-71 -158,-133 -264,-182l223 -453c178,78 318,187 419,330 102,142 174,326 213,550 137,768 -224,1229 -1084,1383 -440,78 -782,40 -1026,-117 -246,-158 -399,-420 -466,-786 -44,-242 -38,-449 17,-615zm501 -7220c110,130 316,222 620,276 282,51 502,38 660,-37 156,-75 254,-220 293,-440 27,-147 18,-267 -24,-358 -41,-92 -102,-180 -182,-263l364 -348c140,136 233,287 280,455 46,167 51,365 10,590 -137,768 -635,1075 -1494,922 -440,-79 -748,-235 -922,-467 -176,-232 -232,-532 -165,-898 42,-243 119,-434 227,-573 109,-137 237,-235 384,-291l233 447c-94,42 -166,84 -213,125 -46,41 -84,91 -114,148 -30,57 -54,127 -68,214 -37,204 0,369 112,498zm-816 1889l46 -618 2508 192 -37 484 -1862 -143 1789 1109 -42 562 -2509 -191 38 -483 1747 133 -1678 -1044zm-26 2922l-45 -601 2508 -191 37 483 -1863 142 1936 836 42 550 -2508 191 -36 -483 1747 -133 -1818 -793zm18078 19013l0 -653 1208 0 0 2495 477 0 0 657 -1726 0 0 -657 467 0 0 -1841 -426 0zm1837 382c0,-742 504,-1080 1196,-1080 687,0 1208,338 1208,1080 0,216 -41,437 -166,622l-917 1526 -893 0 669 -1139c-665,50 -1096,-410 -1096,-1010zm2719 -382l0 -653 1209 0 0 2495 476 0 0 657 -1726 0 0 -657 467 0 0 -1841 -426 0zm-198 -2223c-2920,-4 -5721,-662 -8204,-1882 -381,-187 -728,-372 -1079,-574 -206,-119 -332,-195 -525,-314 -96,-58 -165,-102 -258,-161l-248 -184c54,-78 209,-170 298,-235 100,-74 196,-144 299,-218l8478 -6128c113,-81 199,-142 300,-216 200,-149 312,-96 669,-96l937 0c134,0 497,304 620,392 193,137 405,291 601,434l3601 2593c799,581 1592,1131 2395,1725 199,146 390,282 587,423 108,78 196,140 300,218 30,20 40,30 74,54 4,3 10,7 14,10l14 10c18,13 27,18 42,30 59,41 104,75 158,113 399,287 804,590 1204,867 -166,214 -1730,1051 -2115,1240 -2452,1207 -5264,1906 -8160,1901zm2777 3268l0 -109 418 -874 -908 0 0 -716 2000 0 0 117 -580 1062c500,127 644,532 644,938 4,536 -378,1099 -1106,1099 -238,0 -409,-49 -562,-136 -296,-167 -516,-486 -516,-891l706 0c4,206 140,309 356,309 219,0 342,-165 346,-377 -4,-455 -454,-437 -796,-423zm20399 -34853c17,-124 56,-208 313,-228 392,-30 556,425 611,762 51,320 62,1005 -35,1285 -102,291 -21,159 -117,550 -144,584 -344,1027 -519,1555 -242,-85 -502,-483 -588,-797 -200,-722 80,-1658 221,-2383l114 -745zm1185 2294c17,-134 3,-185 102,-246 758,-458 910,1287 620,2151 -30,86 -480,817 -691,1383 -33,89 -60,163 -89,256l-99 285c-230,-129 -437,-548 -453,-949 -16,-421 90,-856 199,-1218 157,-529 338,-1114 412,-1663zm1004 2192l450 -710c68,-89 152,-97 337,-68 868,142 -378,2820 -720,3339 -102,156 -202,308 -299,464l-315 479c-210,-407 -328,-641 -303,-1236 31,-795 454,-1628 850,-2269zm1674 1875c72,238 15,556 -37,771 -257,1075 -998,2164 -1712,2984 -78,91 -131,181 -223,231 -334,-162 -444,-734 -333,-1181 97,-390 315,-796 501,-1104 402,-665 862,-1294 1235,-1973 326,-25 490,11 569,273zm322 3407c-90,427 -347,888 -549,1202 -86,131 -119,93 -189,231 -61,116 -99,174 -174,273 -226,289 -1057,1268 -1266,1363 -72,-197 -143,-300 -184,-557 -70,-453 59,-854 256,-1233 351,-678 814,-1202 1226,-1836 100,-157 190,-328 289,-475 692,-34 716,430 590,1033zm128 1976c88,655 -360,1478 -696,1927 -116,154 -270,356 -400,465 -170,144 -326,265 -484,406 -165,149 -300,269 -440,422 -100,106 -333,403 -428,465 -66,-59 -96,-161 -124,-252 -367,-1165 947,-2205 1713,-3272 107,-151 206,-341 309,-478 300,-21 509,21 549,317zm474 2441c-150,-233 -166,-402 -680,-528 42,-119 116,-206 181,-325 58,-106 100,-192 151,-316 773,-1875 -351,-1940 -366,-1979 -4,-8 -12,-6 -20,-10 41,-106 124,-227 184,-341 376,-726 774,-2245 -445,-2330l291 -738c79,-229 174,-591 186,-840 36,-735 -226,-1082 -951,-1079 22,-111 93,-296 131,-396 4,-13 16,-40 20,-53l12 -36c258,-912 422,-2151 -1053,-1834 6,-752 -97,-1916 -1113,-1755 25,-633 82,-1051 -150,-1604 -185,-443 -515,-746 -1128,-578 -26,-619 -32,-1827 -703,-2130 -330,-148 -487,-4 -754,67 -27,-583 -175,-1689 -792,-1878 -274,-85 -487,40 -687,115 -79,-259 -106,-471 -212,-724 -92,-219 -199,-431 -326,-611 -552,-785 -919,-476 -1208,-393 -84,-608 -535,-1614 -1166,-1819 -367,-119 -539,58 -759,161 -234,-605 -604,-1648 -1316,-1783 -381,-74 -593,213 -724,285 -130,-121 -673,-1769 -1568,-1480 -352,111 -416,392 -590,469 -155,-390 -666,-910 -1022,-1174 -395,-294 -1152,-608 -1444,-14 -148,-78 -404,-601 -1086,-983 -353,-197 -793,-327 -1160,-32 -126,102 -134,178 -230,273 -117,-65 -552,-619 -1154,-925 -219,-111 -550,-240 -841,-142 -334,113 -384,366 -494,543 -62,-24 -6,8 -79,-48l-199 -171c-89,-73 -166,-133 -262,-206 -174,-129 -367,-256 -586,-351 -237,-102 -528,-167 -775,-47 -185,92 -353,303 -402,536 -123,-40 -205,-120 -311,-184 -591,-363 -1961,-868 -2164,101 -117,-42 -208,-122 -315,-185 -244,-147 -581,-300 -862,-369l-157 -47c-6,-2 -17,-2 -20,-10 -4,-10 -14,-7 -21,-11l-525 0c-176,107 -492,82 -638,568l-44 115c-2,4 -6,12 -10,18 -422,-156 -1562,-847 -2220,-380 -257,184 -248,386 -285,576l-35 103c-423,-120 -2283,-1048 -2256,496 -138,-24 -272,-89 -409,-129 -1866,-533 -2598,686 -2732,741 -93,38 -1460,-195 -2230,1065 -44,71 -38,89 -113,119 -62,27 -272,57 -361,79 -328,82 -641,236 -890,437 -332,269 -536,563 -745,1031 -518,52 -1030,212 -1402,424 -184,105 -373,260 -472,440 -212,382 7,488 -1,713 -574,28 -1180,195 -1583,443 -927,570 -493,1140 -448,1348 -597,58 -1872,463 -2095,1137 -117,355 117,594 231,783 -140,103 -842,208 -1390,605 -471,341 -621,809 -159,1294 -52,59 -82,61 -158,93 -528,220 -1317,765 -1503,1307 -73,212 -54,427 74,615l88 187c-50,32 -2,4 -50,31l-265 127c-508,266 -1245,805 -1314,1402 -55,481 245,632 324,762l-670 445c-210,156 -415,324 -583,528 -453,548 -511,1061 136,1448l-607 477c-185,156 -395,363 -536,572 -154,225 -282,528 -140,832 161,342 498,413 604,515 -113,178 -587,475 -934,1271 -274,628 -282,1238 410,1417 -30,74 -1250,1345 -766,2203 198,350 488,327 640,420 -69,161 -433,560 -653,1171 -42,120 -86,400 -136,484l0 220c76,124 35,304 285,505 164,131 366,184 628,191 -10,117 -96,209 -152,314 -425,775 -882,1977 502,2048 -155,526 -342,779 -304,1539 30,584 325,925 917,910 -75,400 -386,833 -270,1632 41,280 164,524 322,663 210,185 422,219 787,202 -34,332 -554,1820 229,2335 285,190 498,126 840,79 -35,519 -302,1609 298,2043 270,195 374,96 694,140 0,498 83,918 284,1279 209,378 443,564 1006,451 38,660 147,1525 778,1807 333,149 450,30 722,-7 56,612 301,1606 923,1793 361,107 484,-62 737,-123 65,519 382,1451 971,1571 326,65 466,-99 682,-162 120,489 658,1294 1192,1474 344,114 478,-28 697,-127 272,604 653,1362 1340,1492 405,77 514,-103 730,-208 106,125 940,1881 1891,1349 203,-113 171,-184 316,-229 140,334 958,1427 1638,1174 213,-79 429,-293 507,-481 176,75 354,492 1150,921 316,170 844,383 1210,161 54,-32 95,-65 136,-109l127 -151c188,113 495,516 1161,767 526,198 967,199 1272,-270l56 -75 576 390c209,126 408,232 662,324 434,157 974,178 1189,-301 16,-34 24,-65 36,-88l52 -83c202,83 519,351 1032,532l406 121 213 0c231,-146 392,6 605,-528 26,-62 3,-22 37,-78 126,23 1713,825 2289,157 93,-109 78,-180 151,-303 315,75 704,363 1404,396 425,18 926,-85 1052,-515l58 -194c524,164 1634,553 2180,160 206,-149 252,-308 258,-652 474,87 1520,448 2007,7 179,-163 198,-360 176,-669 672,25 1154,59 1750,-146 528,-181 906,-430 748,-1103 760,0 1870,-10 2294,-684 203,-322 102,-481 26,-792 701,-39 2557,-204 2331,-1274 -35,-164 -130,-262 -158,-376 612,-58 1801,-269 2010,-900 123,-368 -83,-536 -162,-761 611,-116 1617,-583 1890,-1139 195,-397 3,-528 -102,-795 755,-176 2244,-860 1911,-1775 -57,-153 -158,-222 -208,-349 564,-167 1798,-792 1875,-1476 37,-327 -126,-500 -305,-673 -69,-68 -27,1 -69,-98 453,-161 1109,-617 1360,-911 515,-603 47,-1195 -426,-1342 -6,-1 -14,-4 -18,-6 -4,-1 -13,-1 -18,-6 310,-210 694,-683 898,-1051 272,-489 333,-1098 -192,-1334 40,-96 24,-55 138,-156 549,-481 1449,-1606 803,-2273 -96,-100 -222,-139 -316,-228 228,-321 1343,-1343 1024,-2165 -52,-137 -142,-236 -234,-304 -185,-138 -293,-122 -382,-198 168,-283 439,-518 680,-1034l169 -431 0 -426c-4,-4 -10,-13 -13,-17z"/>
   <path class="fil0" d="M49434 27758c-281,-61 -505,-120 -672,-178l21 829 1674 -41 -13 -508c-392,-7 -728,-41 -1010,-102z"/>
   <path class="fil0" d="M27094 48740c0,-220 -148,-392 -395,-392 -239,0 -397,171 -397,392 0,231 158,396 397,396 260,0 395,-153 395,-396z"/>
   <path class="fil0" d="M49374 24853c-295,38 -505,107 -629,209 -126,103 -175,253 -150,450 25,200 111,334 257,400 145,66 367,81 662,44 296,-38 507,-107 630,-209 126,-101 175,-250 150,-451 -26,-200 -112,-332 -257,-399 -146,-67 -367,-81 -662,-44z"/>
  </g>
 </g>
</svg>
