<?xml version="1.0" encoding="UTF-8"?>
<!DOCTYPE svg PUBLIC "-//W3C//DTD SVG 1.1//EN" "http://www.w3.org/Graphics/SVG/1.1/DTD/svg11.dtd">
<!-- Creator: CorelDRAW X6 -->
<svg xmlns="http://www.w3.org/2000/svg" xml:space="preserve" width="560mm" height="560mm" version="1.1" style="shape-rendering:geometricPrecision; text-rendering:geometricPrecision; image-rendering:optimizeQuality; fill-rule:evenodd; clip-rule:evenodd"
viewBox="0 0 56000 56000"
 xmlns:xlink="http://www.w3.org/1999/xlink">
 <defs>
  <style type="text/css">
   <![CDATA[
    .fil0 {fill:#40495B}
    .fil1 {fill:#40495B;fill-rule:nonzero}
   ]]>
  </style>
 </defs>
 <g id="Слой_x0020_1">
  <metadata id="CorelCorpID_0Corel-Layer"/>
  <g id="_826769792">
   <path class="fil0" d="M3942 24523c-306,-38 -514,152 -560,528 -18,152 -16,258 -7,315l982 118c22,-62 37,-140 51,-248 48,-401 -124,-672 -466,-712z"/>
   <path class="fil0" d="M5174 22770l178 -720 -739 32c-208,10 -464,8 -669,10l-3 8c182,98 416,205 591,305l642 364z"/>
   <path class="fil0" d="M14586 7730c-176,-254 -457,-282 -768,-66 -127,87 -203,158 -240,202l564 814c61,-23 130,-65 220,-127 330,-231 418,-540 223,-822z"/>
   <path class="fil0" d="M12650 11497c377,-350 260,-908 -185,-1384 -411,-443 -975,-626 -1358,-270 -377,348 -262,910 182,1388 448,481 988,611 1360,266z"/>
   <path class="fil0" d="M23312 4327c-97,-183 -206,-415 -295,-600l-10 0c-10,206 -7,464 -21,666l-56 738 727 -148 -344 -656z"/>
   <path class="fil0" d="M45248 11122c100,-183 236,-399 343,-576l-7 -7c-178,106 -394,248 -569,346l-649 358 522 528 360 -649z"/>
   <path class="fil0" d="M26632 4190c98,-6 205,-18 271,-32l-55 -909c-56,-6 -155,-20 -309,-10 -329,20 -583,176 -562,519 20,308 313,453 655,432z"/>
   <path class="fil0" d="M38682 8152c452,243 941,-46 1252,-622 285,-532 275,-1125 -185,-1373 -452,-243 -948,47 -1257,622 -310,578 -258,1133 190,1373z"/>
   <path class="fil0" d="M30908 5491c109,-78 189,-205 206,-368 20,-168 -36,-299 -134,-395 -123,-118 -306,-183 -482,-204 -86,-10 -175,-14 -270,-10l-117 1043c80,24 185,41 288,52 183,21 372,-17 509,-117z"/>
   <path class="fil0" d="M51030 29530c382,17 555,-270 570,-632 4,-108 -3,-199 -7,-293l-1058 -47c-18,83 -27,174 -32,282 -16,367 150,673 528,690z"/>
   <path class="fil0" d="M53332 28685l-1162 -49c4,103 14,262 7,408 -32,720 -402,1315 -1147,1284 -318,-14 -550,-130 -718,-301 -313,-338 -388,-903 -364,-1425 14,-371 51,-650 83,-817l3333 145 -32 755zm-735 -3076l-74 -900 635 -51 210 2572 -635 51 -75 -913 -2711 220 -62 -759 2711 -220zm-3050 -1772c-242,-1132 337,-1866 1270,-2066 1118,-240 1909,424 2122,1416 82,384 68,691 27,837l-620 -24c30,-164 44,-387 -12,-648 -126,-588 -577,-968 -1307,-811 -656,140 -985,617 -844,1277 48,223 150,461 239,594l-553 236c-96,-120 -236,-411 -322,-810zm-988 -3484c-346,-933 156,-1741 1054,-2073 944,-350 1872,-9 2218,920 357,966 -171,1762 -1040,2086 -1032,382 -1891,-11 -2232,-933zm-20560 27927c-11201,0 -20280,-9079 -20280,-20280 0,-11200 9079,-20279 20280,-20279 11200,0 20280,9079 20280,20279 0,11201 -9080,20280 -20280,20280zm-20862 -27366l-3103 -1277 291 -704 1192 490 474 -1154 -1191 -491 288 -700 3102 1277 -286 698 -1300 -534 -476 1156 1300 535 -291 704zm-313 1122l-896 45 -230 932 776 439 -188 762 -3006 -1799 238 -965 3502 -203 -198 790zm-784 4410l-3285 -400c-11,-236 -1,-566 55,-1024 56,-464 186,-784 391,-986 192,-190 487,-300 811,-261 328,40 590,180 754,402 210,285 274,680 220,1125 -13,97 -28,186 -45,254l1188 144 -89 746zm-2743 2920l-636 4 -10 -2579 638 -3 3 917 2718 -10 3 760 -2716 10 2 900zm3046 -14649c198,-340 418,-558 545,-639l442 437c-132,100 -292,256 -428,487 -303,519 -226,1106 419,1483 580,337 1144,208 1486,-377 116,-198 200,-442 223,-600l570 199c-10,156 -103,463 -309,814 -586,1002 -1508,1154 -2333,673 -988,-577 -1127,-1602 -615,-2478zm2618 -3511l2632 2080 -473 598 -2144 -1694 -738 933 2145 1695 -472 597 -2632 -2078 1682 -2131zm1751 -1819c756,-702 1695,-518 2324,159 749,807 715,1751 -4,2419 -730,679 -1669,524 -2320,-176 -684,-738 -726,-1727 0,-2402zm2748 -2172c384,-266 710,-384 996,-364 272,18 549,164 736,433 186,271 257,562 200,831 -73,347 -326,656 -694,912 -82,58 -158,104 -222,136l684 986 -618 427 -1888 -2720c171,-165 423,-377 804,-641zm3938 -2278l296 566 -814 426 1263 2410 -676 354 -1263 -2412 -798 418 -296 -564 2289 -1198zm1390 -560l440 1212 1173 -428 -439 -1212 710 -257 1146 3152 -711 260 -478 -1321 -1176 426 480 1319 -717 260 -1144 -3152 717 -260zm3653 -1113l978 -198 1685 3084 -802 162 -424 -794 -943 190 -64 892 -772 156 341 -3494zm2777 471c-20,-312 104,-559 303,-731 247,-216 649,-305 1076,-332 368,-22 722,-14 968,10l206 3301 -751 46 -82 -1315 -182 11c-150,8 -265,61 -350,151 -202,217 -260,649 -341,928 -28,102 -47,182 -102,289l-804 51c63,-113 110,-246 145,-388 112,-390 165,-787 405,-1046 69,-80 165,-141 265,-192l0 -16c-377,-44 -725,-284 -756,-769zm4458 -1046l2217 248 -70 614 -1462 -165 -65 573c114,-2 274,6 408,22 336,38 678,161 909,376 213,196 337,474 296,840 -38,327 -189,564 -401,715 -354,251 -889,292 -1398,233 -371,-41 -639,-96 -806,-140l372 -3316zm3298 442l2014 484 -147 605 -1273 -306 -162 679 1200 288 -143 601 -1201 -289 -188 773 1342 325 -147 604 -2080 -501 785 -3262zm3437 1552c-241,-89 -550,-90 -759,-69l20 -570c268,-49 639,-49 1074,112 690,256 970,751 799,1214 -145,392 -509,554 -907,508l-3 10c374,196 618,595 461,1022 -260,698 -1061,677 -1648,460 -326,-120 -655,-322 -861,-570l351 -488c113,124 398,360 692,467 358,134 634,65 732,-195 128,-352 -210,-556 -504,-665l-298 -110 193 -524 295 110c320,119 619,60 711,-189 76,-205 -45,-409 -349,-522zm3639 953c908,488 1039,1435 601,2251 -521,971 -1426,1243 -2290,779 -878,-473 -1037,-1412 -584,-2255 477,-886 1400,-1244 2273,-774zm4297 2946l-2023 2677 -606 -457 1646 -2182 -948 -717 -1647 2182 -608 -459 2022 -2677 2164 1633zm2017 1937l-1660 3103 -574 -583 430 -790 -674 -684 -782 436 -554 -560 3113 -1630 702 708zm2210 2594c233,315 346,603 371,752l-577 234c-38,-162 -118,-371 -278,-586 -358,-484 -928,-645 -1528,-200 -541,400 -642,970 -242,1514 138,185 329,360 464,444l-408 443c-138,-71 -384,-278 -626,-607 -690,-932 -464,-1840 304,-2409 920,-680 1916,-404 2520,413zm1259 1998l-1126 631 608 1092 1128 -631 370 662 -2929 1637 -370 -660 1225 -686 -610 -1092 -1228 686 -370 -664 2930 -1638 372 665zm-21833 -15112c-15464,0 -27999,12536 -27999,27999 0,15464 12535,28001 27999,28001 15464,0 28001,-12536 28001,-28001 0,-15463 -12536,-27999 -28001,-27999z"/>
   <path class="fil0" d="M51259 19391c-178,-481 -741,-593 -1353,-366 -617,229 -942,679 -766,1157 178,480 738,586 1349,358 566,-209 952,-660 770,-1150z"/>
   <path class="fil1" d="M39342 29870l-134 1777c62,-590 104,-1183 134,-1777z"/>
   <path class="fil1" d="M35723 27344c57,99 99,204 132,316 4,14 10,28 14,42 28,117 48,238 48,367 0,114 -16,224 -40,332 -2,6 -4,11 -6,17 -23,103 -59,200 -103,294l1748 0 0 -1367 -1794 0z"/>
   <path class="fil1" d="M20266 28656c-41,-89 -74,-182 -95,-279 0,-3 -1,-6 -3,-10 -21,-98 -35,-200 -35,-304 0,-127 24,-251 55,-371 7,-26 16,-48 24,-72 36,-117 86,-229 151,-332l-1836 0 0 1367 1738 0z"/>
   <polygon class="fil1" points="39428,28710 42457,28710 42361,27343 39532,27343 "/>
   <path class="fil1" d="M39047 32944l-1520 944c-236,1330 -539,2646 -941,3937 -1243,-265 -2496,-468 -3755,-620l0 1348c1105,127 2206,294 3299,512 -272,706 -572,1370 -890,1997l1494 0c8,0 16,-4 24,-4 210,-449 402,-907 576,-1374l0 -682 992 -845c-144,-40 -284,-93 -428,-130 524,-1662 898,-3364 1149,-5083z"/>
   <path class="fil1" d="M16887 32427l-385 -5139 -2860 0 -94 1360 3049 8c17,1263 128,2520 291,3770z"/>
   <path class="fil1" d="M27316 19812l1367 0 0 -726c1756,-23 3505,-165 5242,-408 -428,-498 -1129,-834 -1772,-834l-8304 0c-592,0 -1260,343 -1689,810 1709,247 3429,398 5156,432l0 726z"/>
   <path class="fil1" d="M18499 33922l-1545 -959c251,1713 626,3408 1147,5063 -161,40 -314,96 -473,138l1034 880 0 574c184,507 388,1003 617,1487l1500 0c-326,-638 -632,-1314 -910,-2032 1108,-223 2224,-392 3346,-522l0 -1388c-2,-16 -11,-30 -13,-45 -1270,142 -2536,339 -3790,597 -387,-1244 -680,-2513 -913,-3793z"/>
   <path class="fil1" d="M33134 28710c-46,-93 -85,-192 -110,-294 -2,-7 -4,-14 -7,-21 -25,-107 -41,-216 -41,-327 0,-123 21,-241 52,-357 4,-17 10,-34 16,-51 32,-111 78,-217 136,-317l-4496 0 0 -2303 -1367 0 0 2248 -4459 0 0 1c62,100 109,212 144,328 7,22 14,42 20,65 31,122 54,248 54,382 0,106 -11,208 -31,308 0,2 -2,3 -2,4 -20,97 -49,190 -89,279l4363 0 0 2668 1367 0 0 -2613 4451 0z"/>
   <path class="fil1" d="M42802 39757c-1091,-494 -2217,-897 -3358,-1258l-1126 958 0 165c1208,332 2397,720 3554,1202 -2392,2592 -5460,4465 -8859,5405 1294,-1221 2383,-2634 3240,-4181l-1548 0c-1622,2746 -3713,4506 -6023,4801l0 -8567c1057,13 2111,76 3162,172l0 -1334c0,-4 1,-8 1,-13 -1051,-100 -2105,-172 -3164,-193l0 -4606 -1367 0 0 4551c-1046,14 -2090,78 -3130,170 3,27 10,54 13,82l1 27 0 27 0 1290c1036,-95 2074,-158 3116,-172l0 8567c-2299,-294 -4380,-2041 -5998,-4758l-1535 0c848,1530 1926,2928 3203,4139 -3401,-943 -6468,-2818 -8859,-5413l0 -56c1156,-481 2345,-869 3552,-1201l0 -59 -1182 -1006c-1119,341 -2225,724 -3299,1191 -2506,-3151 -3934,-7023 -4074,-11046l3438 7 94 -1356 -3532 0c140,-4024 1568,-7896 4074,-11048 1582,716 3223,1296 4904,1732 -580,1841 -972,3731 -1219,5640 374,601 828,1826 1126,1184l130 -270c212,-2153 631,-4283 1276,-6353 549,117 1101,216 1654,310 276,-461 701,-865 1195,-1156 -800,-110 -1599,-237 -2394,-395 1705,-4429 4384,-7393 7447,-7784l0 7708 1367 0 0 -7708c3064,391 5742,3363 7446,7775 -776,155 -1558,281 -2342,391 524,298 958,717 1218,1200 528,-89 1057,-179 1582,-288 624,2007 1032,4068 1250,6152l209 432c162,354 587,-176 1123,-794 -237,-2053 -649,-4085 -1272,-6064 1679,-412 3320,-967 4905,-1658 2505,3151 3933,7023 4074,11048l-3526 0 94 1366 3432 0c-141,4024 -1569,7896 -4074,11047zm-19816 -29987c-2008,1892 -3530,4240 -4438,6845 -1510,-367 -2988,-851 -4421,-1449 2392,-2590 5461,-4459 8859,-5396zm18876 5414c-1434,598 -2911,1082 -4421,1449 -902,-2611 -2423,-4966 -4428,-6864 3396,944 6463,2819 8849,5414zm-13862 -7465c-11202,0 -20281,9079 -20281,20279 0,11201 9079,20282 20281,20282 11200,0 20280,-9080 20280,-20282 -16,-11193 -9088,-20265 -20280,-20279z"/>
   <path class="fil1" d="M42816 33497l-600 -8625c0,-642 -546,-1190 -1239,-1190 -690,0 -1237,548 -1237,1239l-598 7981 -6052 3758c-140,92 -233,281 -233,460l0 3395c0,314 277,546 600,546l3305 0c323,0 600,-222 600,-546l0 -1514 4953 -4218c464,-368 550,-590 502,-1287z"/>
   <path class="fil1" d="M21630 26593c828,0 1470,644 1470,1470 0,827 -642,1470 -1470,1470 -827,0 -1470,-691 -1470,-1470 0,-779 643,-1470 1470,-1470zm1612 -5770c367,-832 735,-1012 1556,-1012l6463 0c827,0 1195,189 1606,1012l2018 4218 -13671 0 2028 -4218zm12703 7245c0,828 -649,1470 -1470,1470 -828,0 -1472,-692 -1472,-1470 0,-778 649,-1470 1472,-1470 821,0 1470,644 1470,1470zm-17390 -1238l0 5951 760 473 2036 0c227,0 458,-227 458,-459l0 -1470 12480 0 0 1475c0,227 184,460 460,460l1952 0 842 -525 0 -5904c0,-552 -90,-1006 -365,-1606l-2937 -6099c-314,-735 -1239,-1282 -2060,-1282l-8306 0c-779,0 -1693,590 -2018,1282l-2935 6099c-277,595 -368,1006 -368,1606z"/>
   <path class="fil1" d="M19288 41106l3353 0c323,0 600,-233 600,-548l0 -3394c-10,-179 -102,-359 -237,-460l-6051 -3759 -600 -7980c44,-735 -546,-1283 -1239,-1283 -692,0 -1281,548 -1281,1233l-600 8629c-44,691 44,914 502,1283l4953 4218 0 1513c0,324 276,548 600,548z"/>
  </g>
 </g>
</svg>
